<svg width="15" height="15" viewBox="0 0 15 15" fill="none" xmlns="http://www.w3.org/2000/svg">
<path d="M4.39137 13.3094C3.97715 13.3094 3.64137 13.6451 3.64137 14.0594C3.64137 14.4736 3.97715 14.8094 4.39137 14.8094V13.3094ZM11.087 14.8094C11.5012 14.8094 11.837 14.4736 11.837 14.0594C11.837 13.6451 11.5012 13.3094 11.087 13.3094V14.8094ZM9.65224 14.0594L8.92536 14.2441L9.06905 14.8094H9.65224V14.0594ZM8.69571 10.2968L9.42259 10.112C9.33807 9.77954 9.03875 9.5468 8.69571 9.5468V10.2968ZM11.087 3.71233L10.3388 3.66067C10.3381 3.67126 10.3376 3.68187 10.3373 3.69248L11.087 3.71233ZM3.91311 3.71233L4.66284 3.69251C4.66255 3.6814 4.66201 3.67031 4.66122 3.65922L3.91311 3.71233ZM6.78267 10.2968L7.50955 10.4816C7.57446 10.2263 7.50064 9.95559 7.31509 9.76857L6.78267 10.2968ZM5.82615 14.0594V14.8094H6.40934L6.55303 14.2441L5.82615 14.0594ZM1.5 3.71233V2.96233C1.11069 2.96233 0.78611 3.2602 0.752762 3.64808L1.5 3.71233ZM13.5 3.71233L14.25 3.71232C14.25 3.29811 13.9142 2.96233 13.5 2.96233V3.71233ZM4.39137 14.8094H11.087V13.3094H4.39137V14.8094ZM11.087 13.3094H9.65224V14.8094H11.087V13.3094ZM10.3791 13.8746L9.42259 10.112L7.96883 10.4816L8.92536 14.2441L10.3791 13.8746ZM8.69571 9.5468C8.83476 9.5468 9.0294 9.58785 9.19792 9.74077C9.35791 9.88594 9.41263 10.0583 9.43121 10.1616C9.46288 10.3375 9.42024 10.4752 9.41598 10.4903C9.40398 10.533 9.3909 10.5637 9.38609 10.5748C9.38002 10.5888 9.37525 10.5982 9.37362 10.6014C9.37026 10.608 9.37653 10.5956 9.4029 10.5535C9.45101 10.4768 9.52986 10.3583 9.63457 10.2053C9.84186 9.90249 10.1294 9.49524 10.4228 9.08395C10.7155 8.67361 11.0115 8.2629 11.2344 7.95454C11.3458 7.80042 11.4389 7.67201 11.5041 7.58217C11.5367 7.53725 11.5623 7.50198 11.5798 7.47797C11.5885 7.46596 11.5952 7.45677 11.5997 7.4506C11.6019 7.44751 11.6036 7.44518 11.6047 7.44362C11.6053 7.44285 11.6057 7.44226 11.606 7.44188C11.6062 7.44169 11.6063 7.44155 11.6063 7.44145C11.6064 7.44141 11.6064 7.44137 11.6064 7.44135C11.6064 7.44133 11.6064 7.44132 11 7C10.3936 6.55868 10.3936 6.55869 10.3936 6.55872C10.3935 6.55875 10.3935 6.55879 10.3935 6.55885C10.3934 6.55896 10.3933 6.55911 10.3931 6.55932C10.3928 6.55974 10.3924 6.56035 10.3918 6.56116C10.3906 6.56277 10.3889 6.56517 10.3866 6.56832C10.382 6.57462 10.3752 6.58394 10.3664 6.59608C10.3487 6.62036 10.3229 6.65592 10.2901 6.70115C10.2245 6.7916 10.1308 6.92075 10.0188 7.07571C9.79484 7.3855 9.49689 7.79899 9.20166 8.21285C8.90711 8.62576 8.61264 9.0427 8.39679 9.35802C8.28992 9.51414 8.19692 9.65321 8.132 9.75677C8.10186 9.80484 8.06632 9.8633 8.03825 9.91816C8.02927 9.93571 7.99531 10.0013 7.97195 10.0844C7.96594 10.1058 7.92269 10.2481 7.95493 10.4272C7.97379 10.5321 8.02909 10.7057 8.18996 10.8516C8.35937 11.0053 8.55519 11.0468 8.69571 11.0468V9.5468ZM11.7497 7.01984L11.8368 3.73217L10.3373 3.69248L10.2503 6.98016L11.7497 7.01984ZM11.087 3.71233C11.8352 3.76398 11.8352 3.76395 11.8352 3.76391C11.8352 3.76389 11.8352 3.76384 11.8352 3.76379C11.8353 3.7637 11.8353 3.76357 11.8353 3.76342C11.8353 3.7631 11.8353 3.76266 11.8354 3.7621C11.8354 3.76097 11.8356 3.75934 11.8357 3.75723C11.836 3.75302 11.8364 3.74688 11.8369 3.73896C11.838 3.72313 11.8395 3.70014 11.8414 3.67107C11.8451 3.61297 11.8503 3.53045 11.8561 3.4322C11.8675 3.2363 11.8814 2.9751 11.8907 2.71895C11.8998 2.46878 11.9055 2.20202 11.8974 2.00447C11.8942 1.92517 11.887 1.78348 11.8529 1.65636C11.8431 1.61986 11.8235 1.55461 11.7855 1.48163C11.7559 1.42475 11.6635 1.26033 11.4601 1.15332C11.1934 1.01296 10.9146 1.05844 10.7244 1.16834C10.5764 1.25389 10.4955 1.36696 10.4662 1.41022L11.7078 2.25187C11.6875 2.2818 11.6151 2.38604 11.4751 2.46701C11.2929 2.57233 11.0214 2.61746 10.7616 2.48073C10.5651 2.37733 10.4791 2.22051 10.4553 2.17493C10.4232 2.11324 10.409 2.06299 10.4041 2.04492C10.3898 1.99151 10.3951 1.97846 10.3986 2.06553C10.4042 2.20072 10.4007 2.41761 10.3917 2.66443C10.383 2.90526 10.3698 3.15438 10.3586 3.34456C10.3531 3.43934 10.3481 3.5188 10.3445 3.57441C10.3427 3.6022 10.3413 3.624 10.3403 3.63874C10.3398 3.64611 10.3394 3.65171 10.3392 3.65541C10.339 3.65726 10.3389 3.65864 10.3389 3.65952C10.3388 3.65996 10.3388 3.66028 10.3388 3.66047C10.3388 3.66057 10.3388 3.66063 10.3388 3.66067C10.3388 3.66068 10.3388 3.66068 10.3388 3.66069C10.3388 3.66069 10.3388 3.66067 11.087 3.71233ZM4.58167 1.49104C4.5633 1.45491 4.52528 1.385 4.46135 1.31269C4.41086 1.25559 4.24658 1.08454 3.96382 1.05562C3.62649 1.02113 3.40011 1.20842 3.30207 1.32558C3.21353 1.43139 3.17454 1.5363 3.16 1.5782C3.10783 1.72853 3.10125 1.89856 3.09838 1.96245C3.08957 2.15862 3.09572 2.43086 3.10544 2.68572C3.11544 2.94778 3.13035 3.21772 3.14265 3.42076C3.14882 3.52261 3.15437 3.60835 3.1584 3.66878C3.16041 3.69901 3.16204 3.72294 3.16318 3.73942C3.16374 3.74766 3.16419 3.75405 3.16449 3.75843C3.16465 3.76062 3.16477 3.76231 3.16485 3.76348C3.16489 3.76407 3.16492 3.76453 3.16495 3.76485C3.16496 3.76501 3.16497 3.76514 3.16497 3.76524C3.16498 3.76529 3.16498 3.76533 3.16498 3.76536C3.16499 3.7654 3.16499 3.76543 3.91311 3.71233C4.66122 3.65922 4.66122 3.65924 4.66122 3.65924C4.66122 3.65923 4.66122 3.65923 4.66122 3.65921C4.66122 3.65918 4.66121 3.65911 4.66121 3.65901C4.66119 3.6588 4.66117 3.65847 4.66114 3.658C4.66107 3.65707 4.66097 3.65563 4.66083 3.6537C4.66056 3.64982 4.66015 3.64396 4.65962 3.63626C4.65856 3.62086 4.65701 3.59811 4.65508 3.56914C4.65122 3.51118 4.64586 3.42847 4.63991 3.33008C4.62795 3.13265 4.61376 2.87499 4.60435 2.62853C4.59468 2.37488 4.59112 2.15769 4.59687 2.02972C4.60128 1.93153 4.60804 1.98081 4.57709 2.07C4.56785 2.09661 4.53466 2.18996 4.45243 2.28822C4.36071 2.39783 4.14117 2.58158 3.81123 2.54784C3.53586 2.51968 3.37952 2.35368 3.33755 2.30621C3.28214 2.24353 3.2532 2.18784 3.24454 2.1708L4.58167 1.49104ZM3.16337 3.73214L3.25027 7.01982L4.74974 6.98018L4.66284 3.69251L3.16337 3.73214ZM3.37597 7.41603C3.90618 8.21134 4.63044 9.06727 5.20784 9.71148C5.49924 10.0366 5.75861 10.3137 5.9454 10.5099C6.03887 10.608 6.11435 10.686 6.1668 10.7399C6.19303 10.7668 6.21352 10.7878 6.22764 10.8021C6.23469 10.8093 6.24016 10.8148 6.24395 10.8187C6.24585 10.8206 6.24733 10.8221 6.24838 10.8231C6.24891 10.8237 6.24933 10.8241 6.24964 10.8244C6.2498 10.8246 6.24993 10.8247 6.25003 10.8248C6.25008 10.8249 6.25013 10.8249 6.25016 10.8249C6.25021 10.825 6.25025 10.825 6.78267 10.2968C7.31509 9.76857 7.31512 9.76859 7.31514 9.76862C7.31514 9.76861 7.31515 9.76863 7.31515 9.76863C7.31514 9.76862 7.31511 9.76859 7.31505 9.76852C7.31493 9.7684 7.3147 9.76817 7.31436 9.76783C7.3137 9.76716 7.3126 9.76605 7.3111 9.76453C7.30809 9.76148 7.30342 9.75675 7.29718 9.7504C7.28469 9.7377 7.2659 9.71854 7.24144 9.69341C7.19249 9.64316 7.12089 9.56912 7.03161 9.47537C6.8529 9.28772 6.6041 9.0219 6.32484 8.71032C5.7609 8.08113 5.09383 7.28866 4.62404 6.58397L3.37597 7.41603ZM6.05579 10.112L5.09927 13.8746L6.55303 14.2441L7.50955 10.4816L6.05579 10.112ZM5.82615 13.3094H4.39137V14.8094H5.82615V13.3094ZM10.4662 1.41022C10.4213 1.4764 10.2518 1.73368 9.85714 1.98119C9.46368 2.22794 8.80251 2.49206 7.73923 2.49201L7.73915 3.99201C9.06718 3.99208 10.0076 3.65739 10.6541 3.25196C11.2994 2.84729 11.6081 2.39902 11.7078 2.25187L10.4662 1.41022ZM7.73923 2.49201C6.66178 2.49195 5.85721 2.24339 5.31921 1.9782C5.04869 1.84484 4.84796 1.70846 4.71509 1.59974C4.55776 1.47101 4.54808 1.42496 4.58167 1.49104L3.24454 2.1708C3.35574 2.38953 3.56421 2.59619 3.76518 2.76063C3.99061 2.94509 4.28834 3.14238 4.65601 3.32362C5.39443 3.68761 6.4253 3.99193 7.73915 3.99201L7.73923 2.49201ZM4.28052 2.48476C5.24195 1.94449 7.97302 1.13566 10.7561 2.50409L11.418 1.15801C8.07927 -0.483612 4.81614 0.463161 3.54569 1.17708L4.28052 2.48476ZM3.91311 2.96233H1.5V4.46233H3.91311V2.96233ZM0.752762 3.64808C0.697586 4.28982 0.771097 5.2661 1.21539 6.11493C1.6882 7.01821 2.57669 7.75 4 7.75V6.25C3.19718 6.25 2.78857 5.8859 2.54435 5.41932C2.27162 4.89828 2.2082 4.23072 2.24725 3.77657L0.752762 3.64808ZM11.087 4.46233H13.5V2.96233H11.087V4.46233ZM12.75 3.71233C12.75 4.17477 12.6399 4.86314 12.3421 5.40695C12.0629 5.91704 11.6586 6.25 11 6.25V7.75C12.3414 7.75 13.1871 6.98707 13.6579 6.1273C14.1101 5.30124 14.25 4.34578 14.25 3.71232L12.75 3.71233Z" fill="#BBB2CE"/>
</svg>
