<svg width="615" height="589" viewBox="0 0 615 589" fill="none" xmlns="http://www.w3.org/2000/svg">
<path d="M599 273.3L564.3 258.73C565.71 259.32 567.15 259.84 568.62 260.3L603.28 274.87C601.81 274.41 600.37 273.87 598.96 273.3" fill="#4F3282"/>
<path d="M603.28 274.87L568.62 260.3C570.658 260.928 572.736 261.42 574.84 261.77L609.51 276.34C607.403 275.99 605.322 275.498 603.28 274.87Z" fill="#513486"/>
<path d="M609.51 276.34L574.84 261.77C576.26 262.01 577.7 262.19 579.16 262.3L613.83 276.87C612.37 276.76 610.93 276.58 609.51 276.34Z" fill="#54358A"/>
<path d="M37.84 588.71L3.17 574.14L2.44 495.31L37.11 509.88L37.84 588.71Z" fill="#290B5A"/>
<path d="M37.11 509.88L2.44 495.31C3.22 494.62 3.98 493.92 4.75 493.2L39.41 507.77C38.65 508.49 37.88 509.19 37.11 509.88Z" fill="#5E3C9B"/>
<path d="M52 494.1L17.34 479.53C19.99 476.23 22.52 472.76 24.93 469.17L59.59 483.74C57.1967 487.34 54.6667 490.793 52 494.1Z" fill="#593992"/>
<path d="M85.73 410.31C85.73 409.85 85.8 409.4 85.84 408.94C85.84 408.15 85.95 407.37 85.99 406.59C85.99 406.12 86.04 405.65 86.06 405.19C86.06 404.89 86.06 404.6 86.06 404.3C86.06 403.77 86.06 403.23 86.06 402.7V401.57C86.06 400.36 86.06 399.16 86.06 397.96C85.74 363.56 71.46 338.96 50.12 329.96L15.6 315.41C36.94 324.41 51.22 348.99 51.54 383.41C51.54 384.61 51.54 385.81 51.54 387.02V388.15C51.54 388.98 51.49 389.8 51.45 390.63C51.45 391.1 51.45 391.57 51.37 392.04C51.33 392.82 51.28 393.6 51.22 394.38C51.22 394.84 51.15 395.3 51.11 395.76C51.0366 396.6 50.9566 397.44 50.87 398.28C50.87 398.67 50.8 399.06 50.75 399.45C50.62 400.68 50.47 401.91 50.3 403.13C50.07 404.77 49.81 406.4 49.52 408.03C49.44 408.49 49.36 408.95 49.27 409.41C49.04 410.7 48.79 411.99 48.52 413.27C48.43 413.66 48.36 414.05 48.27 414.44C47.95 415.94 47.6 417.44 47.27 418.92C47.27 419.1 47.17 419.28 47.13 419.45C46.79 420.77 46.44 422.08 46.07 423.39C45.93 423.89 45.79 424.39 45.64 424.88C45.36 425.83 45.08 426.77 44.79 427.71L44.28 429.3C43.98 430.24 43.66 431.18 43.34 432.11L42.83 433.59C42.46 434.64 42.07 435.68 41.67 436.73C41.54 437.07 41.42 437.42 41.29 437.73C40.75 439.11 40.2 440.48 39.64 441.84C39.5 442.15 39.36 442.46 39.23 442.78C38.78 443.84 38.32 444.9 37.84 445.96C37.63 446.43 37.41 446.9 37.19 447.37C36.78 448.27 36.36 449.16 35.93 450.05L35.22 451.49C34.72 452.49 34.22 453.49 33.68 454.49C33.48 454.87 33.29 455.26 33.08 455.64C32.36 456.99 31.62 458.34 30.87 459.64C30.77 459.81 30.66 459.98 30.56 460.16C29.83 461.42 29.09 462.67 28.33 463.91C28.08 464.31 27.84 464.71 27.59 465.1C26.87 466.26 26.13 467.41 25.38 468.55C22.7133 472.61 19.8633 476.493 16.83 480.2C16.18 481 15.52 481.79 14.83 482.58L13.83 483.73C13.19 484.46 12.55 485.19 11.9 485.9C11.58 486.26 11.25 486.62 10.9 486.97C10.13 487.8 9.35998 488.61 8.56998 489.41C8.36998 489.62 8.16998 489.84 7.95998 490.05C6.95998 491.05 5.95998 492.05 4.95998 492.97C4.13998 493.75 3.30998 494.51 2.47998 495.25L37.15 509.82C37.92 509.13 38.68 508.42 39.45 507.71L39.62 507.55C40.62 506.55 41.62 505.62 42.62 504.62L43.23 503.99C44.01 503.18 44.79 502.37 45.56 501.54C45.89 501.19 46.21 500.83 46.56 500.47C47.21 499.76 47.85 499.03 48.49 498.3L49.49 497.15C50.16 496.37 50.81 495.57 51.49 494.77L52.09 494.04C54.74 490.73 57.28 487.27 59.68 483.68C59.81 483.5 59.92 483.3 60.05 483.12C60.8 481.98 61.53 480.84 62.26 479.68C62.5 479.28 62.75 478.88 63 478.48C63.75 477.24 64.5 475.99 65.23 474.73L65.47 474.31L65.53 474.21C66.29 472.88 67.03 471.53 67.75 470.21L68.35 469.06C68.87 468.06 69.35 467.06 69.89 466.06L70.23 465.38C70.36 465.13 70.47 464.87 70.59 464.62C71.02 463.73 71.44 462.84 71.86 461.94C72.08 461.47 72.3 461 72.51 460.53C72.98 459.47 73.45 458.41 73.9 457.35C74.01 457.08 74.13 456.83 74.24 456.57L74.3 456.41C74.8733 455.077 75.4233 453.707 75.95 452.3C76.09 451.96 76.21 451.61 76.34 451.3C76.74 450.3 77.12 449.22 77.5 448.17C77.5 448.01 77.62 447.85 77.67 447.69C77.79 447.36 77.89 447.02 78.01 446.69C78.33 445.75 78.65 444.82 78.95 443.88C79.12 443.35 79.29 442.82 79.45 442.29C79.75 441.35 80.03 440.41 80.31 439.47C80.4 439.13 80.51 438.8 80.61 438.47C80.61 438.31 80.7 438.14 80.74 437.98C81.1066 436.647 81.44 435.337 81.74 434.05L81.89 433.51C82.26 432.02 82.6 430.51 82.89 429.03L82.98 428.66L83.13 427.86C83.4 426.58 83.66 425.29 83.89 424C83.98 423.54 84.06 423.08 84.14 422.62C84.42 420.99 84.69 419.36 84.91 417.72C85.08 416.49 85.23 415.27 85.37 414.04L85.49 412.87C85.5833 412.003 85.6633 411.15 85.73 410.31Z" fill="url(#paint0_linear)"/>
<path d="M611.39 14.57L612.12 93.4C583.05 119.29 562.63 163.4 563.02 205.32C563.41 247.24 584.49 274.57 613.83 276.87L614.56 355.7L286.74 488.15L37.84 588.71L37.11 509.88C66.18 484 86.6 439.84 86.21 398C85.82 356.16 64.73 328.71 35.4 326.41L34.67 247.58L283.22 147.16L611.39 14.57Z" fill="#6A44AF"/>
<path d="M611.39 14.57L612.12 93.4C583.05 119.29 562.63 163.4 563.02 205.32C563.41 247.24 584.49 274.57 613.83 276.87L614.56 355.7L286.74 488.15L37.84 588.71L37.11 509.88C66.18 484 86.6 439.84 86.21 398C85.82 356.16 64.73 328.71 35.4 326.41L34.67 247.58L283.22 147.16L611.39 14.57Z" fill="#9061E3"/>
<path d="M570.893 54.64L571.52 122.467C546.555 144.743 529.018 182.696 529.353 218.765C529.688 254.833 547.791 278.349 572.988 280.327L573.615 348.154L292.089 462.116L78.3373 548.64L77.7104 480.813C102.675 458.546 120.212 420.55 119.877 384.55C119.542 348.55 101.43 324.932 76.2419 322.953L75.615 255.126L289.066 168.723L570.893 54.64Z" fill="url(#paint1_linear)" fill-opacity="0.5"/>
<path d="M323.84 258.84C318.96 260.84 315.06 267.48 315.12 273.75L315.36 299.83C315.42 306.09 319.42 309.57 324.29 307.6C329.16 305.63 333.06 298.96 333 292.7L332.76 266.62C332.7 260.36 328.71 256.88 323.84 258.84ZM289.62 391L288.69 291.23L288.63 284.43C288.4 259.38 304 232.69 323.48 224.82C342.96 216.95 358.94 230.88 359.17 255.92L359.42 282C359.65 307.05 344.05 333.74 324.57 341.61C321.739 342.777 318.743 343.496 315.69 343.74V346.82C315.86 365.15 304.39 384.72 289.99 390.82L289.55 391H289.62ZM323.2 192.19C275.76 211.35 237.75 275.52 238.31 335.51C238.87 395.5 277.78 428.59 325.22 409.42C372.66 390.25 410.65 326.1 410.09 266.11C409.53 206.12 370.63 173 323.2 192.19Z" fill="#54358A"/>
<path d="M324.29 307.6C319.42 309.6 315.42 306.09 315.36 299.83L315.12 273.75C315.06 267.48 318.96 260.81 323.84 258.84C328.72 256.87 332.7 260.36 332.76 266.62L333 292.7C333.06 298.96 329.16 305.63 324.29 307.6ZM323.52 224.83C304.04 232.7 288.44 259.39 288.67 284.44L288.73 291.24L289.66 391.01L290.1 390.83C304.5 384.71 315.97 365.14 315.8 346.83V343.75C318.853 343.506 321.849 342.787 324.68 341.62C344.16 333.75 359.76 307.06 359.53 282.01L359.28 255.93C359.05 230.93 343.07 216.93 323.59 224.83" fill="white"/>
<path d="M35.4 326.41L0.73 311.84L0 233.01L34.67 247.58L35.4 326.41Z" fill="#290B5A"/>
<path d="M576.72 0L248.56 132.59L0 233.01L34.67 247.58L283.23 147.16L611.39 14.57L576.72 0Z" fill="url(#paint2_linear)"/>
<defs>
<linearGradient id="paint0_linear" x1="44.3302" y1="548.261" x2="44.3302" y2="274.771" gradientUnits="userSpaceOnUse">
<stop stop-color="#7F51D1"/>
<stop offset="0.11" stop-color="#6B41B6"/>
<stop offset="0.28" stop-color="#542E95"/>
<stop offset="0.45" stop-color="#411E7B"/>
<stop offset="0.62" stop-color="#341469"/>
<stop offset="0.8" stop-color="#2C0D5E"/>
<stop offset="1" stop-color="#290B5A"/>
</linearGradient>
<linearGradient id="paint1_linear" x1="324.615" y1="54.64" x2="324.615" y2="548.64" gradientUnits="userSpaceOnUse">
<stop stop-color="#7E46F2"/>
<stop offset="1" stop-color="#46279A"/>
</linearGradient>
<linearGradient id="paint2_linear" x1="0" y1="123.79" x2="611.39" y2="123.79" gradientUnits="userSpaceOnUse">
<stop stop-color="#7F51D1"/>
<stop offset="0.33" stop-color="#5A339E"/>
<stop offset="0.62" stop-color="#401D79"/>
<stop offset="0.85" stop-color="#2F1062"/>
<stop offset="1" stop-color="#290B5A"/>
</linearGradient>
</defs>
</svg>
