<svg width="16" height="15" viewBox="0 0 16 15" fill="none" xmlns="http://www.w3.org/2000/svg">
<path fill-rule="evenodd" clip-rule="evenodd" d="M13.5579 7.40831C13.5579 7.66019 13.5357 7.89726 13.506 8.13432L15.0692 9.3567C15.2099 9.46782 15.247 9.66784 15.1581 9.83083L13.6764 12.3941C13.5875 12.5571 13.3949 12.6238 13.2245 12.5571L11.3798 11.8163C10.9946 12.1052 10.5797 12.3571 10.1278 12.5423L9.84631 14.5055C9.82409 14.6833 9.66851 14.8166 9.48331 14.8166H6.51998C6.33477 14.8166 6.1792 14.6833 6.15698 14.5055L5.87546 12.5423C5.42355 12.3571 5.00869 12.1126 4.62345 11.8163L2.77879 12.5571C2.6158 12.6164 2.41578 12.5571 2.32688 12.3941L0.845217 9.83083C0.756317 9.66784 0.793359 9.46782 0.934116 9.3567L2.49727 8.13432C2.46764 7.89726 2.44541 7.65278 2.44541 7.40831C2.44541 7.16384 2.46764 6.91936 2.49727 6.6823L0.934116 5.45992C0.793359 5.3488 0.748909 5.14878 0.845217 4.98579L2.32688 2.42252C2.41578 2.25953 2.60839 2.19286 2.77879 2.25953L4.62345 3.00037C5.00869 2.71144 5.42355 2.45956 5.87546 2.27435L6.15698 0.311149C6.1792 0.13335 6.33477 0 6.51998 0H9.48331C9.66851 0 9.82409 0.13335 9.84631 0.311149L10.1278 2.27435C10.5797 2.45956 10.9946 2.70403 11.3798 3.00037L13.2245 2.25953C13.3875 2.20027 13.5875 2.25953 13.6764 2.42252L15.1581 4.98579C15.247 5.14878 15.2099 5.3488 15.0692 5.45992L13.506 6.6823C13.5357 6.91936 13.5579 7.15643 13.5579 7.40831ZM5.40874 7.40831C5.40874 8.83811 6.57185 10.0012 8.00165 10.0012C9.43145 10.0012 10.5946 8.83811 10.5946 7.40831C10.5946 5.97851 9.43145 4.8154 8.00165 4.8154C6.57185 4.8154 5.40874 5.97851 5.40874 7.40831Z" fill="black" fill-opacity="0.54"/>
</svg>
