<svg xmlns="http://www.w3.org/2000/svg" width="64" height="100" viewBox="0 0 64 100">
  <g fill="#987EE3">
    <path d="M0.842,48.52 C0.847,48.722 0.89,48.914 0.971,49.099 C0.997,49.161 1.017,49.221 1.053,49.278 C1.178,49.487 1.337,49.678 1.561,49.814 C1.564,49.816 1.57,49.816 1.573,49.818 C1.577,49.82 1.578,49.825 1.582,49.827 L31.338,67.262 C31.361,67.276 31.388,67.269 31.413,67.283 C31.627,67.393 31.863,67.475 32.124,67.475 C32.385,67.475 32.621,67.393 32.837,67.279 C32.864,67.268 32.895,67.272 32.921,67.258 L62.148,49.82 C62.377,49.684 62.537,49.489 62.667,49.276 C62.702,49.217 62.724,49.162 62.749,49.099 C62.831,48.913 62.874,48.722 62.881,48.52 C62.881,48.477 62.909,48.442 62.906734,48.401 C62.906734,48.382 62.891,48.369 62.887,48.35 C62.869,48.121 62.812,47.897 62.687,47.687 L33.459,0.758 C33.448,0.738 33.429,0.73 33.416,0.711 C33.381,0.655 33.338,0.611 33.295,0.561 C33.241,0.498 33.186,0.442 33.123,0.386 C33.075,0.347 33.032,0.304 32.981,0.272 C32.961,0.258 32.951,0.238 32.931,0.226 C32.897,0.205 32.86,0.205 32.826,0.188 C32.758,0.152 32.69,0.126 32.615,0.1 C32.553,0.078 32.491,0.056 32.424,0.043 C32.358,0.028 32.294,0.025 32.228,0.022 C32.192,0.018 32.16,0 32.124,0 C32.088,0 32.06,0.018 32.024,0.02 C31.96,0.026 31.9,0.027 31.838,0.04 C31.767,0.053 31.702,0.076 31.632,0.099 C31.559,0.124 31.491,0.151 31.423,0.187 C31.392,0.204 31.357,0.204 31.326,0.221 C31.308,0.232 31.297,0.251 31.28,0.262 C31.225,0.298 31.178,0.342 31.126,0.387 C31.064,0.441 31.008,0.494 30.954,0.557 C30.915,0.605 30.872,0.648 30.84,0.699 C30.825,0.719 30.806,0.729 30.793,0.749 L1.038,47.679 C0.909,47.889 0.852,48.118 0.832,48.351 C0.83,48.371 0.816,48.384 0.813899775,48.405 C0.813,48.443 0.84,48.479 0.842,48.52 Z"/>
    <path d="M62.773,57.836 C62.28,57.296 61.468,57.189 60.838,57.55 L32.124,74.503 L3.421,57.55 C2.794,57.185 1.982,57.296 1.483,57.836 C0.986,58.38 0.934,59.19 1.359,59.791 L30.854,99.346 C30.877,99.378 30.915,99.388 30.938,99.417 C30.999,99.491 31.06,99.556 31.131,99.617 C31.165,99.645 31.185,99.688 31.222,99.713 C31.251,99.734 31.288,99.725 31.319,99.745 C31.369,99.774 31.412,99.816 31.467,99.843 C31.665,99.939 31.884,100 32.118,100 C32.126,100 32.126,100 32.128,100 C32.362,100 32.58,99.938 32.779,99.843 C32.834,99.817 32.877,99.775 32.927,99.745 C32.957,99.724 32.994,99.734 33.024,99.713 C33.061,99.689 33.081,99.646 33.115,99.617 C33.186,99.555 33.248,99.491 33.307,99.417 C33.33,99.388 33.369,99.378 33.391,99.346 L62.897,59.791 C63.324,59.19 63.271,58.38 62.773,57.836 Z"/>
  </g>
</svg>
