<svg width="18" height="13" viewBox="0 0 18 13" fill="none" xmlns="http://www.w3.org/2000/svg">
<mask id="path-1-inside-1" fill="white">
<path d="M14.0731 5.25432C13.8075 5.25436 13.548 5.33313 13.3272 5.48069C13.1064 5.62825 12.9344 5.83795 12.8328 6.08329C12.7312 6.32863 12.7047 6.59859 12.7565 6.85902C12.8084 7.11945 12.9363 7.35865 13.1241 7.54639C13.3118 7.73413 13.5511 7.86196 13.8115 7.91373C14.072 7.9655 14.3419 7.93887 14.5872 7.83722C14.8325 7.73557 15.0422 7.56345 15.1897 7.34264C15.3372 7.12183 15.4159 6.86225 15.4159 6.59671C15.4155 6.24073 15.2739 5.89945 15.0221 5.64777C14.7704 5.39609 14.4291 5.25459 14.0731 5.25432ZM14.0731 7.15556C13.9626 7.15553 13.8546 7.12273 13.7628 7.06133C13.6709 6.99993 13.5994 6.91268 13.5571 6.81061C13.5148 6.70853 13.5038 6.59622 13.5253 6.48787C13.5469 6.37951 13.6001 6.27999 13.6782 6.20187C13.7564 6.12375 13.8559 6.07054 13.9642 6.04898C14.0726 6.02742 14.1849 6.03847 14.287 6.08073C14.389 6.12299 14.4763 6.19456 14.5377 6.2864C14.5991 6.37825 14.6319 6.48623 14.6319 6.59671C14.6318 6.74488 14.5729 6.88694 14.4681 6.99171C14.3633 7.09648 14.2213 7.15541 14.0731 7.15556Z"/>
</mask>
<path d="M14.0731 5.25432C13.8075 5.25436 13.548 5.33313 13.3272 5.48069C13.1064 5.62825 12.9344 5.83795 12.8328 6.08329C12.7312 6.32863 12.7047 6.59859 12.7565 6.85902C12.8084 7.11945 12.9363 7.35865 13.1241 7.54639C13.3118 7.73413 13.5511 7.86196 13.8115 7.91373C14.072 7.9655 14.3419 7.93887 14.5872 7.83722C14.8325 7.73557 15.0422 7.56345 15.1897 7.34264C15.3372 7.12183 15.4159 6.86225 15.4159 6.59671C15.4155 6.24073 15.2739 5.89945 15.0221 5.64777C14.7704 5.39609 14.4291 5.25459 14.0731 5.25432ZM14.0731 7.15556C13.9626 7.15553 13.8546 7.12273 13.7628 7.06133C13.6709 6.99993 13.5994 6.91268 13.5571 6.81061C13.5148 6.70853 13.5038 6.59622 13.5253 6.48787C13.5469 6.37951 13.6001 6.27999 13.6782 6.20187C13.7564 6.12375 13.8559 6.07054 13.9642 6.04898C14.0726 6.02742 14.1849 6.03847 14.287 6.08073C14.389 6.12299 14.4763 6.19456 14.5377 6.2864C14.5991 6.37825 14.6319 6.48623 14.6319 6.59671C14.6318 6.74488 14.5729 6.88694 14.4681 6.99171C14.3633 7.09648 14.2213 7.15541 14.0731 7.15556Z" fill="#35F0D0"/>
<path d="M14.0731 5.25432L14.0738 4.25432L14.0729 4.25432L14.0731 5.25432ZM15.4159 6.59671L16.4159 6.59656L16.4159 6.59566L15.4159 6.59671ZM14.6319 6.59671L15.6319 6.59773L15.6319 6.59637L14.6319 6.59671ZM14.0729 4.25432C13.6096 4.25438 13.1567 4.39184 12.7715 4.6493L13.8829 6.31208C13.9392 6.27443 14.0055 6.25433 14.0732 6.25432L14.0729 4.25432ZM12.7715 4.6493C12.3863 4.90676 12.0861 5.27267 11.9089 5.70074L13.7567 6.46585C13.7827 6.40324 13.8266 6.34973 13.8829 6.31208L12.7715 4.6493ZM11.9089 5.70074C11.7316 6.12882 11.6853 6.59984 11.7758 7.05425L13.7373 6.66379C13.724 6.59734 13.7308 6.52845 13.7567 6.46585L11.9089 5.70074ZM11.7758 7.05425C11.8662 7.50865 12.0894 7.92603 12.417 8.2536L13.8311 6.83918C13.7831 6.79128 13.7505 6.73024 13.7373 6.66379L11.7758 7.05425ZM12.417 8.2536C12.7447 8.58117 13.1622 8.80422 13.6166 8.89454L14.0065 6.93292C13.94 6.91971 13.879 6.88709 13.8311 6.83918L12.417 8.2536ZM13.6166 8.89454C14.071 8.98487 14.542 8.93841 14.9701 8.76104L14.2044 6.91339C14.1418 6.93933 14.0729 6.94613 14.0065 6.93292L13.6166 8.89454ZM14.9701 8.76104C15.3981 8.58368 15.7639 8.28337 16.0212 7.89809L14.3581 6.78719C14.3205 6.84354 14.267 6.88746 14.2044 6.91339L14.9701 8.76104ZM16.0212 7.89809C16.2786 7.51282 16.4159 7.05988 16.4159 6.59656L14.4159 6.59685C14.4159 6.66461 14.3958 6.73085 14.3581 6.78719L16.0212 7.89809ZM16.4159 6.59566C16.4152 5.97478 16.1682 5.37953 15.7291 4.94056L14.3151 6.35498C14.3795 6.41937 14.4158 6.50668 14.4159 6.59776L16.4159 6.59566ZM15.7291 4.94056C15.29 4.5016 14.6947 4.25479 14.0738 4.25432L14.0723 6.25432C14.1634 6.25439 14.2507 6.29059 14.3151 6.35498L15.7291 4.94056ZM14.0734 6.15556C14.1607 6.15559 14.246 6.1815 14.3186 6.23L13.207 7.89266C13.4632 8.06397 13.7645 8.15546 14.0727 8.15556L14.0734 6.15556ZM14.3186 6.23C14.3911 6.27851 14.4477 6.34744 14.481 6.42808L12.6332 7.19313C12.7511 7.47792 12.9508 7.72135 13.207 7.89266L14.3186 6.23ZM14.481 6.42808C14.5144 6.50871 14.5232 6.59743 14.5061 6.68304L12.5446 6.2927C12.4844 6.59501 12.5153 6.90836 12.6332 7.19313L14.481 6.42808ZM14.5061 6.68304C14.4891 6.76864 14.4471 6.84726 14.3853 6.90897L12.9711 5.49476C12.7532 5.71271 12.6047 5.99039 12.5446 6.2927L14.5061 6.68304ZM14.3853 6.90897C14.3236 6.97068 14.245 7.01272 14.1594 7.02975L13.7691 5.06821C13.4668 5.12837 13.1891 5.27681 12.9711 5.49476L14.3853 6.90897ZM14.1594 7.02975C14.0738 7.04678 13.9851 7.03806 13.9044 7.00467L14.6695 5.15678C14.3847 5.03888 14.0714 5.00805 13.7691 5.06821L14.1594 7.02975ZM13.9044 7.00467C13.8238 6.97129 13.7549 6.91474 13.7064 6.84219L15.369 5.73062C15.1977 5.47438 14.9543 5.27469 14.6695 5.15678L13.9044 7.00467ZM13.7064 6.84219C13.6579 6.76964 13.632 6.68433 13.6319 6.59705L15.6319 6.59637C15.6318 6.28813 15.5403 5.98685 15.369 5.73062L13.7064 6.84219ZM13.6319 6.59569C13.6321 6.47899 13.6785 6.36712 13.761 6.28461L15.1752 7.69881C15.4672 7.40676 15.6315 7.01077 15.6319 6.59773L13.6319 6.59569ZM13.761 6.28461C13.8435 6.20209 13.9554 6.15568 14.0721 6.15556L14.0741 8.15556C14.4871 8.15514 14.8831 7.99087 15.1752 7.69881L13.761 6.28461Z" fill="#35F0D0" mask="url(#path-1-inside-1)"/>
<path d="M17 3.49246C16.9991 3.43321 16.9845 3.37496 16.9574 3.32227C16.8766 2.8552 16.6774 2.41665 16.3787 2.04855C16.0801 1.68044 15.692 1.39507 15.2517 1.21971L14.6362 1.02317C14.6362 1.02317 14.1708 1.02317 12.0814 1.02329L10.8063 1.02318H8.87962C8.81183 0.970676 7.54336 1.02388 7.45762 1.02318H5.72098H4.08301H3.76631C3.03289 1.02401 2.32975 1.31573 1.81115 1.83434C1.29254 2.35294 1.00083 3.05608 1 3.7895V9.40442C1.00083 10.1378 1.29254 10.841 1.81115 11.3596C2.32975 11.8782 3.0329 12.1699 3.76632 12.1707H14.2337C14.9671 12.1699 15.6702 11.8782 16.1889 11.3596C16.7075 10.841 16.9992 10.1378 17 9.40442V3.7895C17 3.70938 16.9947 3.63053 16.988 3.55211C16.9936 3.53259 16.9976 3.51264 17 3.49246ZM3.76632 1.80711H14.2337C14.6374 1.80819 15.0312 1.93265 15.3622 2.16383C15.6931 2.395 15.9456 2.72183 16.0856 3.1005H1.91445C2.05445 2.72183 2.30687 2.395 2.63785 2.16383C2.96884 1.93265 3.36259 1.80819 3.76632 1.80711ZM14.2337 11.3868H3.76632C3.24072 11.3863 2.73682 11.1772 2.36517 10.8056C1.99352 10.4339 1.78448 9.93002 1.78392 9.40442V3.88443H16.2161V9.40442C16.2155 9.93002 16.0065 10.4339 15.6348 10.8056C15.2632 11.1772 14.7593 11.3863 14.2337 11.3868Z" fill="#35F0D0"/>
<path d="M10.8063 1.02318L12.0814 1.02329C14.1708 1.02317 14.6362 1.02317 14.6362 1.02317L15.2517 1.21971C15.692 1.39507 16.0801 1.68044 16.3787 2.04855C16.6774 2.41665 16.8766 2.8552 16.9574 3.32227C16.9845 3.37496 16.9991 3.43321 17 3.49246C16.9976 3.51264 16.9936 3.53259 16.988 3.55211C16.9947 3.63053 17 3.70938 17 3.7895V9.40442C16.9992 10.1378 16.7075 10.841 16.1889 11.3596C15.6702 11.8782 14.9671 12.1699 14.2337 12.1707H3.76632C3.0329 12.1699 2.32975 11.8782 1.81115 11.3596C1.29254 10.841 1.00083 10.1378 1 9.40442V3.7895C1.00083 3.05608 1.29254 2.35294 1.81115 1.83434C2.32975 1.31573 3.03289 1.02401 3.76631 1.02318H4.08301H5.72098H7.45762C7.54336 1.02388 8.81183 0.970676 8.87962 1.02318H10.8063ZM10.8063 1.02318H14.0151M9.52416 1.02318H5.39108M3.76632 1.80711H14.2337C14.6374 1.80819 15.0312 1.93265 15.3622 2.16383C15.6931 2.395 15.9456 2.72183 16.0856 3.1005H1.91445C2.05445 2.72183 2.30687 2.395 2.63785 2.16383C2.96884 1.93265 3.36259 1.80819 3.76632 1.80711ZM14.2337 11.3868H3.76632C3.24072 11.3863 2.73682 11.1772 2.36517 10.8056C1.99352 10.4339 1.78448 9.93002 1.78392 9.40442V3.88443H16.2161V9.40442C16.2155 9.93002 16.0065 10.4339 15.6348 10.8056C15.2632 11.1772 14.7593 11.3863 14.2337 11.3868Z" stroke="#35F0D0" stroke-width="0.3"/>
</svg>
