<svg width="268" height="268" viewBox="0 0 268 268" fill="none" xmlns="http://www.w3.org/2000/svg">
<g clip-path="url(#clip0)">
<circle cx="134" cy="134" r="134" fill="url(#paint0_linear)"/>
<path d="M140.033 36.6631C170.443 36.6631 195.096 61.7273 195.096 92.6455V124.835C195.096 155.754 170.443 180.818 140.033 180.818C135.256 180.818 130.621 180.199 126.202 179.037L126.203 182.837C126.203 205.455 108.081 223.833 85.5882 224.199L84.9053 224.204V101.043L84.9684 101.041L84.9701 92.6455C84.9701 61.7273 109.623 36.6631 140.033 36.6631ZM140.033 78.6499C132.43 78.6499 126.267 84.9159 126.267 92.6455V124.835C126.267 132.565 132.43 138.831 140.033 138.831C147.636 138.831 153.799 132.565 153.799 124.835V92.6455C153.799 84.9159 147.636 78.6499 140.033 78.6499Z" fill="white"/>
</g>
<defs>
<linearGradient id="paint0_linear" x1="134" y1="0" x2="134" y2="268" gradientUnits="userSpaceOnUse">
<stop stop-color="#7E46F2"/>
<stop offset="1" stop-color="#46279A"/>
</linearGradient>
<clipPath id="clip0">
<rect width="268" height="268" fill="white"/>
</clipPath>
</defs>
</svg>
