<svg width="318" height="318" viewBox="0 0 318 318" fill="none" xmlns="http://www.w3.org/2000/svg">
<g clip-path="url(#clip0)">
<circle cx="159" cy="159" r="159" fill="url(#paint0_linear)"/>
<path fill-rule="evenodd" clip-rule="evenodd" d="M105.352 71.4007C104.957 67.7654 106.876 67.3663 107.885 67.6211C107.885 67.6211 124.575 74.7105 157.903 75.2922C191.232 75.874 209.573 67.8696 209.573 67.8696C210.583 67.6197 212.501 68.0282 212.088 71.6615C211.675 75.2949 211.044 85.7927 210.78 90.5875L229.961 90.6343C232.317 90.5559 236.671 91.9127 235.243 97.9665C234.953 99.198 234.526 101.305 233.979 104.01L233.979 104.01C231.163 117.925 225.144 147.668 217.94 155.469C212.878 161.514 206.056 164.526 200.753 165.775C196.335 167.088 191.728 166.857 190.135 166.777L190.135 166.777L190.135 166.777L190.135 166.777C189.907 166.766 189.74 166.757 189.645 166.757C186.099 172.048 177.036 183.485 169.153 186.898C166.583 187.825 166.603 188.759 166.62 189.493L166.62 189.493L166.62 189.493C166.621 189.553 166.622 189.611 166.622 189.668C167.026 196.484 168.739 211.732 172.357 218.202C172.837 219.168 172.972 219.902 173.065 220.406C173.166 220.957 173.216 221.233 173.612 221.234L178.407 221.245C178.912 221.247 180.123 221.25 180.929 222.261C181.359 222.802 182.114 222.789 182.935 222.776C184.034 222.758 185.253 222.738 185.972 224.04C186.742 225.434 186.582 226.922 186.499 227.69C186.481 227.856 186.467 227.989 186.467 228.08L194.038 228.098C194.964 228.1 196.814 228.559 196.809 230.376L196.772 245.519C196.771 245.795 196.752 246.021 196.736 246.205C196.663 247.034 196.663 247.034 198.788 247.039L205.35 247.055C205.771 247.056 206.611 247.108 206.606 249.329L206.589 256.144C206.588 256.649 206.586 257.658 204.314 257.653L112.217 257.427C109.945 257.422 109.948 256.412 109.949 255.908L109.966 249.093C109.971 246.872 110.812 246.824 111.233 246.825L117.795 246.841C119.92 246.846 119.92 246.846 119.851 246.018C119.836 245.833 119.817 245.607 119.818 245.331L119.855 230.188C119.859 228.371 121.711 227.921 122.637 227.924L130.208 227.942C130.208 227.852 130.195 227.719 130.178 227.552C130.099 226.784 129.946 225.295 130.723 223.905C131.448 222.607 132.667 222.633 133.766 222.656C134.587 222.673 135.342 222.689 135.775 222.151C136.585 221.143 137.797 221.146 138.301 221.147L143.097 221.159C143.492 221.16 143.544 220.885 143.648 220.334C143.743 219.831 143.881 219.097 144.366 218.134C148.016 211.681 149.803 196.441 150.241 189.628C150.241 189.571 150.242 189.513 150.244 189.453L150.244 189.453C150.264 188.719 150.289 187.786 147.723 186.846C139.857 183.394 130.85 171.913 127.329 166.605C127.234 166.604 127.068 166.612 126.84 166.622L126.839 166.622C125.246 166.695 120.638 166.903 116.227 165.568C110.93 164.293 104.123 161.248 99.0899 155.178C91.9244 147.342 86.051 117.571 83.303 103.642C82.7689 100.934 82.3528 98.8251 82.0683 97.5922C80.6697 91.5315 85.0309 90.1961 87.3863 90.2859L106.568 90.3328C106.327 85.5369 105.747 75.0361 105.352 71.4007ZM92.5533 98.7238C89.6026 98.6723 90.3033 102.122 90.8364 104.747L90.8365 104.747L90.8365 104.748C90.9057 105.088 90.972 105.415 91.0271 105.718C91.5076 108.359 93.7397 119.245 99.612 136.758C105.484 154.272 116.835 155.546 121.777 153.995C118.394 146.681 111.256 123.271 109.818 115.173C108.379 107.074 106.59 98.9688 104.485 98.9321L92.5533 98.7238ZM226.307 105.789C226.886 103.174 227.647 99.7369 224.696 99.7369L212.762 99.7369C210.657 99.7369 208.726 107.809 207.147 115.882C205.567 123.954 198.021 147.236 194.512 154.489C199.425 156.127 210.797 155.051 216.974 137.642C223.151 120.234 225.573 109.389 226.099 106.756C226.16 106.454 226.232 106.129 226.307 105.789L226.307 105.789ZM175.68 132.931L158.474 143.759L141.344 132.812L158.424 157.717L158.424 157.722L158.426 157.719L158.428 157.722L158.428 157.717L175.68 132.931ZM158.644 96.2753L158.644 96.2572L158.638 96.2662L158.634 96.2579L158.633 96.2745L141.259 125.965L158.494 136.773L158.494 136.78L158.499 136.777L158.504 136.779L158.504 136.774L175.813 126.085L158.644 96.2753Z" fill="white"/>
<path d="M211.376 68.3975C211.334 73.2433 187.887 76.9672 159.006 76.7152C130.125 76.4632 106.045 72.3183 106.088 67.4725C106.13 62.6267 130.279 58.915 159.159 59.1671C188.04 59.4191 211.418 63.5517 211.376 68.3975Z" fill="white"/>
<path d="M196.217 85.6716C198.797 85.6716 199.258 85.6716 203.937 84.0339C203.357 87.1474 200.306 110.744 199.258 114.448C196.459 124.343 193.297 139.636 189.198 142.591C188.42 143.153 184.987 142.591 183.71 141.768C182.432 140.945 186.859 132.462 192.24 114.448C195.281 95.0296 194.345 86.6074 196.217 85.6716Z" fill="white"/>
</g>
<defs>
<linearGradient id="paint0_linear" x1="159" y1="0" x2="159" y2="318" gradientUnits="userSpaceOnUse">
<stop stop-color="#7E46F2"/>
<stop offset="1" stop-color="#46279A"/>
</linearGradient>
<clipPath id="clip0">
<rect width="318" height="318" fill="white"/>
</clipPath>
</defs>
</svg>
