<svg width="541" height="297" viewBox="0 0 541 297" fill="none" xmlns="http://www.w3.org/2000/svg">
<circle cx="90.5" cy="6.5" r="6.5" fill="#35F0D0"/>
<circle cx="467" cy="98" r="5" fill="#35F0D0"/>
<circle cx="27" cy="278" r="5" fill="#35F0D0"/>
<circle cx="46" cy="161" r="5" fill="#35F0D0"/>
<circle cx="442" cy="293" r="4" fill="#35F0D0"/>
<circle cx="501" cy="249" r="4" fill="#35F0D0"/>
<circle cx="36" cy="37" r="4" fill="#35F0D0"/>
<path d="M471.06 27.8058L472.899 47.6393L454.803 39.3154L471.06 27.8058Z" fill="#715EE9"/>
<path d="M108.986 273.986L117.381 285.112L103.548 286.819L108.986 273.986Z" fill="#715EE9"/>
<path d="M408.207 8.31075L396.248 16.386L395.234 1.99134L408.207 8.31075Z" fill="#FF9C92"/>
<path d="M430.064 241.517L407.896 235.003L424.622 219.061L430.064 241.517Z" fill="#FF9C92"/>
<path d="M530.964 178.349L521.901 188.111L517.979 175.382L530.964 178.349Z" fill="#FF9C92"/>
<path d="M90.2395 98.4715L77.261 92.1633L89.2133 84.0777L90.2395 98.4715Z" fill="#FF9C92"/>
<path d="M113.7 144.861L137.186 168.701L104.796 177.12L113.7 144.861Z" fill="#715EE9"/>
<path d="M75.4579 221.682L79.311 237.646L63.5595 233.001L75.4579 221.682Z" fill="#F9F02B"/>
<path d="M27.9562 88.9361L13.5892 105.399L6.51516 84.7254L27.9562 88.9361Z" fill="#F9F02B"/>
<path d="M452 152L460.66 167H443.34L452 152Z" fill="#715EE9"/>
<path d="M512.577 44.25L535.443 62.2032L508.462 73.0286L512.577 44.25Z" fill="#F9F02C"/>
</svg>
