<svg width="307" height="52" viewBox="0 0 307 52" fill="none" xmlns="http://www.w3.org/2000/svg">
<path fill-rule="evenodd" clip-rule="evenodd" d="M243.613 51.5H296.5C302.023 51.5 306.5 47.0228 306.5 41.5V0H305.641H1.40097H0.500244V41.5C0.500244 47.0228 4.97739 51.5 10.5002 51.5H206.881C206.881 51.5 210.387 40 225 40C239.613 40 243.613 51.5 243.613 51.5ZM224.211 36.9815C224.211 36.4292 224.659 35.9815 225.211 35.9815C225.763 35.9815 226.211 36.4292 226.211 36.9815V37.4829C226.211 38.0352 225.763 38.4829 225.211 38.4829C224.659 38.4829 224.211 38.0352 224.211 37.4829V36.9815ZM224.211 28.9584C224.211 28.4061 224.659 27.9584 225.211 27.9584C225.763 27.9584 226.211 28.4061 226.211 28.9584V29.9613C226.211 30.5136 225.763 30.9613 225.211 30.9613C224.659 30.9613 224.211 30.5136 224.211 29.9613V28.9584ZM224.211 20.9353C224.211 20.3831 224.659 19.9353 225.211 19.9353C225.763 19.9353 226.211 20.3831 226.211 20.9353V21.9382C226.211 22.4905 225.763 22.9382 225.211 22.9382C224.659 22.9382 224.211 22.4905 224.211 21.9382V20.9353ZM226.211 12.9123V13.9151C226.211 14.4674 225.763 14.9151 225.211 14.9151C224.659 14.9151 224.211 14.4674 224.211 13.9151V12.9123C224.211 12.36 224.659 11.9123 225.211 11.9123C225.763 11.9123 226.211 12.36 226.211 12.9123ZM224.211 5.39062C224.211 4.83834 224.659 4.39062 225.211 4.39062C225.763 4.39062 226.211 4.83834 226.211 5.39062V5.89207C226.211 6.44435 225.763 6.89207 225.211 6.89207C224.659 6.89207 224.211 6.44435 224.211 5.89207V5.39062Z" fill="#F5B04E"/>
</svg>
