<svg width="406" height="66" viewBox="0 0 406 66" fill="none" xmlns="http://www.w3.org/2000/svg">
<path fill-rule="evenodd" clip-rule="evenodd" d="M315.991 66H391.991C399.723 66 405.991 59.732 405.991 52V0H0.998047V52C0.998047 59.732 7.26605 66 14.998 66H267.991C267.991 66 273.117 48.5 291.991 48.5C310.865 48.5 315.991 66 315.991 66ZM293.999 44.5227C293.999 43.4182 293.103 42.5227 291.999 42.5227C290.894 42.5227 289.999 43.4182 289.999 44.5227V45C289.999 46.1046 290.894 47 291.999 47C293.103 47 293.999 46.1046 293.999 45V44.5227ZM293.999 34.0227C293.999 32.9182 293.103 32.0227 291.999 32.0227C290.894 32.0227 289.999 32.9182 289.999 34.0227V34.9773C289.999 36.0818 290.894 36.9773 291.999 36.9773C293.103 36.9773 293.999 36.0818 293.999 34.9773V34.0227ZM293.999 23.5227C293.999 22.4182 293.103 21.5227 291.999 21.5227C290.894 21.5227 289.999 22.4182 289.999 23.5227V24.4773C289.999 25.5818 290.894 26.4773 291.999 26.4773C293.103 26.4773 293.999 25.5818 293.999 24.4773V23.5227ZM293.999 13.0227C293.999 11.9182 293.103 11.0227 291.999 11.0227C290.894 11.0227 289.999 11.9182 289.999 13.0227V13.9773C289.999 15.0818 290.894 15.9773 291.999 15.9773C293.103 15.9773 293.999 15.0818 293.999 13.9773V13.0227ZM293.999 3C293.999 1.89543 293.103 1 291.999 1C290.894 1 289.999 1.89543 289.999 3V3.47727C289.999 4.58184 290.894 5.47727 291.999 5.47727C293.103 5.47727 293.999 4.58184 293.999 3.47727V3Z" fill="#F5B04E"/>
</svg>
