<svg xmlns="http://www.w3.org/2000/svg" width="129" height="52" viewBox="0 0 129 52">
  <path d="M22.7508 6.58506C24.168 4.8124 25.1297 2.43224 24.8761 0 22.8014.10316 20.2697 1.36871 18.804 3.14276 17.4879 4.66196 16.3231 7.14178 16.6268 9.47206 18.9557 9.67407 21.2824 8.30798 22.7508 6.58506zM24.8496 9.92707C21.4675 9.72561 18.5919 11.8466 16.9768 11.8466 15.3608 11.8466 12.8875 10.0286 10.2124 10.0776 6.73063 10.1287 3.49995 12.0973 1.7331 15.2284-1.90101 21.492.77406 30.7831 4.30804 35.8844 6.02422 38.4082 8.09251 41.1871 10.8178 41.0873 13.3927 40.9863 14.402 39.42 17.532 39.42 20.6596 39.42 21.5688 41.0873 24.2945 41.0368 27.1211 40.9863 28.8883 38.5117 30.6045 35.9855 32.5732 33.1085 33.3792 30.3305 33.4299 30.178 33.3792 30.1275 27.9793 28.056 27.9292 21.8444 27.8782 16.6434 32.1687 14.1695 32.3707 14.0161 29.9478 10.4326 26.1621 10.0286 24.8496 9.92707zM62.2984 2.88831C69.6494 2.88831 74.7681 7.9554 74.7681 15.3327 74.7681 22.7363 69.544 27.8297 62.1141 27.8297L53.9752 27.8297 53.9752 40.7729 48.0948 40.7729 48.0948 2.88831 62.2984 2.88831 62.2984 2.88831zM53.9751 22.8938L60.7225 22.8938C65.8422 22.8938 68.7561 20.1374 68.7561 15.359 68.7561 10.5811 65.8422 7.85056 60.7488 7.85056L53.9751 7.85056 53.9751 22.8938 53.9751 22.8938zM76.3045 32.9232C76.3045 28.0921 80.0063 25.1256 86.5703 24.7579L94.1309 24.3118 94.1309 22.1854C94.1309 19.1135 92.0567 17.2758 88.5919 17.2758 85.3094 17.2758 83.2615 18.8507 82.7632 21.3189L77.4074 21.3189C77.7224 16.3303 81.9752 12.6548 88.8015 12.6548 95.4962 12.6548 99.7753 16.1992 99.7753 21.7387L99.7753 40.7729 94.3406 40.7729 94.3406 36.231 94.2099 36.231C92.6087 39.3028 89.1165 41.2454 85.4937 41.2454 80.0853 41.2454 76.3045 37.8849 76.3045 32.9232zM94.1309 30.4291L94.1309 28.2501 87.3309 28.6699C83.9441 28.9064 82.0279 30.4028 82.0279 32.7657 82.0279 35.1807 84.0231 36.7561 87.0686 36.7561 91.0328 36.7561 94.1309 34.0256 94.1309 30.4291zM104.906 50.9334L104.906 46.3388C105.325 46.4436 106.27 46.4436 106.743 46.4436 109.369 46.4436 110.787 45.3412 111.653 42.5058 111.653 42.4532 112.152 40.8256 112.152 40.7992L102.176 13.1536 108.318 13.1536 115.303 35.6273 115.407 35.6273 122.391 13.1536 128.377 13.1536 118.032 42.2167C115.67 48.9118 112.94 51.0646 107.216 51.0646 106.743 51.0646 105.326 51.0119 104.906 50.9334z"/>
</svg>
