<svg xmlns="http://www.w3.org/2000/svg" width="328" height="132" viewBox="0 0 328 132">
  <g fill-rule="evenodd">
    <path fill-rule="nonzero" d="M155.014 64.5091L155.014 103.243 142.912 103.243 142.912 7.62815 175.009 7.62815C182.751 7.47565 190.268 10.4493 195.755 15.9392 206.729 26.3089 207.406 43.7697 197.108 54.9781 196.657 55.4356 196.206 55.8931 195.755 56.3506 190.117 61.7642 183.202 64.5091 175.009 64.5091L155.014 64.5091zM155.014 19.3703L155.014 52.7669 175.309 52.7669C179.819 52.9194 184.179 51.0895 187.261 47.8108 193.575 41.1773 193.425 30.5025 186.885 24.0977 183.803 21.0478 179.669 19.3703 175.309 19.3703L155.014 19.3703zM232.362 35.6874C241.306 35.6874 248.372 38.1273 253.559 42.9309 258.745 47.7346 261.301 54.4444 261.301 62.9079L261.301 103.243 249.725 103.243 249.725 94.1696 249.199 94.1696C244.163 101.642 237.548 105.378 229.205 105.378 222.139 105.378 216.125 103.243 211.39 98.9732 206.729 95.0083 204.099 89.1372 204.249 82.9611 204.249 76.1751 206.805 70.8377 211.841 66.7966 216.877 62.7554 223.642 60.773 232.061 60.773 239.277 60.773 245.14 62.1454 249.8 64.7379L249.8 61.9167C249.8 57.723 247.996 53.7581 244.839 51.0132 241.607 48.1158 237.473 46.5146 233.188 46.5146 226.423 46.5146 221.086 49.412 217.178 55.2069L206.504 48.4208C212.217 39.9573 220.861 35.6874 232.362 35.6874zM216.727 83.1899C216.727 86.3923 218.23 89.366 220.711 91.1959 223.417 93.3308 226.724 94.4746 230.107 94.3983 235.218 94.3983 240.104 92.3396 243.712 88.6797 247.696 84.8673 249.725 80.3687 249.725 75.1838 245.967 72.1339 240.705 70.609 233.94 70.6852 229.054 70.6852 224.92 71.9052 221.613 74.2689 218.38 76.6325 216.727 79.6062 216.727 83.1899z"/>
    <polygon points="327.749 37.822 287.309 131.989 274.831 131.989 289.865 99.049 263.331 37.822 276.485 37.822 295.653 84.791 295.878 84.791 314.595 37.822"/>
    <path d="M106.08,56.1218 C106.08,52.3857 105.779,48.6495 105.178,44.9896 L54.1394,44.9896 L54.1394,66.1103 L83.3796,66.1103 C82.1769,72.8964 78.2682,78.9962 72.5554,82.8086 L72.5554,96.5333 L89.9943,96.5333 C100.217,87.0023 106.08,72.8964 106.08,56.1218 Z"/>
    <path d="M54.1393,109.8 C68.7218,109.8 81.0493,104.921 89.9942,96.5332 L72.5554,82.8086 C67.6695,86.1635 61.4306,88.0697 54.1393,88.0697 C40.0078,88.0697 28.0562,78.3862 23.7717,65.4241 L5.80664,65.4241 L5.80664,79.6062 C14.9771,98.1345 33.6938,109.8 54.1393,109.8 Z"/>
    <path d="M23.7717,65.4241 C21.5167,58.638 21.5167,51.2419 23.7717,44.3796 L23.7717,30.2737 L5.80669,30.2737 C-1.93556,45.7521 -1.93556,64.0516 5.80669,79.5299 L23.7717,65.4241 Z"/>
    <path d="M54.1393,21.734 C61.8816,21.5815 69.3232,24.5552 74.8856,29.9688 L90.3701,14.2617 C80.5231,4.95944 67.5943,-0.149178 54.1393,0.00331839 C33.6938,0.00331839 14.9771,11.7455 5.80664,30.2738 L23.7717,44.4559 C28.0562,31.4175 40.0078,21.734 54.1393,21.734 Z"/>
  </g>
</svg>
