<svg width="15" height="14" viewBox="0 0 15 14" fill="none" xmlns="http://www.w3.org/2000/svg">
<path fill-rule="evenodd" clip-rule="evenodd" d="M7.50021 2.2754C8.8197 0.73099 11.2638 0.101232 13.243 1.45071C14.2926 2.17044 14.9523 3.38497 14.9973 4.65948C15.0948 7.56836 12.5233 9.89996 8.58729 13.4686L8.50482 13.5436C7.93504 14.0684 7.05788 14.0684 6.48809 13.5511L6.41312 13.4836L6.36784 13.4424C2.45737 9.88955 -0.101468 7.56469 0.00308842 4.66698C0.0480711 3.38497 0.707817 2.17044 1.75741 1.45071C3.73665 0.0937346 6.18071 0.73099 7.50021 2.2754ZM7.49987 12.4414L7.57484 12.3664C11.1435 9.13518 13.4976 6.9985 13.4976 4.83184C13.4976 3.33241 12.373 2.20785 10.8736 2.20785C9.71902 2.20785 8.59445 2.95006 8.2046 3.97716H6.80264C6.40529 2.95006 5.28072 2.20785 4.12617 2.20785C2.62674 2.20785 1.50218 3.33241 1.50218 4.83184C1.50218 6.9985 3.85627 9.13518 7.4249 12.3664L7.49987 12.4414Z" fill="#BBB2CE"/>
</svg>
