<svg width="64" height="80" viewBox="0 0 64 80" fill="none" xmlns="http://www.w3.org/2000/svg">
<path d="M56.4117 9.20586H49.0882V4.3235C49.0882 2.97353 47.997 1.88232 46.647 1.88232H17.3529C16.0029 1.88232 14.9117 2.97353 14.9117 4.3235V9.20586H7.58818C3.55047 9.20586 0.264648 12.4917 0.264648 16.5294V72.6765C0.264648 76.7142 3.55047 80 7.58818 80H56.4117C60.4494 80 63.7353 76.7142 63.7353 72.6765V16.5294C63.7353 12.4917 60.4494 9.20586 56.4117 9.20586ZM19.7941 6.76468H44.2058V14.0882H19.7941V6.76468ZM58.8529 72.6765C58.8529 74.024 57.7593 75.1176 56.4117 75.1176H7.58818C6.24065 75.1176 5.147 74.024 5.147 72.6765V16.5294C5.147 15.1819 6.24065 14.0882 7.58818 14.0882H14.9117V16.5294C14.9117 17.8794 16.0029 18.9706 17.3529 18.9706H46.647C47.997 18.9706 49.0882 17.8794 49.0882 16.5294V14.0882H56.4117C57.7593 14.0882 58.8529 15.1819 58.8529 16.5294V72.6765Z" fill="#35F0D0"/>
<path d="M49.8033 31.8919L24.6762 57.0189L16.6374 48.9801C15.6829 48.0256 14.1401 48.0256 13.1856 48.9801C12.2311 49.9346 12.2311 51.4799 13.1856 52.432L22.9503 62.1967C23.9048 63.1512 25.4476 63.1512 26.4021 62.1967L53.2551 35.3437C54.2096 34.3892 54.2096 32.8464 53.2551 31.8919C52.3006 30.9374 50.7578 30.9374 49.8033 31.8919Z" fill="#35F0D0"/>
</svg>
