<svg width="27" height="15" viewBox="0 0 27 15" fill="none" xmlns="http://www.w3.org/2000/svg">
<path d="M24.2393 8.25037H25.4401C25.5136 8.25034 25.5864 8.26241 25.6544 8.2859C25.7224 8.30939 25.7841 8.34384 25.8361 8.38727M24.2393 8.25037L26 1.46768C26 1.40626 25.9855 1.34543 25.9574 1.28869C25.9293 1.23194 25.888 1.18038 25.836 1.13694C25.784 1.09351 25.7223 1.05907 25.6544 1.03557C25.5864 1.01207 25.5136 0.999984 25.4401 1H1.55993C1.48639 0.999984 1.41357 1.01207 1.34563 1.03557C1.27769 1.05907 1.21596 1.09351 1.16396 1.13694C1.11196 1.18038 1.07072 1.23194 1.04258 1.28869C1.01445 1.34543 0.999981 1.40626 1 1.46768V5.45093C0.999981 5.51235 1.01445 5.57317 1.04258 5.62992C1.07072 5.68667 1.11196 5.73823 1.16396 5.78166C1.21596 5.82509 1.27769 5.85954 1.34563 5.88304C1.41357 5.90654 1.48639 5.91862 1.55993 5.91861H2.00613C2.37483 5.92262 2.72708 6.04672 2.98784 6.26448C3.2486 6.48223 3.39725 6.77642 3.40212 7.08438C3.4017 7.39351 3.25449 7.68988 2.99278 7.90847C2.73107 8.12706 2.37624 8.25002 2.00613 8.25037H1.55993C1.48639 8.25034 1.41356 8.26241 1.3456 8.2859M24.2393 8.25037C24.0554 8.25205 23.873 8.22303 23.7027 8.16502M24.2393 8.25037L23.7027 8.16502M25.8361 8.38727C25.8881 8.43071 25.9293 8.48228 25.9575 8.53904M25.8361 8.38727L25.9002 8.31052C25.8383 8.25884 25.7658 8.2186 25.6871 8.19139C25.6084 8.16418 25.5245 8.15034 25.4401 8.15037C25.4401 8.15037 25.44 8.15037 25.44 8.15037L24.2393 8.15037L24.2384 8.15038C24.0655 8.15195 23.8943 8.12465 23.7349 8.07037C23.5756 8.01608 23.4318 7.93609 23.3118 7.83584C23.1918 7.73561 23.0982 7.61738 23.0353 7.48868C22.9725 7.36007 22.9415 7.22313 22.9433 7.08568L22.9433 7.08451C22.9437 6.80828 23.0751 6.53892 23.3167 6.33712C23.5589 6.13489 23.8905 6.01888 24.2394 6.01861H25.4401C25.5245 6.01863 25.6084 6.00477 25.6871 5.97755C25.7658 5.95033 25.8383 5.91008 25.9001 5.85841C25.962 5.80672 26.0123 5.74436 26.047 5.67434L25.9574 5.62992L26.047 5.67433C26.0818 5.60423 26.1 5.52825 26.1 5.45093C26.1 5.45092 26.1 5.45091 26.1 5.4509V1.46771L26 8.71805M25.8361 8.38727L25.9002 8.31052C25.9621 8.36223 26.0124 8.42459 26.0471 8.49463L25.9575 8.53904M25.9575 8.53904C25.9856 8.59579 26 8.65662 26 8.71805M25.9575 8.53904L26.0471 8.49464C26.0818 8.56477 26.1001 8.64078 26.1 8.71812L26 8.71805M26 8.71805V13.5323M26 13.5323C26 13.5937 25.9856 13.6546 25.9575 13.7113M26 13.5323L26.1 13.5323V13.5323H26ZM25.9575 13.7113C25.9293 13.7681 25.8881 13.8197 25.8361 13.8631C25.7841 13.9065 25.7224 13.941 25.6544 13.9645C25.5864 13.988 25.5136 14 25.4401 14M25.9575 13.7113L26.0471 13.7557C26.0124 13.8258 25.9621 13.8881 25.9002 13.9398C25.8383 13.9915 25.7658 14.0318 25.6871 14.059C25.6084 14.0862 25.5245 14.1 25.4401 14.1M25.9575 13.7113L25.4401 14.1M25.4401 14H1.55993C1.48639 14 1.41356 13.988 1.3456 13.9645C1.27765 13.941 1.21591 13.9065 1.16391 13.8631C1.1119 13.8197 1.07066 13.7681 1.04254 13.7113C1.01441 13.6546 0.999958 13.5937 1 13.5323M25.4401 14V14.1M25.4401 14V14.1M1 13.5323V8.71805M1 13.5323L0.9 13.5323C0.9 13.5323 0.9 13.5323 0.9 13.5323M1 13.5323H0.9M1 8.71805C0.999958 8.65662 1.01441 8.59579 1.04254 8.53904C1.07066 8.48228 1.1119 8.43071 1.16391 8.38727M1 8.71805L0.9 8.71812M1 8.71805H0.9M1.16391 8.38727C1.21591 8.34384 1.27765 8.30939 1.3456 8.2859M1.16391 8.38727L1.0998 8.31052C1.16168 8.25884 1.23422 8.2186 1.31293 8.19139L1.3456 8.2859M1.16391 8.38727L1.0998 8.31052C1.0379 8.36223 0.987642 8.42459 0.952934 8.49464C0.918191 8.56475 0.899958 8.64073 0.9 8.71805M1.3456 8.2859L1.31293 8.19139C1.39164 8.16418 1.47553 8.15034 1.55993 8.15037C1.55995 8.15037 1.55996 8.15037 1.55998 8.15037H2.00603C2.35489 8.15004 2.68651 8.03399 2.92868 7.83172C3.17007 7.6301 3.30147 7.36106 3.30212 7.0851C3.2975 6.80974 3.16451 6.54229 2.92374 6.34123C2.68235 6.13965 2.35312 6.0225 2.00556 6.01861H1.55995C1.55994 6.01861 1.55994 6.01861 1.55993 6.01861C1.47553 6.01862 1.39164 6.00476 1.31295 5.97755C1.23425 5.95033 1.16172 5.91008 1.09985 5.85841L1.16366 5.78202L1.09985 5.85841C1.03796 5.80672 0.987704 5.74436 0.952988 5.67434C0.918232 5.60423 0.89998 5.52825 0.9 5.45092C0.9 5.45092 0.9 5.45091 0.9 5.4509V1.46771C0.9 1.4677 0.9 1.46769 0.9 1.46768C0.899981 1.39036 0.918233 1.31438 0.952988 1.24427C0.987704 1.17424 1.03796 1.11189 1.09985 1.06019C1.16172 1.00852 1.23425 0.968277 1.31295 0.94106C1.39164 0.913843 1.47553 0.899984 1.55993 0.9C1.55994 0.9 1.55994 0.9 1.55995 0.9H25.4401C25.5245 0.899982 25.6084 0.913841 25.6871 0.94106C25.7658 0.968277 25.8383 1.00852 25.9001 1.06019C25.962 1.11189 26.0123 1.17424 26.047 1.24427L25.9576 1.28859L26.047 1.24427C26.0818 1.31438 26.1 1.39036 26.1 1.46768L0.9 8.71805M0.9 8.71805L0.9 8.71812M0.9 8.71812L0.9 13.5323M0.9 8.71812L25.44 14.1H1.55998C1.55996 14.1 1.55995 14.1 1.55993 14.1C1.47552 14.1 1.39164 14.0862 1.31293 14.059C1.23422 14.0318 1.16167 13.9915 1.0998 13.9398C1.0379 13.8881 0.987642 13.8258 0.952934 13.7557C0.918186 13.6856 0.899953 13.6097 0.9 13.5323M21.6234 7.08366C21.6197 7.37638 21.6861 7.6662 21.8178 7.93594C21.9495 8.20576 22.1439 8.44957 22.3882 8.65368C22.6325 8.85775 22.9223 9.01827 23.24 9.12652C23.5576 9.23473 23.8974 9.28876 24.2397 9.28573H24.7801V12.9646H2.21986V9.27816C2.85155 9.23407 3.44616 8.99849 3.88978 8.61084C4.35634 8.20314 4.62115 7.65703 4.62198 7.08452L4.62195 7.08275C4.61269 6.51286 4.34537 5.97114 3.88076 5.56519C3.43883 5.17905 2.84864 4.94171 2.21986 4.89176V2.03535H7.17789V2.40828C7.17789 2.56524 7.25268 2.71123 7.37779 2.81572C7.50236 2.91977 7.66804 2.97595 7.83782 2.97595C8.00761 2.97595 8.17328 2.91977 8.29786 2.81572C8.42296 2.71123 8.49775 2.56524 8.49775 2.40828V2.03535H24.7801V4.88325L24.2393 4.88325L24.2392 4.88325C23.551 4.88389 22.8883 5.11236 22.3971 5.52257C21.9056 5.93309 21.6245 6.49391 21.6234 7.08366ZM21.6234 7.08366C21.6234 7.08347 21.6234 7.08327 21.6234 7.08308L21.7234 7.08438L21.6234 7.08423C21.6234 7.08404 21.6234 7.08385 21.6234 7.08366ZM23.7027 8.16502C23.5324 8.10702 23.3777 8.0212 23.2477 7.91259M23.7027 8.16502L23.2477 7.91259M23.2477 7.91259C23.1177 7.80398 23.0149 7.67478 22.9455 7.53256M23.2477 7.91259L22.9455 7.53256M22.9455 7.53256C22.876 7.39034 22.8413 7.23796 22.8433 7.08438L22.9455 7.53256ZM24.7801 9.18573H24.8801V9.28573L24.7801 9.18573Z" fill="#BBB2CE" stroke="#BBB2CE" stroke-width="0.2"/>
<path d="M7.59078 3.93618C7.66947 3.90896 7.75335 3.8951 7.83774 3.89512L7.59078 3.93618ZM7.59078 3.93618C7.51208 3.96339 7.43955 4.00364 7.37768 4.05531M7.59078 3.93618L7.37768 4.05531M7.37768 4.05531C7.31579 4.10701 7.26553 4.16936 7.23082 4.23939M7.37768 4.05531L7.23082 4.23939M7.23082 4.23939C7.19606 4.3095 7.17781 4.38548 7.17783 4.46279M7.23082 4.23939L7.17783 4.46279M7.17783 4.46279C7.17783 4.46281 7.17783 4.46282 7.17783 4.46283M7.17783 4.46279V4.46283M7.17783 4.46283V5.4034C7.17783 5.56037 7.25262 5.70636 7.37773 5.81085C7.5023 5.9149 7.66798 5.97108 7.83776 5.97108C8.00755 5.97108 8.17322 5.9149 8.2978 5.81085C8.4229 5.70636 8.49769 5.56037 8.49769 5.4034V4.46283C8.49769 4.46282 8.49769 4.46281 8.49769 4.46279C8.49771 4.38548 8.47946 4.3095 8.4447 4.23939C8.40999 4.16936 8.35973 4.10701 8.29784 4.05531C8.23597 4.00364 8.16344 3.96339 8.08475 3.93618C8.00605 3.90896 7.92218 3.8951 7.83778 3.89512L7.17783 4.46283Z" fill="#BBB2CE" stroke="#BBB2CE" stroke-width="0.2"/>
<path d="M7.59078 6.93129C7.66947 6.90408 7.75335 6.89022 7.83774 6.89023L7.59078 6.93129ZM7.59078 6.93129C7.51208 6.95851 7.43955 6.99875 7.37768 7.05043M7.59078 6.93129L7.37768 7.05043M7.37768 7.05043C7.31579 7.10212 7.26553 7.16448 7.23082 7.23451M7.37768 7.05043L7.23082 7.23451M7.23082 7.23451C7.19606 7.30461 7.17781 7.38059 7.17783 7.45791M7.23082 7.23451L7.17783 7.45791M7.17783 7.45791C7.17783 7.45792 7.17783 7.45793 7.17783 7.45794M7.17783 7.45791V7.45794M7.17783 7.45794V8.39829C7.17783 8.55525 7.25262 8.70125 7.37773 8.80574C7.5023 8.90979 7.66798 8.96597 7.83776 8.96597C8.00755 8.96597 8.17322 8.90979 8.2978 8.80574C8.4229 8.70125 8.49769 8.55525 8.49769 8.39829V7.45794C8.49769 7.45793 8.49769 7.45792 8.49769 7.45791C8.49771 7.38059 8.47946 7.30461 8.4447 7.2345C8.40999 7.16448 8.35973 7.10212 8.29784 7.05043C8.23597 6.99875 8.16344 6.95851 8.08475 6.93129C8.00605 6.90408 7.92218 6.89022 7.83778 6.89023L7.17783 7.45794Z" fill="#BBB2CE" stroke="#BBB2CE" stroke-width="0.2"/>
<path d="M7.59076 9.92637C7.66948 9.89915 7.75339 9.88531 7.83781 9.88535L7.83776 9.98535L7.83771 9.88535C7.92213 9.88531 8.00604 9.89916 8.08476 9.92637C8.16347 9.95358 8.23602 9.99382 8.29789 10.0455C8.35979 10.0972 8.41005 10.1596 8.44476 10.2296C8.47951 10.2997 8.49775 10.3758 8.49769 10.4531M7.59076 9.92637L7.17783 10.4531L7.17783 11.3934C7.17783 11.5504 7.25262 11.6964 7.37773 11.8009C7.5023 11.9049 7.66798 11.9611 7.83776 11.9611C8.00755 11.9611 8.17322 11.9049 8.2978 11.8009C8.4229 11.6964 8.49769 11.5504 8.49769 11.3934V10.4531M7.59076 9.92637C7.51205 9.95358 7.43951 9.99382 7.37763 10.0455C7.31573 10.0972 7.26547 10.1596 7.23076 10.2296C7.19602 10.2997 7.17779 10.3757 7.17783 10.453L7.59076 9.92637ZM8.49769 10.4531L8.39769 10.453H8.49769V10.4531Z" fill="#BBB2CE" stroke="#BBB2CE" stroke-width="0.2"/>
</svg>
