<svg width="16" height="16" viewBox="0 0 16 16" fill="none" xmlns="http://www.w3.org/2000/svg">
<path fill-rule="evenodd" clip-rule="evenodd" d="M7.99992 1.33325C4.31992 1.33325 1.33325 4.31992 1.33325 7.99992C1.33325 11.6799 4.31992 14.6666 7.99992 14.6666C11.6799 14.6666 14.6666 11.6799 14.6666 7.99992C14.6666 4.31992 11.6799 1.33325 7.99992 1.33325ZM7.33325 12.6666V11.3333H8.66659V12.6666H7.33325ZM9.44651 8.11325L10.0465 7.49992C10.7265 6.81992 10.9598 5.65325 10.1732 4.56658C9.57317 3.73325 8.60651 3.20658 7.59317 3.36658C6.55984 3.52658 5.72651 4.27325 5.43984 5.25325C5.33317 5.62658 5.59984 5.99992 5.98651 5.99992H6.18651C6.44651 5.99992 6.65317 5.81325 6.73317 5.56658C6.95318 4.93325 7.63984 4.51325 8.37984 4.71992C8.84651 4.85325 9.21984 5.25992 9.30651 5.73992C9.39318 6.20658 9.24651 6.64658 8.93984 6.93992L8.11317 7.77992C7.83317 8.05992 7.61317 8.40658 7.47984 8.79325C7.38651 9.06658 7.33317 9.35992 7.33317 9.66658V9.99992H8.66651C8.66651 9.69325 8.69984 9.45325 8.75317 9.23992C8.87317 8.75992 9.11317 8.45325 9.44651 8.11325Z" fill="#BBB2CE"/>
</svg>
