<svg width="18" height="16" viewBox="0 0 18 16" fill="none" xmlns="http://www.w3.org/2000/svg">
<path d="M13.972 3.38839e-05C16.1045 2.14954 17.1707 4.96684 17.1707 7.78404C17.1707 10.6013 16.1045 13.4186 13.972 15.568L13.4197 15.0112C15.3995 13.0156 16.3895 10.3998 16.3895 7.78402C16.3895 5.16826 15.3995 2.55248 13.4197 0.556792L13.972 0V3.38839e-05Z" fill="#715EE9"/>
<path d="M12.5638 2.6416L12.5639 2.64166C13.9726 4.06166 14.677 5.9228 14.677 7.78388C14.677 9.64496 13.9726 11.5061 12.5639 12.9261L12.5638 12.9262L12.0115 12.3694L12.0115 12.3693C13.2676 11.1031 13.8957 9.44351 13.8957 7.78389C13.8957 6.12427 13.2676 4.46464 12.0115 3.19846L12.0115 3.1984L12.5638 2.64161V2.6416Z" fill="#715EE9"/>
<path d="M11.1558 5.2832C11.8408 5.97376 12.1833 6.87879 12.1833 7.78377C12.1833 8.68875 11.8408 9.59378 11.1558 10.2843L10.6034 9.72755C11.1358 9.19084 11.4021 8.48729 11.4021 7.78378C11.4021 7.08026 11.1358 6.37671 10.6034 5.84001L11.1558 5.28321V5.2832Z" fill="#715EE9"/>
<path d="M3.75107 0.556758C1.77122 2.55244 0.781271 5.16823 0.781271 7.78398C0.781271 10.3997 1.77122 13.0155 3.75107 15.0112L3.19869 15.568C1.06625 13.4185 0 10.6012 0 7.784C0 4.96678 1.06625 2.14949 3.19869 0L3.75107 0.556793V0.556758Z" fill="#715EE9"/>
<path d="M5.15918 3.1984L5.15912 3.19846C3.90302 4.46465 3.27492 6.12427 3.27492 7.78389C3.27492 9.44351 3.90302 11.1031 5.15912 12.3693L5.15918 12.3694L4.60681 12.9262L4.60675 12.9261C3.19804 11.5061 2.49365 9.64496 2.49365 7.78388C2.49365 5.9228 3.19805 4.06166 4.60675 2.64166L4.60681 2.6416L5.15918 3.19839V3.1984Z" fill="#715EE9"/>
<path d="M6.56726 5.84001C6.03481 6.37671 5.76858 7.08026 5.76858 7.78378C5.76858 8.4873 6.03481 9.19085 6.56726 9.72755L6.01489 10.2843C5.32981 9.59379 4.9873 8.68875 4.9873 7.78377C4.9873 6.87879 5.32981 5.97376 6.01489 5.2832L6.56726 5.84V5.84001Z" fill="#715EE9"/>
<path d="M8.62704 6.03516C9.10608 6.03516 9.5398 6.23092 9.85379 6.54739C10.1677 6.86389 10.362 7.30108 10.362 7.78395C10.362 8.26677 10.1677 8.70402 9.85379 9.02052C9.5398 9.33699 9.10608 9.53275 8.62704 9.53275C8.14796 9.53275 7.71422 9.33696 7.40029 9.02049C7.08633 8.70404 6.89209 8.2668 6.89209 7.78395C6.89209 7.30111 7.08633 6.86386 7.40029 6.54742C7.71422 6.23095 8.14797 6.03516 8.62704 6.03516V6.03516ZM9.30141 7.10418C9.12886 6.93028 8.89042 6.82268 8.62704 6.82268C8.36365 6.82268 8.12518 6.93031 7.95266 7.10421C7.78014 7.27811 7.67336 7.51849 7.67336 7.78395C7.67336 8.04942 7.78014 8.28979 7.95266 8.4637C8.12518 8.6376 8.36365 8.74523 8.62704 8.74523C8.89042 8.74523 9.12886 8.63763 9.30141 8.46372C9.47394 8.28982 9.58068 8.04942 9.58068 7.78395C9.58068 7.51846 9.47394 7.27812 9.30141 7.10418V7.10418Z" fill="#715EE9"/>
</svg>
