<svg width="23" height="13" viewBox="0 0 23 13" fill="none" xmlns="http://www.w3.org/2000/svg">
<path d="M22.1 7.53073C22.1 7.46296 22.0842 7.3964 22.054 7.33504C22.0239 7.27377 21.9803 7.21932 21.9267 7.17425C21.8732 7.12921 21.8105 7.0942 21.7426 7.07055C21.6747 7.04691 21.6024 7.0349 21.5297 7.03493C21.5296 7.03493 21.5296 7.03493 21.5296 7.03493L20.521 7.03493L20.5201 7.03493C20.3767 7.03625 20.2348 7.01344 20.1027 6.96813C19.9707 6.92281 19.8517 6.85609 19.7524 6.77259C19.6532 6.68912 19.576 6.59079 19.5242 6.48393C19.4724 6.37716 19.4469 6.26356 19.4484 6.14961L19.4484 6.14846C19.4487 5.91949 19.5568 5.69567 19.7566 5.5276C19.9569 5.3591 20.2317 5.26213 20.5211 5.2619H21.5297C21.6024 5.26191 21.6747 5.24989 21.7426 5.22624C21.8105 5.20259 21.8731 5.16758 21.9267 5.12254C21.9802 5.07748 22.0238 5.02304 22.054 4.96178C22.0841 4.90045 22.1 4.83392 22.1 4.76617C22.1 4.76616 22.1 4.76615 22.1 4.76614V1.39576L22 7.53066M22.1 7.53073L22 7.53066M22.1 7.53073V7.53066H22M22.1 7.53073V11.6042M22 7.53066V11.6043M22.1 11.6042L22 11.6043M22.1 11.6042V11.6043H22M22.1 11.6042C22.1 11.672 22.0842 11.7385 22.054 11.7999C22.0239 11.8612 21.9803 11.9156 21.9267 11.9607C21.8732 12.0057 21.8105 12.0407 21.7426 12.0644C21.6747 12.088 21.6024 12.1 21.5297 12.1L22 11.6043M1.47039 12.1L1.47034 12V12.1H1.47039ZM1.47039 12.1H21.5296H1.47039ZM18.3077 6.1476C18.3046 6.39762 18.3608 6.6451 18.4724 6.87536C18.5841 7.10571 18.7487 7.31372 18.9556 7.48776C19.1624 7.66178 19.4075 7.79856 19.6763 7.89078C19.9448 7.98295 20.2321 8.02896 20.5214 8.02638H20.9593V11.1085H2.04068V8.01885C2.56911 7.97867 3.06622 7.77874 3.43822 7.45129C3.83318 7.10362 4.05776 6.63752 4.05846 6.14846L4.05843 6.14671C4.05058 5.65995 3.82391 5.19764 3.43064 4.8515C3.06007 4.52534 2.56665 4.32395 2.04068 4.27892V1.89145H6.17343V2.19162C6.17343 2.32922 6.23853 2.45686 6.34681 2.54796C6.45457 2.63863 6.59755 2.68734 6.74377 2.68734C6.88999 2.68734 7.03297 2.63863 7.14073 2.54796C7.24901 2.45686 7.31411 2.32922 7.31411 2.19162V1.89145H20.9593V4.27044H20.521H20.5209C19.9392 4.27099 19.3788 4.46549 18.963 4.81521C18.547 5.16524 18.3086 5.64384 18.3077 6.1476ZM18.3077 6.1476C18.3077 6.14741 18.3077 6.14722 18.3077 6.14703L18.4077 6.14832L18.3077 6.14817C18.3077 6.14798 18.3077 6.14779 18.3077 6.1476ZM22.1 1.39573C22.1 1.32798 22.0841 1.26145 22.054 1.20012C22.0238 1.13886 21.9802 1.08442 21.9267 1.03936C21.8731 0.994317 21.8105 0.959312 21.7426 0.935662C21.6747 0.912011 21.6024 0.899984 21.5296 0.9H1.47036C1.47036 0.9 1.47035 0.9 1.47034 0.9C1.39762 0.899987 1.32532 0.912013 1.25743 0.935662C1.18955 0.959312 1.12688 0.994317 1.07334 1.03936C1.01978 1.08442 0.976194 1.13886 0.946047 1.20012C0.915863 1.26145 0.899984 1.32798 0.9 1.39573C0.9 1.39574 0.9 1.39575 0.9 1.39576V4.76614C0.9 4.76615 0.9 4.76616 0.9 4.76617C0.899983 4.83391 0.915862 4.90045 0.946047 4.96178C0.976194 5.02304 1.01978 5.07748 1.07334 5.12254C1.12688 5.16758 1.18955 5.20259 1.25743 5.22624C1.32532 5.24989 1.39762 5.26191 1.47034 5.2619C1.47035 5.2619 1.47036 5.2619 1.47036 5.2619H1.84456C2.13295 5.26517 2.40573 5.36311 2.60541 5.53108C2.80448 5.69854 2.91393 5.92078 2.91778 6.14904C2.9172 6.37772 2.8091 6.60122 2.60955 6.76911C2.40925 6.93764 2.1345 7.03465 1.84505 7.03493H1.47039C1.47037 7.03493 1.47036 7.03493 1.47034 7.03493C1.39762 7.0349 1.32531 7.04691 1.25742 7.07055C1.18952 7.0942 1.12684 7.1292 1.0733 7.17425C1.01973 7.21932 0.976141 7.27377 0.946 7.33504C0.915827 7.39638 0.899965 7.46291 0.9 7.53066L22.1 1.39573ZM0.9 7.53073L0.9 11.6042C0.9 11.6042 0.9 11.6042 0.9 11.6042L1 11.6043H0.9L0.9 7.53073Z" fill="#35F0D0" stroke="#BBB2CE" stroke-width="0.2"/>
<path d="M6.53075 3.47001C6.59862 3.44636 6.67092 3.43434 6.74363 3.43435L6.53075 3.47001ZM6.53075 3.47001C6.46286 3.49366 6.40019 3.52866 6.34666 3.5737M6.53075 3.47001L6.34666 3.5737M6.34666 3.5737C6.2931 3.61877 6.24951 3.67321 6.21936 3.73446M6.34666 3.5737L6.21936 3.73446M6.21936 3.73446C6.18918 3.7958 6.1733 3.86233 6.17332 3.93007M6.21936 3.73446L6.17332 3.93007M6.17332 3.93007C6.17332 3.93009 6.17332 3.9301 6.17332 3.93011M6.17332 3.93007L6.17332 3.93011M6.17332 3.93011L6.17332 4.72597C6.17332 4.86357 6.23842 4.99121 6.34669 5.08231C6.45446 5.17298 6.59744 5.2217 6.74366 5.2217C6.88987 5.2217 7.03286 5.17298 7.14062 5.08231C7.2489 4.99121 7.314 4.86357 7.314 4.72597V3.93011C7.314 3.9301 7.314 3.93009 7.314 3.93007C7.31401 3.86233 7.29814 3.7958 7.26795 3.73447C7.2378 3.67321 7.19421 3.61877 7.14065 3.5737C7.08712 3.52866 7.02445 3.49366 6.95657 3.47001C6.88869 3.44636 6.81639 3.43434 6.74368 3.43435L6.17332 3.93011Z" fill="#35F0D0" stroke="#BBB2CE" stroke-width="0.2"/>
<path d="M6.53075 6.00437C6.59862 5.98072 6.67092 5.9687 6.74363 5.96871L6.53075 6.00437ZM6.53075 6.00437C6.46286 6.02802 6.40019 6.06303 6.34666 6.10807M6.53075 6.00437L6.34666 6.10807M6.34666 6.10807C6.2931 6.15313 6.24951 6.20757 6.21936 6.26883M6.34666 6.10807L6.21936 6.26883M6.21936 6.26883C6.18918 6.33016 6.1733 6.39669 6.17332 6.46444M6.21936 6.26883L6.17332 6.46444M6.17332 6.46444C6.17332 6.46445 6.17332 6.46446 6.17332 6.46447M6.17332 6.46444L6.17332 6.46447M6.17332 6.46447L6.17332 7.26014C6.17332 7.39774 6.23842 7.52538 6.34669 7.61648C6.45446 7.70715 6.59744 7.75587 6.74366 7.75587C6.88987 7.75587 7.03286 7.70715 7.14062 7.61648C7.2489 7.52538 7.314 7.39774 7.314 7.26014V6.46447C7.314 6.46446 7.314 6.46445 7.314 6.46444C7.31401 6.39669 7.29814 6.33016 7.26795 6.26883C7.2378 6.20757 7.19421 6.15313 7.14065 6.10807C7.08712 6.06303 7.02445 6.02802 6.95657 6.00437C6.88869 5.98073 6.81639 5.9687 6.74368 5.96871L6.17332 6.46447Z" fill="#35F0D0" stroke="#BBB2CE" stroke-width="0.2"/>
<path d="M7.314 8.99885C7.31404 8.93108 7.29818 8.86453 7.268 8.80317C7.23786 8.7419 7.19426 8.68745 7.1407 8.64238C7.08716 8.59733 7.02448 8.56233 6.95658 8.53868C6.88867 8.51504 6.81635 8.50302 6.74361 8.50306L6.74366 8.60306L6.74371 8.50306C6.67097 8.50302 6.59864 8.51504 6.53074 8.53868C6.46284 8.56233 6.40015 8.59733 6.34661 8.64238C6.29305 8.68745 6.24945 8.7419 6.21931 8.80317C6.18914 8.86451 6.17328 8.93104 6.17332 8.99879M7.314 8.99885L7.21402 8.99879H7.314V8.99885ZM7.314 8.99885V9.79449C7.314 9.93209 7.2489 10.0597 7.14062 10.1508C7.03286 10.2415 6.88987 10.2902 6.74366 10.2902C6.59744 10.2902 6.45446 10.2415 6.3467 10.1508C6.23842 10.0597 6.17332 9.93209 6.17332 9.79449L6.17332 8.99885M6.17332 8.99885L6.27329 8.99879H6.17332M6.17332 8.99885L6.17332 8.99879M6.17332 8.99885L6.17332 8.99879" fill="#35F0D0" stroke="#BBB2CE" stroke-width="0.2"/>
</svg>
