<svg width="51" height="51" viewBox="0 0 51 51" fill="none" xmlns="http://www.w3.org/2000/svg">
<circle cx="25.5" cy="25.5" r="24" stroke="#35F0D0" stroke-width="3"/>
<circle cx="16.5" cy="21.5" r="3.5" fill="#35F0D0"/>
<path d="M30 22C30 22.5523 30.4477 23 31 23C31.5523 23 32 22.5523 32 22L30 22ZM37 22C37 22.5523 37.4477 23 38 23C38.5523 23 39 22.5523 39 22L37 22ZM32 22C32 21.0345 32.9691 20 34.5 20V18C32.1649 18 30 19.6518 30 22L32 22ZM34.5 20C36.0309 20 37 21.0345 37 22L39 22C39 19.6518 36.8351 18 34.5 18V20Z" fill="#35F0D0"/>
<path d="M16 32V31C15.7004 31 15.4166 31.1343 15.2267 31.366C15.0367 31.5977 14.9607 31.9023 15.0194 32.1961L16 32ZM36 32L36.9701 32.2425C37.0448 31.9438 36.9777 31.6273 36.7882 31.3846C36.5987 31.1419 36.3079 31 36 31V32ZM16 33H36V31H16V33ZM35.0299 31.7575C34.7238 32.9817 33.9055 35.084 32.4206 36.8582C30.9531 38.6116 28.8798 40 26 40V42C29.6202 42 32.2135 40.2218 33.9544 38.1418C35.6778 36.0827 36.6095 33.685 36.9701 32.2425L35.0299 31.7575ZM26 40C23.1073 40 21.0347 38.7431 19.5826 37.09C18.1088 35.4122 17.2863 33.3323 16.9806 31.8039L15.0194 32.1961C15.3804 34.001 16.333 36.4211 18.08 38.41C19.8488 40.4236 22.4429 42 26 42V40Z" fill="#35F0D0"/>
</svg>
