<svg width="27" height="53" viewBox="0 0 27 53" fill="none" xmlns="http://www.w3.org/2000/svg">
<path d="M1.16237 52.23L0.873373 49.983C0.604373 47.891 2.86337 40.728 7.58937 28.692L2.23838 28.206C1.41738 28.132 0.719372 27.716 0.327372 27.066C-0.0646279 26.413 -0.106626 25.603 0.212374 24.841L9.67537 2.224C10.2044 0.957003 11.6464 0 13.0294 0L22.1404 0.194C22.9774 0.212 23.7004 0.584001 24.1224 1.214C24.5464 1.84 24.6194 2.651 24.3214 3.432L19.2154 16.836L24.5834 17.325C25.4624 17.404 26.1494 17.846 26.4694 18.536C26.7884 19.224 26.6814 20.033 26.1754 20.755C25.2454 22.077 20.3644 29.004 15.4044 35.786C5.03337 49.967 3.74037 50.723 3.11937 51.086L1.16237 52.23ZM3.27837 25.288L11.8414 26.067L10.4014 29.739C7.56137 36.97 5.94937 41.611 5.03537 44.572C6.74237 42.417 9.26237 39.104 12.9824 34.016C17.0744 28.422 21.1114 22.729 22.9084 20.185L18.6764 19.792L14.9834 19.099L16.4244 15.74L21.2114 3.175L12.9984 3C12.8634 3 12.5124 3.229 12.4444 3.381L3.27837 25.288Z" fill="#35F0D0"/>
</svg>
