<svg width="135" height="101" viewBox="0 0 135 101" fill="none" xmlns="http://www.w3.org/2000/svg">
<path d="M78.6666 12.8307L122.395 22.9614L133.441 50L83.64 60.6947L93.8573 69.5801L98.5519 94.2907L7.89992 98.808L1.33325 92.004L51.0706 65.0107L34.9332 50.988L78.6666 12.8307Z" fill="#FC9447"/>
<path d="M78.6666 12.8307L78.3653 14.1294L121.421 24.1041L131.605 49.0307L83.3599 59.392C82.8653 59.4974 82.4759 59.872 82.3493 60.3627C82.2226 60.8534 82.384 61.3694 82.7653 61.7014L92.6333 70.2827L96.956 93.0347L8.43859 97.4467L3.5106 92.3401L51.7066 66.1827C52.0906 65.9734 52.348 65.5894 52.396 65.156C52.4426 64.7214 52.2746 64.2907 51.9453 64.0041L36.964 50.9867L79.5426 13.8361L78.6666 12.8307L78.3653 14.1294L78.6666 12.8307L77.7906 11.8267L34.0573 49.984C33.7666 50.2374 33.5999 50.604 33.5999 50.9894C33.5999 51.376 33.768 51.7414 34.0586 51.9947L48.7439 64.756L0.697317 90.832C0.329317 91.032 0.0799366 91.3867 0.0159366 91.8014C-0.0480634 92.2147 0.0826267 92.628 0.373293 92.9294L6.93996 99.7347C7.20796 100.012 7.57992 100.16 7.96659 100.14L98.6186 95.6227C99.0039 95.6027 99.3613 95.4187 99.5999 95.1147C99.8386 94.8121 99.9333 94.4201 99.8613 94.0414L95.1666 69.3307C95.1106 69.0387 94.956 68.7681 94.732 68.5734L86.528 61.4387L133.721 51.3041C134.108 51.2201 134.436 50.972 134.62 50.6227C134.805 50.2734 134.825 49.8614 134.676 49.496L123.629 22.456C123.465 22.056 123.116 21.76 122.696 21.6614L78.968 11.5321C78.5506 11.4347 78.1119 11.5454 77.7906 11.8267L78.6666 12.8307" fill="#11131A"/>
<path d="M66.4173 2.2987L122.395 22.9614L71.3693 50.1574L93.7999 69.6467L1.33325 92.004L38.8106 54.4734L22.6733 40.4547L66.4173 2.2987" fill="#FFC448"/>
<path d="M66.4174 2.29868L65.956 3.54936L119.144 23.1827L70.7427 48.9814C70.3573 49.1867 70.0947 49.5734 70.0453 50.008C69.996 50.4414 70.1654 50.8773 70.4947 51.164L90.9746 68.9587L5.6227 89.5947L39.7547 55.416C40.0173 55.1534 40.1573 54.7973 40.144 54.4267C40.1307 54.056 39.9653 53.7107 39.6853 53.468L24.704 40.452L67.2947 3.30268L66.4174 2.29868L65.956 3.54936L66.4174 2.29868L65.5413 1.29334L21.7974 39.4494C21.5054 39.7027 21.34 40.0693 21.34 40.456C21.34 40.8413 21.508 41.208 21.7987 41.4613L36.8573 54.5427L0.389365 91.0613C-0.0306347 91.484 -0.12132 92.1373 0.17068 92.6573C0.46268 93.176 1.06666 93.44 1.64666 93.3L94.1133 70.9427C94.596 70.8267 94.9774 70.4467 95.0947 69.9627C95.2134 69.48 95.0493 68.9667 94.6733 68.64L73.708 50.4227L123.021 24.1374C123.487 23.8894 123.76 23.396 123.725 22.8707C123.689 22.344 123.351 21.892 122.856 21.7107L66.88 1.0467C66.42 0.877362 65.9106 0.972009 65.5413 1.29334L66.4174 2.29868" fill="#11131A"/>
</svg>
