<svg width="22" height="18" viewBox="0 0 22 18" fill="none" xmlns="http://www.w3.org/2000/svg">
<mask id="path-1-outside-1" maskUnits="userSpaceOnUse" x="0" y="0" width="22" height="18" fill="black">
<rect fill="white" width="22" height="18"/>
<path d="M13.9031 13.0974C13.9617 13.1305 14.0284 13.1463 14.0956 13.1431C14.1628 13.1399 14.2277 13.1178 14.2829 13.0793L20.8472 8.50059C20.8967 8.46602 20.9366 8.41946 20.9633 8.36527C20.99 8.31107 21.0024 8.251 20.9996 8.19067C20.9967 8.13034 20.9786 8.07172 20.947 8.02028C20.9153 7.96884 20.8712 7.92626 20.8186 7.89652L8.67531 1.04659C8.62063 1.01536 8.55861 0.999288 8.49565 1.00002C8.43268 1.00076 8.37106 1.01828 8.31712 1.05078L1.17423 5.30794C1.12134 5.34066 1.0778 5.3865 1.04785 5.441C1.0179 5.49551 1.00254 5.55683 1.00328 5.61902C1.00401 5.68121 1.02081 5.74216 1.05205 5.79594C1.08329 5.84972 1.1279 5.89452 1.18155 5.92597L5.64272 8.44239V9.76131L1.53207 7.44659C1.44956 7.40015 1.35198 7.3884 1.26081 7.41391C1.16963 7.43941 1.09232 7.5001 1.04588 7.58261C0.999449 7.66512 0.987693 7.7627 1.0132 7.85387C1.03871 7.94505 1.0994 8.02236 1.18191 8.0688L5.64272 10.5807V11.9042L1.53207 9.58945C1.44956 9.54302 1.35198 9.53126 1.26081 9.55677C1.16963 9.58228 1.09232 9.64297 1.04588 9.72548C0.999449 9.80799 0.987693 9.90556 1.0132 9.99674C1.03871 10.0879 1.0994 10.1652 1.18191 10.2117L13.9031 17.3831C13.9617 17.4161 14.0284 17.432 14.0956 17.4288C14.1628 17.4255 14.2277 17.4034 14.2829 17.365L20.8472 12.7863C20.9249 12.7321 20.9778 12.6493 20.9945 12.556C21.0111 12.4627 20.99 12.3667 20.9358 12.289C20.8815 12.2113 20.7987 12.1583 20.7054 12.1417C20.6122 12.1251 20.5161 12.1462 20.4384 12.2004L14.0583 16.6507L9.21416 13.9204V12.5975L13.9031 15.2403C13.9617 15.2733 14.0284 15.2891 14.0956 15.2859C14.1628 15.2827 14.2277 15.2606 14.2829 15.2222L20.8472 10.6435C20.9249 10.5893 20.9778 10.5064 20.9945 10.4131C21.0111 10.3199 20.99 10.2238 20.9358 10.1461C20.8815 10.0684 20.7987 10.0154 20.7054 9.99881C20.6122 9.9822 20.5161 10.0033 20.4384 10.0575L14.0583 14.5079L9.21416 11.7775V10.4526L13.9031 13.0974ZM16.4753 8.93656L14.7018 10.174C14.4624 10.078 14.2053 10.0347 13.9477 10.0468C13.6902 10.059 13.4382 10.1264 13.209 10.2445L10.8471 8.91284L12.2902 8.05145L14.45 6.76513L16.424 7.88047C16.3409 8.04602 16.302 8.23023 16.3109 8.41525C16.3199 8.60027 16.3765 8.77984 16.4753 8.93656ZM14.0583 12.365L9.42897 9.75548L10.1379 9.33324L13.0388 10.9685C13.0974 11.0015 13.1641 11.0173 13.2313 11.0141C13.2985 11.0109 13.3634 10.9888 13.4186 10.9504C13.5846 10.8355 13.7796 10.7695 13.9813 10.76C14.183 10.7505 14.3833 10.7979 14.5594 10.8967C14.618 10.9301 14.6849 10.9462 14.7522 10.9431C14.8196 10.9401 14.8847 10.9179 14.9399 10.8792L17.2328 9.27905C17.2821 9.24468 17.3219 9.19844 17.3485 9.1446C17.3752 9.09077 17.3878 9.03109 17.3853 8.97108C17.3827 8.91106 17.3651 8.85266 17.334 8.80127C17.3029 8.74988 17.2593 8.70716 17.2074 8.67707C17.1538 8.64713 17.1089 8.60396 17.0768 8.55168C17.0448 8.49941 17.0267 8.43978 17.0243 8.3785C17.0212 8.31864 17.0336 8.25901 17.0601 8.20529C17.0867 8.15156 17.1266 8.10553 17.176 8.07158C17.2254 8.03702 17.2653 7.99048 17.2919 7.93633C17.3185 7.88217 17.3309 7.82216 17.328 7.76189C17.3251 7.70163 17.307 7.64308 17.2754 7.59172C17.2437 7.54036 17.1995 7.49786 17.147 7.46819L15.1571 6.34397L15.8684 5.92034L19.9731 8.23968L14.0583 12.365ZM8.71105 9.35064L6.63184 8.17605L11.8348 5.077L13.0692 4.34181L15.151 5.51509L8.71105 9.35064ZM7.3238 6.93041L5.84779 6.09755C5.9393 5.9332 5.98649 5.74787 5.98471 5.55978C5.98294 5.37168 5.93227 5.18728 5.83768 5.02468L7.82569 3.84094C8.04993 3.93223 8.29026 3.97743 8.53234 3.97384C8.77442 3.97024 9.01331 3.91793 9.23474 3.82001L10.9371 4.77997L9.37306 5.71146L7.3238 6.93041ZM8.50475 1.77065L12.3515 3.93762L11.6442 4.35885L9.41819 3.10367C9.36345 3.07243 9.30136 3.05636 9.23834 3.05709C9.17531 3.05783 9.11362 3.07535 9.05962 3.10785C8.89723 3.20589 8.71172 3.25903 8.52206 3.26185C8.3324 3.26467 8.14539 3.21706 7.98017 3.1239C7.92557 3.09339 7.86389 3.07784 7.80136 3.07881C7.73883 3.07979 7.67767 3.09727 7.62406 3.12947L5.08119 4.64385C5.02718 4.676 4.98261 4.72184 4.95199 4.77674C4.92137 4.83164 4.90578 4.89364 4.90681 4.9565C4.90783 5.01935 4.92544 5.08081 4.95783 5.13468C4.99023 5.18855 5.03627 5.23291 5.09131 5.26328C5.14503 5.2924 5.18997 5.33539 5.22144 5.38778C5.2529 5.44016 5.26975 5.50003 5.27023 5.56114C5.27177 5.62528 5.2562 5.68868 5.22513 5.74482C5.19406 5.80096 5.1486 5.84782 5.09343 5.88058C5.04005 5.91285 4.99605 5.95855 4.96582 6.01312C4.93559 6.06769 4.92018 6.12922 4.92114 6.1916C4.92209 6.25397 4.93936 6.31501 4.97125 6.36863C5.00313 6.42225 5.0485 6.46658 5.10285 6.49721L6.61785 7.35241L5.91054 7.77368L2.06883 5.60646L8.50475 1.77065ZM6.35701 12.3064V8.84082L8.49987 10.0498V13.5173L6.35701 12.3064Z"/>
</mask>
<path d="M13.9031 13.0974C13.9617 13.1305 14.0284 13.1463 14.0956 13.1431C14.1628 13.1399 14.2277 13.1178 14.2829 13.0793L20.8472 8.50059C20.8967 8.46602 20.9366 8.41946 20.9633 8.36527C20.99 8.31107 21.0024 8.251 20.9996 8.19067C20.9967 8.13034 20.9786 8.07172 20.947 8.02028C20.9153 7.96884 20.8712 7.92626 20.8186 7.89652L8.67531 1.04659C8.62063 1.01536 8.55861 0.999288 8.49565 1.00002C8.43268 1.00076 8.37106 1.01828 8.31712 1.05078L1.17423 5.30794C1.12134 5.34066 1.0778 5.3865 1.04785 5.441C1.0179 5.49551 1.00254 5.55683 1.00328 5.61902C1.00401 5.68121 1.02081 5.74216 1.05205 5.79594C1.08329 5.84972 1.1279 5.89452 1.18155 5.92597L5.64272 8.44239V9.76131L1.53207 7.44659C1.44956 7.40015 1.35198 7.3884 1.26081 7.41391C1.16963 7.43941 1.09232 7.5001 1.04588 7.58261C0.999449 7.66512 0.987693 7.7627 1.0132 7.85387C1.03871 7.94505 1.0994 8.02236 1.18191 8.0688L5.64272 10.5807V11.9042L1.53207 9.58945C1.44956 9.54302 1.35198 9.53126 1.26081 9.55677C1.16963 9.58228 1.09232 9.64297 1.04588 9.72548C0.999449 9.80799 0.987693 9.90556 1.0132 9.99674C1.03871 10.0879 1.0994 10.1652 1.18191 10.2117L13.9031 17.3831C13.9617 17.4161 14.0284 17.432 14.0956 17.4288C14.1628 17.4255 14.2277 17.4034 14.2829 17.365L20.8472 12.7863C20.9249 12.7321 20.9778 12.6493 20.9945 12.556C21.0111 12.4627 20.99 12.3667 20.9358 12.289C20.8815 12.2113 20.7987 12.1583 20.7054 12.1417C20.6122 12.1251 20.5161 12.1462 20.4384 12.2004L14.0583 16.6507L9.21416 13.9204V12.5975L13.9031 15.2403C13.9617 15.2733 14.0284 15.2891 14.0956 15.2859C14.1628 15.2827 14.2277 15.2606 14.2829 15.2222L20.8472 10.6435C20.9249 10.5893 20.9778 10.5064 20.9945 10.4131C21.0111 10.3199 20.99 10.2238 20.9358 10.1461C20.8815 10.0684 20.7987 10.0154 20.7054 9.99881C20.6122 9.9822 20.5161 10.0033 20.4384 10.0575L14.0583 14.5079L9.21416 11.7775V10.4526L13.9031 13.0974ZM16.4753 8.93656L14.7018 10.174C14.4624 10.078 14.2053 10.0347 13.9477 10.0468C13.6902 10.059 13.4382 10.1264 13.209 10.2445L10.8471 8.91284L12.2902 8.05145L14.45 6.76513L16.424 7.88047C16.3409 8.04602 16.302 8.23023 16.3109 8.41525C16.3199 8.60027 16.3765 8.77984 16.4753 8.93656ZM14.0583 12.365L9.42897 9.75548L10.1379 9.33324L13.0388 10.9685C13.0974 11.0015 13.1641 11.0173 13.2313 11.0141C13.2985 11.0109 13.3634 10.9888 13.4186 10.9504C13.5846 10.8355 13.7796 10.7695 13.9813 10.76C14.183 10.7505 14.3833 10.7979 14.5594 10.8967C14.618 10.9301 14.6849 10.9462 14.7522 10.9431C14.8196 10.9401 14.8847 10.9179 14.9399 10.8792L17.2328 9.27905C17.2821 9.24468 17.3219 9.19844 17.3485 9.1446C17.3752 9.09077 17.3878 9.03109 17.3853 8.97108C17.3827 8.91106 17.3651 8.85266 17.334 8.80127C17.3029 8.74988 17.2593 8.70716 17.2074 8.67707C17.1538 8.64713 17.1089 8.60396 17.0768 8.55168C17.0448 8.49941 17.0267 8.43978 17.0243 8.3785C17.0212 8.31864 17.0336 8.25901 17.0601 8.20529C17.0867 8.15156 17.1266 8.10553 17.176 8.07158C17.2254 8.03702 17.2653 7.99048 17.2919 7.93633C17.3185 7.88217 17.3309 7.82216 17.328 7.76189C17.3251 7.70163 17.307 7.64308 17.2754 7.59172C17.2437 7.54036 17.1995 7.49786 17.147 7.46819L15.1571 6.34397L15.8684 5.92034L19.9731 8.23968L14.0583 12.365ZM8.71105 9.35064L6.63184 8.17605L11.8348 5.077L13.0692 4.34181L15.151 5.51509L8.71105 9.35064ZM7.3238 6.93041L5.84779 6.09755C5.9393 5.9332 5.98649 5.74787 5.98471 5.55978C5.98294 5.37168 5.93227 5.18728 5.83768 5.02468L7.82569 3.84094C8.04993 3.93223 8.29026 3.97743 8.53234 3.97384C8.77442 3.97024 9.01331 3.91793 9.23474 3.82001L10.9371 4.77997L9.37306 5.71146L7.3238 6.93041ZM8.50475 1.77065L12.3515 3.93762L11.6442 4.35885L9.41819 3.10367C9.36345 3.07243 9.30136 3.05636 9.23834 3.05709C9.17531 3.05783 9.11362 3.07535 9.05962 3.10785C8.89723 3.20589 8.71172 3.25903 8.52206 3.26185C8.3324 3.26467 8.14539 3.21706 7.98017 3.1239C7.92557 3.09339 7.86389 3.07784 7.80136 3.07881C7.73883 3.07979 7.67767 3.09727 7.62406 3.12947L5.08119 4.64385C5.02718 4.676 4.98261 4.72184 4.95199 4.77674C4.92137 4.83164 4.90578 4.89364 4.90681 4.9565C4.90783 5.01935 4.92544 5.08081 4.95783 5.13468C4.99023 5.18855 5.03627 5.23291 5.09131 5.26328C5.14503 5.2924 5.18997 5.33539 5.22144 5.38778C5.2529 5.44016 5.26975 5.50003 5.27023 5.56114C5.27177 5.62528 5.2562 5.68868 5.22513 5.74482C5.19406 5.80096 5.1486 5.84782 5.09343 5.88058C5.04005 5.91285 4.99605 5.95855 4.96582 6.01312C4.93559 6.06769 4.92018 6.12922 4.92114 6.1916C4.92209 6.25397 4.93936 6.31501 4.97125 6.36863C5.00313 6.42225 5.0485 6.46658 5.10285 6.49721L6.61785 7.35241L5.91054 7.77368L2.06883 5.60646L8.50475 1.77065ZM6.35701 12.3064V8.84082L8.49987 10.0498V13.5173L6.35701 12.3064Z" fill="#BBB2CE"/>
<path d="M13.9031 13.0974C13.9617 13.1305 14.0284 13.1463 14.0956 13.1431C14.1628 13.1399 14.2277 13.1178 14.2829 13.0793L20.8472 8.50059C20.8967 8.46602 20.9366 8.41946 20.9633 8.36527C20.99 8.31107 21.0024 8.251 20.9996 8.19067C20.9967 8.13034 20.9786 8.07172 20.947 8.02028C20.9153 7.96884 20.8712 7.92626 20.8186 7.89652L8.67531 1.04659C8.62063 1.01536 8.55861 0.999288 8.49565 1.00002C8.43268 1.00076 8.37106 1.01828 8.31712 1.05078L1.17423 5.30794C1.12134 5.34066 1.0778 5.3865 1.04785 5.441C1.0179 5.49551 1.00254 5.55683 1.00328 5.61902C1.00401 5.68121 1.02081 5.74216 1.05205 5.79594C1.08329 5.84972 1.1279 5.89452 1.18155 5.92597L5.64272 8.44239V9.76131L1.53207 7.44659C1.44956 7.40015 1.35198 7.3884 1.26081 7.41391C1.16963 7.43941 1.09232 7.5001 1.04588 7.58261C0.999449 7.66512 0.987693 7.7627 1.0132 7.85387C1.03871 7.94505 1.0994 8.02236 1.18191 8.0688L5.64272 10.5807V11.9042L1.53207 9.58945C1.44956 9.54302 1.35198 9.53126 1.26081 9.55677C1.16963 9.58228 1.09232 9.64297 1.04588 9.72548C0.999449 9.80799 0.987693 9.90556 1.0132 9.99674C1.03871 10.0879 1.0994 10.1652 1.18191 10.2117L13.9031 17.3831C13.9617 17.4161 14.0284 17.432 14.0956 17.4288C14.1628 17.4255 14.2277 17.4034 14.2829 17.365L20.8472 12.7863C20.9249 12.7321 20.9778 12.6493 20.9945 12.556C21.0111 12.4627 20.99 12.3667 20.9358 12.289C20.8815 12.2113 20.7987 12.1583 20.7054 12.1417C20.6122 12.1251 20.5161 12.1462 20.4384 12.2004L14.0583 16.6507L9.21416 13.9204V12.5975L13.9031 15.2403C13.9617 15.2733 14.0284 15.2891 14.0956 15.2859C14.1628 15.2827 14.2277 15.2606 14.2829 15.2222L20.8472 10.6435C20.9249 10.5893 20.9778 10.5064 20.9945 10.4131C21.0111 10.3199 20.99 10.2238 20.9358 10.1461C20.8815 10.0684 20.7987 10.0154 20.7054 9.99881C20.6122 9.9822 20.5161 10.0033 20.4384 10.0575L14.0583 14.5079L9.21416 11.7775V10.4526L13.9031 13.0974ZM16.4753 8.93656L14.7018 10.174C14.4624 10.078 14.2053 10.0347 13.9477 10.0468C13.6902 10.059 13.4382 10.1264 13.209 10.2445L10.8471 8.91284L12.2902 8.05145L14.45 6.76513L16.424 7.88047C16.3409 8.04602 16.302 8.23023 16.3109 8.41525C16.3199 8.60027 16.3765 8.77984 16.4753 8.93656ZM14.0583 12.365L9.42897 9.75548L10.1379 9.33324L13.0388 10.9685C13.0974 11.0015 13.1641 11.0173 13.2313 11.0141C13.2985 11.0109 13.3634 10.9888 13.4186 10.9504C13.5846 10.8355 13.7796 10.7695 13.9813 10.76C14.183 10.7505 14.3833 10.7979 14.5594 10.8967C14.618 10.9301 14.6849 10.9462 14.7522 10.9431C14.8196 10.9401 14.8847 10.9179 14.9399 10.8792L17.2328 9.27905C17.2821 9.24468 17.3219 9.19844 17.3485 9.1446C17.3752 9.09077 17.3878 9.03109 17.3853 8.97108C17.3827 8.91106 17.3651 8.85266 17.334 8.80127C17.3029 8.74988 17.2593 8.70716 17.2074 8.67707C17.1538 8.64713 17.1089 8.60396 17.0768 8.55168C17.0448 8.49941 17.0267 8.43978 17.0243 8.3785C17.0212 8.31864 17.0336 8.25901 17.0601 8.20529C17.0867 8.15156 17.1266 8.10553 17.176 8.07158C17.2254 8.03702 17.2653 7.99048 17.2919 7.93633C17.3185 7.88217 17.3309 7.82216 17.328 7.76189C17.3251 7.70163 17.307 7.64308 17.2754 7.59172C17.2437 7.54036 17.1995 7.49786 17.147 7.46819L15.1571 6.34397L15.8684 5.92034L19.9731 8.23968L14.0583 12.365ZM8.71105 9.35064L6.63184 8.17605L11.8348 5.077L13.0692 4.34181L15.151 5.51509L8.71105 9.35064ZM7.3238 6.93041L5.84779 6.09755C5.9393 5.9332 5.98649 5.74787 5.98471 5.55978C5.98294 5.37168 5.93227 5.18728 5.83768 5.02468L7.82569 3.84094C8.04993 3.93223 8.29026 3.97743 8.53234 3.97384C8.77442 3.97024 9.01331 3.91793 9.23474 3.82001L10.9371 4.77997L9.37306 5.71146L7.3238 6.93041ZM8.50475 1.77065L12.3515 3.93762L11.6442 4.35885L9.41819 3.10367C9.36345 3.07243 9.30136 3.05636 9.23834 3.05709C9.17531 3.05783 9.11362 3.07535 9.05962 3.10785C8.89723 3.20589 8.71172 3.25903 8.52206 3.26185C8.3324 3.26467 8.14539 3.21706 7.98017 3.1239C7.92557 3.09339 7.86389 3.07784 7.80136 3.07881C7.73883 3.07979 7.67767 3.09727 7.62406 3.12947L5.08119 4.64385C5.02718 4.676 4.98261 4.72184 4.95199 4.77674C4.92137 4.83164 4.90578 4.89364 4.90681 4.9565C4.90783 5.01935 4.92544 5.08081 4.95783 5.13468C4.99023 5.18855 5.03627 5.23291 5.09131 5.26328C5.14503 5.2924 5.18997 5.33539 5.22144 5.38778C5.2529 5.44016 5.26975 5.50003 5.27023 5.56114C5.27177 5.62528 5.2562 5.68868 5.22513 5.74482C5.19406 5.80096 5.1486 5.84782 5.09343 5.88058C5.04005 5.91285 4.99605 5.95855 4.96582 6.01312C4.93559 6.06769 4.92018 6.12922 4.92114 6.1916C4.92209 6.25397 4.93936 6.31501 4.97125 6.36863C5.00313 6.42225 5.0485 6.46658 5.10285 6.49721L6.61785 7.35241L5.91054 7.77368L2.06883 5.60646L8.50475 1.77065ZM6.35701 12.3064V8.84082L8.49987 10.0498V13.5173L6.35701 12.3064Z" stroke="#BBB2CE" stroke-width="0.2" mask="url(#path-1-outside-1)"/>
<path d="M13.8567 8.90784C14.0815 8.90784 14.2638 8.72556 14.2638 8.5007C14.2638 8.27584 14.0815 8.09355 13.8567 8.09355C13.6318 8.09355 13.4495 8.27584 13.4495 8.5007C13.4495 8.72556 13.6318 8.90784 13.8567 8.90784Z" fill="#BBB2CE" stroke="#BBB2CE" stroke-width="0.1"/>
<path d="M7.78537 5.69349C8.01023 5.69349 8.19251 5.5112 8.19251 5.28634C8.19251 5.06148 8.01023 4.8792 7.78537 4.8792C7.56051 4.8792 7.37822 5.06148 7.37822 5.28634C7.37822 5.5112 7.56051 5.69349 7.78537 5.69349Z" fill="#BBB2CE" stroke="#BBB2CE" stroke-width="0.1"/>
</svg>
