<svg width="77" height="72" viewBox="0 0 77 72" fill="none" xmlns="http://www.w3.org/2000/svg">
<path d="M3.80049 51.596H6.82391C7.79162 51.596 8.6986 52.1295 9.19069 52.9886C10.9231 56.0036 13.6945 58.6948 17.2054 60.7727C18.1999 61.361 18.7941 62.3258 18.7941 63.3536V69.6758C18.7941 70.4415 19.4729 71.0624 20.3117 71.0624H28.7089C29.5477 71.0624 30.2265 70.4415 30.2265 69.6758V65.0522C33.5847 65.4883 36.8081 65.4883 40.1634 65.0522V69.6758C40.1634 70.4415 40.8422 71.0624 41.681 71.0624H50.0782C50.917 71.0624 51.5958 70.4415 51.5958 69.6758V61.6467C57.4784 58.6522 61.4 54.1988 62.7538 49.2308C64.2692 50.7391 66.5541 52.1972 69.7386 52.1972C73.4526 52.1972 75.6978 49.3299 76.2773 46.4884C76.9101 43.3753 75.6638 40.6062 73.2451 39.7545C71.1495 39.0179 68.7382 39.7044 67.3807 41.4268C66.1967 42.9332 66.1967 44.7504 67.3822 46.0564C67.9142 46.6441 68.8731 46.7267 69.5193 46.2378C70.164 45.749 70.2529 44.8749 69.7179 44.2853C69.3074 43.8336 69.6705 43.2677 69.8453 43.0456C70.3092 42.4546 71.1999 42.0057 72.1543 42.3422C73.1532 42.6942 73.6437 44.2582 73.2925 45.9806C72.9695 47.569 71.8446 49.424 69.7386 49.424C65.7735 49.424 63.7239 45.9139 63.2892 45.0724C63.023 34.229 50.5346 25.4621 35.1957 25.4621C30.7467 25.4621 26.3421 26.2224 22.3718 27.6685C19.8034 24.1675 16.4525 21.3226 16.2985 21.1926C15.8553 20.8182 15.2076 20.7187 14.6608 20.9407C14.108 21.1614 13.7508 21.6597 13.7508 22.2109V32.5249C11.8154 34.1451 10.2681 35.963 9.1462 37.9353C8.68671 38.745 7.83611 39.2473 6.92607 39.2473H3.80049C2.01325 39.2473 0.559326 40.5758 0.559326 42.2081V48.6345C0.559326 50.2676 2.01325 51.596 3.80049 51.596ZM3.59452 42.2081C3.59452 42.1045 3.68644 42.0205 3.80049 42.0205H6.92607C8.97283 42.0205 10.8565 40.9447 11.8405 39.2135C12.8838 37.3787 14.3703 35.6902 16.2614 34.196C16.5948 33.9325 16.786 33.55 16.786 33.1472V25.6435C17.9835 26.8737 19.3854 28.458 20.4821 30.1188C20.8778 30.7172 21.696 30.9542 22.4029 30.6671C26.2902 29.0761 30.7141 28.2353 35.1957 28.2353C49.0258 28.2353 60.2789 35.9448 60.2789 45.4213C60.2789 51.0686 56.2048 56.3637 49.3815 59.5858C48.8777 59.8234 48.5606 60.2987 48.5606 60.8173V68.2892H43.1986V63.4152C43.1986 63.0015 42.997 62.6095 42.6473 62.3462C42.2975 62.082 41.838 61.9724 41.395 62.0537C37.1993 62.7889 33.1964 62.7889 28.9949 62.0537C28.5503 61.9738 28.0908 62.0841 27.7426 62.3462C27.3929 62.6102 27.1913 63.0015 27.1913 63.4152V68.2892H21.8293V63.3536C21.8293 61.382 20.7178 59.5465 18.8564 58.445C15.7812 56.6258 13.3685 54.2933 11.879 51.7002C10.8609 49.9258 8.92387 48.8228 6.82391 48.8228H3.80049C3.68644 48.8228 3.59452 48.7382 3.59452 48.6345V42.2081Z" fill="#35F0D0"/>
<circle cx="18.8754" cy="41.2332" r="2.6166" fill="#35F0D0"/>
<path d="M30.2153 32.1147C29.3925 32.2103 28.8029 32.955 28.8986 33.7779C28.9943 34.6008 29.739 35.1903 30.5618 35.0946L30.2153 32.1147ZM46.5515 37.4606C47.2359 37.9272 48.1691 37.7507 48.6358 37.0662C49.1025 36.3818 48.9259 35.4486 48.2415 34.9819L46.5515 37.4606ZM30.5618 35.0946C32.3424 34.8875 35.3351 34.7601 38.4248 35.0647C41.5568 35.3734 44.5647 36.106 46.5515 37.4606L48.2415 34.9819C45.623 33.1966 42.0022 32.4028 38.7191 32.0791C35.3939 31.7514 32.1852 31.8856 30.2153 32.1147L30.5618 35.0946Z" fill="#35F0D0"/>
<circle cx="38.7617" cy="11.9273" r="9.48971" stroke="#35F0D0" stroke-width="3"/>
<path d="M41.7184 13.2486C41.7184 13.6324 41.6268 13.9507 41.4436 14.2037C41.2692 14.4566 40.9639 14.7575 40.5278 15.1064C40.1877 15.3768 39.7908 15.5381 39.3373 15.5905C39.3373 15.983 39.3416 16.2185 39.3504 16.297C39.3504 16.3842 39.3198 16.4496 39.2588 16.4932C39.2065 16.5368 39.1367 16.5586 39.0495 16.5586C38.9361 16.5586 38.8314 16.5194 38.7355 16.4409C38.6482 16.3711 38.6046 16.2708 38.6046 16.14C38.6046 15.9917 38.5959 15.8216 38.5785 15.6297C38.3866 15.621 38.2078 15.5861 38.0421 15.5251C37.8764 15.464 37.7368 15.4073 37.6234 15.355C37.5187 15.3026 37.449 15.2678 37.4141 15.2503C37.1001 15.0323 36.8646 14.8578 36.7076 14.727C36.5506 14.5874 36.4241 14.4348 36.3282 14.2691C36.2323 14.1034 36.1843 13.9071 36.1843 13.6804C36.1843 13.4623 36.2323 13.314 36.3282 13.2355C36.4241 13.1483 36.5986 13.1047 36.8515 13.1047C36.9649 13.1047 37.0739 13.1352 37.1786 13.1963C37.2833 13.2573 37.3618 13.3315 37.4141 13.4187C37.7019 13.9333 38.0726 14.2516 38.5261 14.3738C38.5261 14.3214 38.5349 14.0292 38.5523 13.4972C38.5698 12.9652 38.5828 12.4287 38.5916 11.888C38.0944 11.7135 37.7412 11.574 37.5318 11.4693C36.6858 11.0507 36.2628 10.4401 36.2628 9.63771C36.2628 9.29755 36.3805 8.94867 36.616 8.59107C36.8515 8.23347 37.1263 7.98053 37.4403 7.83226C37.5624 7.7712 37.7368 7.70143 37.9636 7.62293C38.1903 7.54443 38.4084 7.47902 38.6177 7.42668C38.6177 7.18247 38.6134 7.00367 38.6046 6.89028C38.6046 6.73328 38.6439 6.62426 38.7224 6.56321C38.8009 6.49343 38.8794 6.45854 38.9579 6.45854C39.1585 6.45854 39.2806 6.52832 39.3242 6.66787C39.3765 6.80742 39.3983 7.04728 39.3896 7.38743C39.6687 7.4136 39.9784 7.51826 40.3185 7.70143C40.711 7.9282 40.9945 8.1288 41.1689 8.30324C41.3521 8.46896 41.4436 8.68265 41.4436 8.94431C41.4436 9.09258 41.3826 9.21469 41.2605 9.31063C41.1384 9.40658 40.9378 9.45455 40.6587 9.45455C40.5366 9.45455 40.3796 9.33244 40.1877 9.08822C40.0132 8.89634 39.878 8.77859 39.7821 8.73498C39.7472 8.72626 39.6905 8.70882 39.612 8.68265C39.5335 8.64776 39.455 8.6216 39.3765 8.60415C39.3765 9.39785 39.3678 10.0564 39.3504 10.5797V10.7759C39.8214 10.9853 40.2095 11.1859 40.5148 11.3777C40.9334 11.6394 41.2387 11.9011 41.4306 12.1627C41.6224 12.4157 41.7184 12.7776 41.7184 13.2486ZM37.5842 9.57229C37.5842 9.74673 37.667 9.91245 37.8327 10.0694C37.9985 10.2177 38.1903 10.3311 38.4084 10.4096L38.6046 10.475V8.59107C38.3168 8.65212 38.0726 8.76551 37.872 8.93123C37.6801 9.09695 37.5842 9.31063 37.5842 9.57229ZM39.3242 14.3607C39.6382 14.2734 39.8911 14.1252 40.083 13.9158C40.2749 13.7065 40.3708 13.4928 40.3708 13.2748C40.3708 12.891 40.0263 12.5421 39.3373 12.2281C39.3286 12.673 39.3242 13.3838 39.3242 14.3607Z" fill="#35F0D0"/>
</svg>
