<svg width="28" height="15" viewBox="0 0 28 15" fill="none" xmlns="http://www.w3.org/2000/svg">
<path d="M12.0301 7.33997C11.1464 6.6914 10.5716 5.64368 10.5716 4.46325C10.5716 2.49884 12.1648 0.9 14.1241 0.9H14.2241V0.90139C16.1377 0.954659 17.6769 2.53191 17.6769 4.46325C17.6769 5.6444 17.1027 6.69172 16.2191 7.33991C17.1403 7.71013 17.9479 8.32075 18.5615 9.10588L18.5616 9.10598C18.7488 9.34616 18.7058 9.69349 18.4664 9.88115C18.2267 10.0692 17.8799 10.0258 17.6928 9.78573C16.8322 8.68437 15.5185 8.04437 14.1241 8.04437C12.7301 8.04437 11.4168 8.68479 10.5563 9.78529L12.0301 7.33997ZM12.0301 7.33997C11.1084 7.71088 10.3025 8.31844 9.68753 9.10543L9.68745 9.10553C9.50024 9.34571 9.54327 9.69304 9.78258 9.8807C10.0223 10.0687 10.369 10.0254 10.5562 9.78541L12.0301 7.33997ZM11.677 4.46325C11.677 3.10472 12.7704 2.00804 14.1241 2.00804C15.4782 2.00804 16.5716 3.10429 16.5716 4.46325C16.5716 5.82128 15.4773 6.91801 14.1241 6.91801C12.7708 6.91801 11.677 5.82131 11.677 4.46325Z" fill="#BBB2CE" stroke="#BBB2CE" stroke-width="0.2"/>
<path d="M1.97853 13.7114C2.56792 11.8111 4.32296 10.5187 6.30581 10.5187C8.2882 10.5187 10.0437 11.8115 10.6331 13.7114C10.7234 14.0029 11.0335 14.1655 11.3242 14.0749C11.6152 13.9841 11.7768 13.6731 11.6867 13.3823L11.6867 13.3822C11.1843 11.7628 9.97367 10.4529 8.41509 9.82093C9.31744 9.15179 9.85823 8.09466 9.85823 6.95592C9.85823 4.99105 8.26507 3.39268 6.30536 3.39268C4.34608 3.39268 2.75294 4.99152 2.75294 6.95592C2.75294 8.09609 3.29386 9.15089 4.19621 9.82085C2.63795 10.4525 1.42731 11.7636 0.924962 13.3822L0.92495 13.3823C0.83481 13.6731 0.996375 13.9841 1.28743 14.0749C1.5781 14.1655 1.88819 14.0029 1.97853 13.7114ZM1.97853 13.7114L1.88302 13.6818L1.97853 13.7114ZM3.85826 6.95592C3.85826 5.59739 4.95168 4.50072 6.30536 4.50072C7.65907 4.50072 8.75291 5.59742 8.75291 6.95592C8.75291 8.31398 7.65907 9.41068 6.30581 9.41068C4.95208 9.41068 3.85826 8.31441 3.85826 6.95592Z" fill="#BBB2CE" stroke="#BBB2CE" stroke-width="0.2"/>
<path d="M26.2712 13.7114L26.2712 13.7114C25.6827 11.8111 23.9259 10.5187 21.9439 10.5187C19.9619 10.5187 18.2047 11.8116 17.6162 13.7114L17.6162 13.7114C17.5259 14.0029 17.2158 14.1655 16.9251 14.0749C16.6341 13.9841 16.4725 13.6731 16.5626 13.3823L26.2712 13.7114ZM26.2712 13.7114C26.3616 14.0029 26.6717 14.1655 26.9623 14.0749C27.2534 13.9841 27.4149 13.6731 27.3248 13.3823M26.2712 13.7114L21.9435 3.39268M21.9435 3.39268C23.9032 3.39268 25.4964 4.99105 25.4964 6.95592C25.4964 8.0966 24.9558 9.15068 24.053 9.82093C25.612 10.4537 26.8224 11.7604 27.3248 13.3823M21.9435 3.39268C19.9833 3.39268 18.3911 4.99108 18.3911 6.95592C18.3911 8.0952 18.9312 9.15121 19.8332 9.82134M21.9435 3.39268L19.8332 9.82134M27.3248 13.3823L27.2293 13.4119M27.3248 13.3823C27.3248 13.3823 27.3248 13.3823 27.3248 13.3823L27.2293 13.4119M27.2293 13.4119C27.3032 13.6505 27.1705 13.9052 26.9326 13.9794C26.6946 14.0536 26.4407 13.9204 26.3667 13.6818M27.2293 13.4119C26.7295 11.7985 25.5163 10.5025 23.9565 9.8901L26.3667 13.6818M26.3667 13.6818C25.7653 11.7397 23.9698 10.4187 21.9439 10.4187C19.9181 10.4187 18.1222 11.7401 17.5207 13.6818C17.4468 13.9204 17.1928 14.0536 16.9549 13.9794L26.3667 13.6818ZM19.8332 9.82134C18.2753 10.4536 17.0642 11.7627 16.5626 13.3823L19.8332 9.82134ZM19.4964 6.95592C19.4964 5.59875 20.5916 4.50072 21.9435 4.50072C23.2976 4.50072 24.391 5.59697 24.391 6.95592C24.391 8.31441 23.2972 9.41068 21.9435 9.41068C20.5907 9.41068 19.4964 8.31397 19.4964 6.95592Z" fill="#BBB2CE" stroke="#BBB2CE" stroke-width="0.2"/>
</svg>
