<svg width="89" height="60" viewBox="0 0 89 60" fill="none" xmlns="http://www.w3.org/2000/svg">
<path d="M87.1727 36.4185C86.0216 36.1462 84.828 36.1047 83.6608 36.2966C82.4936 36.4885 81.376 36.91 80.3727 37.5365C80.058 37.7351 79.7557 37.9528 79.4677 38.1885C79.838 36.8422 80.084 35.4648 80.2027 34.0735C82.4826 33.8803 84.6027 32.8241 86.1302 31.1206C87.6576 29.4172 88.4773 27.1949 88.4217 24.9075C88.4242 24.7746 88.3991 24.6427 88.3479 24.52C88.2968 24.3973 88.2207 24.2866 88.1246 24.1948C88.0284 24.1031 87.9142 24.0323 87.7893 23.987C87.6643 23.9417 87.5313 23.9228 87.3987 23.9315C86.2167 23.9557 85.0513 24.2141 83.9699 24.6918C82.8885 25.1695 81.9126 25.857 81.0987 26.7145C80.662 27.1727 80.2745 27.6755 79.9427 28.2145C79.8487 27.6739 79.7357 27.1342 79.6037 26.5955C80.8338 24.6036 81.2392 22.2107 80.734 19.9247C80.2288 17.6387 78.8527 15.6396 76.8977 14.3515C76.788 14.2794 76.6651 14.2295 76.5361 14.2048C76.4072 14.1802 76.2746 14.1811 76.146 14.2077C76.0174 14.2342 75.8952 14.2859 75.7866 14.3596C75.6779 14.4334 75.5849 14.5278 75.5127 14.6375C74.2579 16.543 73.7752 18.8545 74.1626 21.1029C74.55 23.3513 75.7785 25.368 77.5987 26.7435C77.5987 26.7625 77.5987 26.7815 77.5987 26.8005C77.8064 27.6131 77.966 28.4372 78.0767 29.2685C77.9767 29.1155 77.8767 28.9615 77.7627 28.8135C77.0461 27.8732 76.1501 27.0843 75.1265 26.4926C74.103 25.901 72.9722 25.5182 71.7997 25.3665C71.6695 25.3492 71.5372 25.3578 71.4102 25.3916C71.2833 25.4255 71.1643 25.484 71.0601 25.5639C70.9558 25.6437 70.8682 25.7434 70.8025 25.8571C70.7367 25.9708 70.694 26.0963 70.6767 26.2265C70.3753 28.4972 70.9528 30.7972 72.2912 32.6561C73.6296 34.515 75.6277 35.7922 77.8767 36.2265C77.4917 38.1688 76.8303 40.0459 75.9127 41.8005C75.7082 40.1335 75.0414 38.557 73.9876 37.2493C72.9338 35.9415 71.5351 34.9548 69.9497 34.4005C69.6993 34.3133 69.4246 34.3292 69.1859 34.4445C68.9472 34.5598 68.764 34.7652 68.6767 35.0155C67.9625 37.0617 68.0124 39.2972 68.8172 41.3095C69.622 43.3218 71.1274 44.9752 73.0557 45.9645C72.4188 46.6875 71.7336 47.3664 71.0047 47.9965C69.957 48.8989 68.8228 49.6957 67.6187 50.3755C68.4878 48.6593 68.7852 46.7101 68.4672 44.8128C68.1493 42.9155 67.2328 41.1697 65.8517 39.8305C65.6568 39.6527 65.4035 39.5524 65.1397 39.5485C64.8759 39.5523 64.6243 39.6601 64.4397 39.8485C62.8843 41.4607 61.9852 43.5945 61.9179 45.8337C61.8506 48.0729 62.6199 50.2568 64.0757 51.9595C62.8891 52.3682 61.6682 52.6694 60.4277 52.8595C60.1781 52.8969 59.9518 53.0272 59.7943 53.2244C59.6368 53.4216 59.5597 53.671 59.5784 53.9227C59.5971 54.1744 59.7103 54.4097 59.8953 54.5814C60.0803 54.7531 60.3233 54.8485 60.5757 54.8485C60.6259 54.8485 60.6761 54.8445 60.7257 54.8365C61.8215 54.6711 62.9037 54.4258 63.9637 54.1025C64.8378 56.2403 66.5033 57.9583 68.6129 58.8984C70.7226 59.8385 73.1136 59.9281 75.2877 59.1485C75.5374 59.0592 75.7414 58.8744 75.8548 58.6348C75.9683 58.3951 75.9819 58.1202 75.8927 57.8705C75.3448 56.3417 74.3938 54.9895 73.1402 53.957C71.8866 52.9245 70.3772 52.2502 68.7717 52.0055C69.5743 51.5456 70.3483 51.0377 71.0897 50.4845C72.6738 51.7588 74.6457 52.4535 76.6787 52.4535C76.8787 52.4535 77.0847 52.4465 77.2887 52.4325C78.4687 52.3574 79.622 52.0489 80.6819 51.525C81.7418 51.0012 82.6874 50.2723 83.4637 49.3805C83.6383 49.1809 83.7265 48.9202 83.7089 48.6556C83.6913 48.3909 83.5693 48.1442 83.3697 47.9695C82.3286 47.0596 81.0914 46.4024 79.7546 46.0491C78.4178 45.6957 77.0175 45.6559 75.6627 45.9325C76.0857 45.3735 76.4717 44.7935 76.8387 44.2025C76.922 44.2572 77.013 44.299 77.1087 44.3265C77.786 44.485 78.4792 44.5652 79.1747 44.5655C81.2025 44.5597 83.1691 43.87 84.7563 42.6078C86.3434 41.3457 87.4584 39.5849 87.9207 37.6105C87.9807 37.3525 87.9358 37.0812 87.7959 36.8562C87.6561 36.6312 87.4326 36.4709 87.1747 36.4105L87.1727 36.4185ZM74.0477 31.6695C73.1423 30.4944 72.6363 29.0606 72.6037 27.5775C74.0259 27.9976 75.2782 28.8581 76.1803 30.0351C77.0823 31.2121 77.5877 32.645 77.6237 34.1275C76.2001 33.7105 74.9471 32.8493 74.0477 31.6695V31.6695ZM70.8747 41.0195C70.225 39.6856 70.0193 38.1788 70.2877 36.7195C71.5938 37.4198 72.6448 38.5154 73.2901 39.8496C73.9353 41.1837 74.1417 42.6879 73.8797 44.1465C72.5701 43.4514 71.5171 42.3557 70.8747 41.0195V41.0195ZM65.1817 42.0815C66.0725 43.2656 66.5655 44.7013 66.5901 46.1828C66.6147 47.6643 66.1696 49.1155 65.3187 50.3285C64.428 49.1445 63.9349 47.7088 63.9103 46.2273C63.8857 44.7458 64.3308 43.2945 65.1817 42.0815V42.0815ZM73.5647 57.5605C72.1079 57.8366 70.6011 57.6435 69.2609 57.0091C67.9208 56.3746 66.8164 55.3314 66.1067 54.0295C67.5635 53.7537 69.0702 53.947 70.4103 54.5814C71.7504 55.2159 72.8547 56.2589 73.5647 57.5605ZM82.5477 28.1005C83.5683 27.0245 84.9067 26.3037 86.3667 26.0435C86.1689 27.5129 85.5108 28.8819 84.4868 29.9541C83.4628 31.0262 82.1255 31.7465 80.6667 32.0115C80.8603 30.5405 81.5194 29.1701 82.5477 28.1005ZM76.1807 21.0005C75.8757 19.5492 76.0436 18.0385 76.6597 16.6895C77.7556 17.6872 78.5075 19.0062 78.8077 20.4576C79.1079 21.9089 78.9409 23.4179 78.3307 24.7685C77.2303 23.7741 76.4769 22.4538 76.1807 21.0005V21.0005ZM81.1807 48.8295C80.0429 49.7794 78.6332 50.3441 77.1542 50.4424C75.6753 50.5407 74.2032 50.1675 72.9497 49.3765C74.0885 48.4284 75.4982 47.865 76.9768 47.7673C78.4554 47.6696 79.927 48.0425 81.1807 48.8325V48.8295ZM82.8487 41.5155C81.5916 42.3016 80.1161 42.6653 78.6377 42.5535C79.1966 41.1814 80.1754 40.0213 81.4339 39.2394C82.6923 38.4574 84.166 38.0938 85.6437 38.2005C85.0896 39.5762 84.1103 40.7388 82.8487 41.5185V41.5155Z" fill="url(#paint0_linear)"/>
<path d="M28.5783 52.8692C27.3377 52.6795 26.1167 52.3782 24.9303 51.9692C26.3872 50.2662 27.1572 48.0815 27.0899 45.8413C27.0226 43.6012 26.1228 41.4666 24.5663 39.8542C24.3816 39.6658 24.13 39.5579 23.8663 39.5542C23.6021 39.5563 23.3482 39.6568 23.1543 39.8362C21.7736 41.1752 20.8574 42.9207 20.5395 44.8175C20.2216 46.7144 20.5186 48.6632 21.3873 50.3792C20.1832 49.6994 19.049 48.9026 18.0013 48.0002C17.2724 47.3701 16.5871 46.6912 15.9503 45.9682C17.8785 44.9788 19.384 43.3255 20.1888 41.3132C20.9936 39.3009 21.0435 37.0654 20.3293 35.0192C20.2419 34.7689 20.0588 34.5635 19.8201 34.4482C19.5814 34.3328 19.3066 34.317 19.0563 34.4042C17.4709 34.9584 16.0722 35.9452 15.0184 37.253C13.9646 38.5607 13.2978 40.1372 13.0933 41.8042C12.1766 40.0527 11.5152 38.179 11.1293 36.2402C13.3783 35.8059 15.3764 34.5286 16.7148 32.6698C18.0532 30.8109 18.6307 28.5108 18.3293 26.2402C18.312 26.11 18.2693 25.9844 18.2035 25.8707C18.1377 25.757 18.0502 25.6574 17.9459 25.5775C17.8416 25.4977 17.7226 25.4392 17.5957 25.4053C17.4688 25.3714 17.3365 25.3629 17.2063 25.3802C16.0338 25.5319 14.903 25.9146 13.8795 26.5063C12.8559 27.098 11.9599 27.8868 11.2433 28.8272C11.1303 28.9752 11.0323 29.1272 10.9293 29.2822C11.04 28.4509 11.1996 27.6268 11.4073 26.8142C11.4123 26.7952 11.4073 26.7762 11.4073 26.7572C13.2275 25.3816 14.456 23.3649 14.8434 21.1166C15.2308 18.8682 14.7481 16.5566 13.4933 14.6512C13.4211 14.5415 13.328 14.447 13.2194 14.3733C13.1107 14.2995 12.9886 14.2479 12.86 14.2213C12.7314 14.1948 12.5988 14.1938 12.4698 14.2185C12.3409 14.2432 12.218 14.293 12.1083 14.3652C10.1548 15.6525 8.77943 17.6499 8.27355 19.934C7.76767 22.2181 8.17108 24.6094 9.39827 26.6012C9.26494 27.1405 9.15194 27.6802 9.05927 28.2202C8.72748 27.6811 8.34002 27.1784 7.90327 26.7202C7.0894 25.8627 6.11351 25.1752 5.0321 24.6975C3.95069 24.2198 2.78525 23.9614 1.60327 23.9372H1.57827C1.31699 23.9371 1.06607 24.0393 0.879176 24.2219C0.692287 24.4045 0.584283 24.653 0.578274 24.9142C0.522709 27.2015 1.34235 29.4238 2.86983 31.1273C4.39731 32.8308 6.51743 33.887 8.79727 34.0802C8.91595 35.4714 9.16198 36.8489 9.53227 38.1952C9.24586 37.9597 8.9453 37.7419 8.63227 37.5432C7.62891 36.9168 6.51135 36.4955 5.34418 36.3036C4.17701 36.1117 2.98337 36.153 1.83227 36.4252C1.57434 36.4856 1.35092 36.6459 1.21105 36.8709C1.07119 37.0959 1.02631 37.3672 1.08627 37.6252C1.5486 39.5996 2.66353 41.3603 4.2507 42.6225C5.83787 43.8846 7.80444 44.5744 9.83227 44.5802C10.5278 44.5798 11.221 44.4997 11.8983 44.3412C11.994 44.3137 12.085 44.2719 12.1683 44.2172C12.5353 44.8082 12.9213 45.3882 13.3443 45.9472C11.9898 45.6695 10.5894 45.7084 9.25239 46.0608C7.91538 46.4133 6.67784 47.0698 5.63627 47.9792C5.43671 48.1538 5.3147 48.4006 5.29707 48.6652C5.27944 48.9298 5.36764 49.1906 5.54227 49.3902C6.31863 50.2819 7.26414 51.0108 8.32408 51.5347C9.38401 52.0586 10.5373 52.367 11.7173 52.4422C11.9213 52.4562 12.1246 52.4632 12.3273 52.4632C14.3603 52.4632 16.3322 51.7685 17.9163 50.4942C18.6565 51.0465 19.4292 51.5537 20.2303 52.0132C18.6253 52.2588 17.1165 52.9336 15.8637 53.9664C14.6108 54.9992 13.6605 56.3515 13.1133 57.8802C13.0241 58.1299 13.0377 58.4048 13.1512 58.6445C13.2646 58.8841 13.4686 59.0689 13.7183 59.1582C15.8924 59.9377 18.2834 59.8481 20.3931 58.9081C22.5027 57.968 24.1682 56.25 25.0423 54.1122C26.1023 54.4355 27.1845 54.6808 28.2803 54.8462C28.3299 54.8541 28.38 54.8581 28.4303 54.8582C28.6827 54.8582 28.9257 54.7628 29.1107 54.5911C29.2957 54.4194 29.4089 54.1841 29.4276 53.9324C29.4463 53.6807 29.3692 53.4312 29.2117 53.2341C29.0541 53.0369 28.8279 52.9065 28.5783 52.8692ZM23.8223 42.0822C24.6732 43.2952 25.1183 44.7465 25.0936 46.228C25.069 47.7095 24.576 49.1451 23.6853 50.3292C22.8343 49.1162 22.3893 47.6649 22.4139 46.1834C22.4385 44.7019 22.9315 43.2663 23.8223 42.0822ZM18.7163 36.7222C18.9802 38.1809 18.7746 39.6858 18.1292 41.0204C17.4837 42.3549 16.4317 43.4504 15.1243 44.1492C14.8623 42.6905 15.0687 41.1864 15.7139 39.8522C16.3592 38.5181 17.4101 37.4224 18.7163 36.7222V36.7222ZM12.8233 30.0362C13.7227 28.8561 14.9762 27.9948 16.4003 27.5782C16.3638 29.0606 15.8583 30.4932 14.9563 31.6702C14.0542 32.8471 12.8022 33.7077 11.3803 34.1282C11.4125 32.6452 11.9182 31.2114 12.8233 30.0362V30.0362ZM6.15527 41.5192C4.89371 40.7394 3.9144 39.5769 3.36027 38.2012C4.83751 38.0976 6.3098 38.4625 7.56765 39.244C8.8255 40.0256 9.80482 41.1839 10.3663 42.5542C8.88816 42.6669 7.41272 42.3043 6.15527 41.5192V41.5192ZM19.7423 57.0102C18.4043 57.6476 16.8977 57.8407 15.4423 57.5612C16.1522 56.2596 17.2566 55.2165 18.5967 54.5821C19.9368 53.9476 21.4435 53.7544 22.9003 54.0302C22.1929 55.3353 21.0862 56.3797 19.7423 57.0102V57.0102ZM12.3423 16.6932C12.9537 18.0435 13.1213 19.5529 12.8211 21.0045C12.5209 22.4561 11.7682 23.7752 10.6713 24.7722C10.0613 23.4214 9.89467 21.9122 10.1952 20.4609C10.4958 19.0096 11.248 17.6907 12.3443 16.6932H12.3423ZM2.63727 26.0392C4.09654 26.3031 5.43451 27.023 6.45874 28.0953C7.48298 29.1677 8.14069 30.5374 8.33727 32.0072C6.87852 31.7422 5.5412 31.0219 4.51717 29.9497C3.49314 28.8776 2.83504 27.5086 2.63727 26.0392V26.0392ZM11.8503 50.4462C10.3701 50.3524 8.95887 49.7872 7.82327 48.8332C9.0771 48.0431 10.549 47.6705 12.0277 47.7687C13.5064 47.867 14.916 48.4311 16.0543 49.3802C14.8034 50.1768 13.3296 50.5505 11.8503 50.4462V50.4462Z" fill="url(#paint1_linear)"/>
<path fill-rule="evenodd" clip-rule="evenodd" d="M32.1779 3.77326C32.0806 2.87765 32.5534 2.77932 32.8019 2.8421C32.8019 2.8421 36.9135 4.58864 45.1244 4.73196C53.3352 4.87528 57.8538 2.90332 57.8538 2.90332C58.1027 2.84175 58.575 2.94239 58.4734 3.83751C58.3717 4.73263 58.2161 7.31887 58.1511 8.5001L62.8766 8.51165C63.457 8.49234 64.5298 8.82658 64.1779 10.318C64.1064 10.6214 64.0013 11.1404 63.8665 11.8068L63.8665 11.8068L63.8665 11.8068C63.1727 15.2351 61.6899 22.5624 59.9152 24.4843C58.668 25.9735 56.9873 26.7155 55.6808 27.0232C54.5925 27.3468 53.4576 27.2899 53.0651 27.2702L53.065 27.2702C53.0088 27.2674 52.9678 27.2653 52.9444 27.2653C52.0707 28.5689 49.8379 31.3863 47.8958 32.2272C47.2627 32.4557 47.2678 32.6857 47.2718 32.8665C47.2721 32.8812 47.2724 32.8956 47.2724 32.9096C47.3719 34.5887 47.7938 38.3453 48.6853 39.9392C48.8036 40.1772 48.8368 40.3581 48.8596 40.4823C48.8845 40.618 48.897 40.6859 48.9944 40.6861L50.1758 40.689C50.3001 40.6893 50.5986 40.6901 50.7969 40.9393C50.903 41.0725 51.0889 41.0694 51.2912 41.0661C51.5621 41.0617 51.8623 41.0568 52.0394 41.3775C52.2291 41.7209 52.1897 42.0876 52.1693 42.2766C52.1649 42.3178 52.1614 42.3505 52.1614 42.3727L54.0267 42.3773C54.2547 42.3778 54.7104 42.4908 54.7093 42.9385L54.7002 46.6692C54.7 46.7372 54.6951 46.7928 54.6912 46.8382C54.6733 47.0422 54.6733 47.0422 55.1967 47.0435L56.8133 47.0474C56.9171 47.0477 57.1242 47.0606 57.1228 47.6078L57.1187 49.2866C57.1184 49.411 57.1178 49.6597 56.5582 49.6583L33.8691 49.6029C33.3095 49.6015 33.3101 49.3528 33.3104 49.2284L33.3145 47.5496C33.3158 47.0025 33.523 46.9905 33.6267 46.9908L35.2434 46.9947C35.7668 46.996 35.7668 46.996 35.7499 46.7919C35.7461 46.7465 35.7415 46.6909 35.7417 46.6229L35.7508 42.8922C35.7519 42.4445 36.2081 42.3337 36.4361 42.3343L38.3015 42.3388C38.3015 42.3166 38.2982 42.2839 38.2939 42.2427C38.2745 42.0536 38.2369 41.6867 38.4283 41.3443C38.607 41.0244 38.9072 41.0308 39.178 41.0365C39.3803 41.0408 39.5662 41.0448 39.6729 40.9121C39.8725 40.6639 40.1709 40.6646 40.2953 40.6649L41.4767 40.6678C41.5741 40.668 41.5869 40.6002 41.6124 40.4646C41.6358 40.3406 41.67 40.1598 41.7894 39.9224C42.6886 38.3328 43.1289 34.5783 43.2366 32.8998C43.2367 32.8858 43.237 32.8715 43.2374 32.8568L43.2374 32.8568L43.2374 32.8568L43.2374 32.8567L43.2374 32.8567C43.2423 32.6759 43.2485 32.4459 42.6165 32.2143C40.6786 31.3639 38.4596 28.5356 37.5923 27.2277C37.5689 27.2277 37.5279 27.2295 37.4716 27.2321L37.4715 27.2321C37.079 27.2499 35.9438 27.3013 34.857 26.9723C33.552 26.6583 31.8751 25.908 30.6352 24.4127C28.8699 22.4822 27.4229 15.1478 26.7459 11.7162L26.7459 11.7161L26.7459 11.7161C26.6143 11.0491 26.5118 10.5295 26.4417 10.2258C26.0971 8.73267 27.1716 8.40368 27.7518 8.42582L32.4774 8.43737C32.4181 7.25583 32.2752 4.66886 32.1779 3.77326ZM29.0248 10.5051C28.2979 10.4924 28.4705 11.3423 28.6018 11.989L28.6019 11.9892C28.6189 12.0731 28.6352 12.1535 28.6488 12.2281C28.7672 12.8788 29.3171 15.5606 30.7638 19.8753C32.2105 24.1899 35.007 24.5039 36.2244 24.1216C35.391 22.3198 33.6324 16.5526 33.278 14.5574C32.9237 12.5622 32.4829 10.5654 31.9642 10.5564L29.0248 10.5051ZM61.9765 12.2459C62.1191 11.6016 62.3066 10.7549 61.5795 10.7549L58.6397 10.7549C58.1209 10.7548 57.6453 12.7436 57.2562 14.7323C56.8671 16.7211 55.0081 22.4567 54.1434 24.2436C55.3539 24.6472 58.1555 24.382 59.6773 20.0933C61.199 15.8045 61.7957 13.1327 61.9254 12.4842C61.9403 12.4097 61.958 12.3295 61.9765 12.2459ZM49.5038 18.9315L45.2656 21.5988L41.0454 18.902L45.2527 25.0367L45.2527 25.0391L45.2536 25.0379L45.2541 25.0388L45.2542 25.037L49.5038 18.9315ZM45.3067 9.9005L45.3067 9.89816L45.3061 9.89933L45.3045 9.89659L45.3045 9.90206L41.0238 17.2169L45.2723 19.8812L45.2723 19.8782L49.5368 17.2448L45.3067 9.9005Z" fill="#FFB636"/>
<path d="M58.2985 3.03394C58.288 4.22775 52.5117 5.14519 45.3966 5.0831C38.2815 5.021 32.3491 3.99988 32.3595 2.80607C32.3699 1.61226 38.3192 0.697841 45.4343 0.759934C52.5494 0.822026 58.3089 1.84013 58.2985 3.03394Z" fill="#FFD469"/>
<path d="M54.5636 7.28844C55.1993 7.28844 55.3129 7.28844 56.4656 6.88496C56.3228 7.65202 55.571 13.4654 55.3129 14.3777C54.6232 16.8156 53.8443 20.5831 52.8345 21.3112C52.6427 21.4495 51.7971 21.3112 51.4823 21.1084C51.1676 20.9057 52.2582 18.8157 53.5838 14.3777C54.3331 9.59387 54.1025 7.51898 54.5636 7.28844Z" fill="#FFCC4E"/>
<defs>
<linearGradient id="paint0_linear" x1="34.0634" y1="59.6743" x2="88.5949" y2="56.4821" gradientUnits="userSpaceOnUse">
<stop stop-color="#4C249F"/>
<stop offset="0.44919" stop-color="#17E1FD"/>
<stop offset="0.765926" stop-color="#FF77E1" stop-opacity="0.9"/>
<stop offset="0.938201" stop-color="#FFF177" stop-opacity="0.9"/>
</linearGradient>
<linearGradient id="paint1_linear" x1="-24.9419" y1="59.6839" x2="29.6008" y2="56.4901" gradientUnits="userSpaceOnUse">
<stop stop-color="#4C249F"/>
<stop offset="0.44919" stop-color="#17E1FD"/>
<stop offset="0.765926" stop-color="#FF77E1" stop-opacity="0.9"/>
<stop offset="0.938201" stop-color="#FFF177" stop-opacity="0.9"/>
</linearGradient>
</defs>
</svg>
