<svg width="24" height="24" viewBox="0 0 24 24" fill="none" xmlns="http://www.w3.org/2000/svg">
<path d="M2.59199 7C2.48021 7 2.36627 6.99068 2.25039 6.9719C1.82048 6.90055 1.50518 6.68775 1.22814 6.46833C0.968405 6.26262 0.923818 5.88431 1.1286 5.62337C1.33336 5.36244 1.70993 5.31765 1.96966 5.52338C2.14951 5.66579 2.29147 5.75913 2.44326 5.78434C2.70793 5.82724 2.91268 5.76202 3.10498 5.57271C3.25497 5.4257 3.40547 5.27006 3.55103 5.11955C3.63993 5.02759 3.7288 4.93569 3.81839 4.84472C4.33765 4.31681 5.0133 4.02359 5.72069 4.01935C6.42952 4.01478 7.10748 4.30032 7.63335 4.82243C7.75915 4.94697 7.8824 5.07464 8.0016 5.1981C8.11677 5.31737 8.22552 5.43003 8.33748 5.54131C8.66411 5.86632 9.10293 5.86623 9.4298 5.54134C9.55173 5.42005 9.6754 5.29217 9.79497 5.16847C9.9195 5.03965 10.0483 4.90645 10.1798 4.77571C11.2167 3.74527 12.8446 3.74217 13.8859 4.76861C14.0665 4.94589 14.2434 5.12945 14.4146 5.30697C14.476 5.37068 14.5375 5.43443 14.5992 5.49799C14.7818 5.68489 14.9858 5.78452 15.1879 5.78482C15.1882 5.78482 15.1885 5.78482 15.1887 5.78482C15.3928 5.78482 15.5998 5.68387 15.7876 5.49282C15.8886 5.38978 15.9891 5.28564 16.0895 5.18155C16.2152 5.05127 16.3451 4.91659 16.476 4.78444C17.5135 3.74214 19.1415 3.73823 20.1833 4.77451C20.3143 4.90474 20.4425 5.0374 20.5666 5.16573C20.6866 5.28988 20.8107 5.41827 20.9333 5.54019C21.2484 5.85413 21.6693 5.86481 22.0059 5.56784C22.2544 5.34854 22.6329 5.37321 22.8511 5.62289C23.0693 5.87257 23.0448 6.25273 22.7963 6.47197C21.9884 7.18468 20.8505 7.15225 20.0903 6.39495C19.9597 6.26509 19.8314 6.13237 19.7074 6.0041C19.5874 5.87992 19.4632 5.75152 19.3407 5.62963C18.7643 5.05632 17.8973 5.05828 17.3241 5.63423C17.1998 5.75971 17.0726 5.89156 16.9496 6.01902C16.8468 6.12554 16.744 6.23209 16.6403 6.33783C16.2281 6.75733 15.7128 6.98809 15.1887 6.98812C15.1879 6.98812 15.1871 6.98812 15.1863 6.98812C14.6636 6.9874 14.1511 6.75709 13.7431 6.33957C13.6791 6.27366 13.6166 6.20886 13.5542 6.14413C13.3811 5.96454 13.2175 5.79493 13.0479 5.62837C12.4686 5.05731 11.5981 5.05885 11.0222 5.6311C10.8992 5.75336 10.7746 5.88226 10.6542 6.00686C10.5306 6.13468 10.4028 6.26686 10.2724 6.39661C9.48011 7.18398 8.28616 7.18383 7.49495 6.39652C7.37446 6.27682 7.25621 6.15433 7.14186 6.03589C7.02199 5.91174 6.90877 5.79448 6.79202 5.67887C6.49528 5.38425 6.12077 5.22262 5.73614 5.22262C5.73339 5.22262 5.73066 5.22262 5.72791 5.22265C5.34047 5.22499 4.96482 5.39123 4.67021 5.69076C4.58295 5.77938 4.49662 5.86866 4.41023 5.95801C4.2592 6.11423 4.10298 6.27577 3.94239 6.43316C3.56232 6.80714 3.10037 6.99997 2.59199 7Z" fill="#BBB2CE"/>
<path d="M2.59199 11C2.48021 11 2.36627 10.9907 2.25039 10.9719C1.82048 10.9005 1.50518 10.6877 1.22814 10.4683C0.968405 10.2626 0.923818 9.88431 1.1286 9.62337C1.33336 9.36244 1.70993 9.31765 1.96966 9.52338C2.14951 9.66579 2.29147 9.75913 2.44326 9.78434C2.70793 9.82724 2.91268 9.76202 3.10498 9.57271C3.25497 9.4257 3.40547 9.27006 3.55103 9.11955C3.63993 9.02759 3.7288 8.93569 3.81839 8.84472C4.33765 8.31681 5.0133 8.02359 5.72069 8.01935C6.42952 8.01478 7.10748 8.30032 7.63335 8.82243C7.75915 8.94697 7.8824 9.07464 8.0016 9.1981C8.11677 9.31737 8.22552 9.43003 8.33748 9.54131C8.66411 9.86632 9.10293 9.86623 9.4298 9.54134C9.55173 9.42005 9.6754 9.29217 9.79497 9.16847C9.9195 9.03965 10.0483 8.90645 10.1798 8.77571C11.2167 7.74527 12.8446 7.74217 13.8859 8.76861C14.0665 8.94589 14.2434 9.12945 14.4146 9.30697C14.476 9.37068 14.5375 9.43443 14.5992 9.49799C14.7818 9.68489 14.9858 9.78452 15.1879 9.78482C15.1882 9.78482 15.1885 9.78482 15.1887 9.78482C15.3928 9.78482 15.5998 9.68387 15.7876 9.49282C15.8886 9.38978 15.9891 9.28564 16.0895 9.18155C16.2152 9.05127 16.3451 8.91659 16.476 8.78444C17.5135 7.74214 19.1415 7.73823 20.1833 8.77451C20.3143 8.90474 20.4425 9.0374 20.5666 9.16573C20.6866 9.28988 20.8107 9.41827 20.9333 9.54019C21.2484 9.85413 21.6693 9.86481 22.0059 9.56784C22.2544 9.34854 22.6329 9.37321 22.8511 9.62289C23.0693 9.87257 23.0448 10.2527 22.7963 10.472C21.9884 11.1847 20.8505 11.1522 20.0903 10.395C19.9597 10.2651 19.8314 10.1324 19.7074 10.0041C19.5874 9.87992 19.4632 9.75152 19.3407 9.62963C18.7643 9.05632 17.8973 9.05828 17.3241 9.63423C17.1998 9.75971 17.0726 9.89156 16.9496 10.019C16.8468 10.1255 16.744 10.2321 16.6403 10.3378C16.2281 10.7573 15.7128 10.9881 15.1887 10.9881C15.1879 10.9881 15.1871 10.9881 15.1863 10.9881C14.6636 10.9874 14.1511 10.7571 13.7431 10.3396C13.6791 10.2737 13.6166 10.2089 13.5542 10.1441C13.3811 9.96454 13.2175 9.79493 13.0479 9.62837C12.4686 9.05731 11.5981 9.05885 11.0222 9.6311C10.8992 9.75336 10.7746 9.88226 10.6542 10.0069C10.5306 10.1347 10.4028 10.2669 10.2724 10.3966C9.48011 11.184 8.28616 11.1838 7.49495 10.3965C7.37446 10.2768 7.25621 10.1543 7.14186 10.0359C7.02199 9.91174 6.90877 9.79448 6.79202 9.67887C6.49528 9.38425 6.12077 9.22262 5.73614 9.22262C5.73339 9.22262 5.73066 9.22262 5.72791 9.22265C5.34047 9.22499 4.96482 9.39123 4.67021 9.69076C4.58295 9.77938 4.49662 9.86866 4.41023 9.95801C4.2592 10.1142 4.10298 10.2758 3.94239 10.4332C3.56232 10.8071 3.10037 11 2.59199 11Z" fill="#BBB2CE"/>
<path d="M2.59199 15C2.48021 15 2.36627 14.9907 2.25039 14.9719C1.82048 14.9005 1.50518 14.6877 1.22814 14.4683C0.968405 14.2626 0.923818 13.8843 1.1286 13.6234C1.33336 13.3624 1.70993 13.3176 1.96966 13.5234C2.14951 13.6658 2.29147 13.7591 2.44326 13.7843C2.70793 13.8272 2.91268 13.762 3.10498 13.5727C3.25497 13.4257 3.40547 13.2701 3.55103 13.1196C3.63993 13.0276 3.7288 12.9357 3.81839 12.8447C4.33765 12.3168 5.0133 12.0236 5.72069 12.0194C6.42952 12.0148 7.10748 12.3003 7.63335 12.8224C7.75915 12.947 7.8824 13.0746 8.0016 13.1981C8.11677 13.3174 8.22552 13.43 8.33748 13.5413C8.66411 13.8663 9.10293 13.8662 9.4298 13.5413C9.55173 13.42 9.6754 13.2922 9.79497 13.1685C9.9195 13.0397 10.0483 12.9064 10.1798 12.7757C11.2167 11.7453 12.8446 11.7422 13.8859 12.7686C14.0665 12.9459 14.2434 13.1295 14.4146 13.307C14.476 13.3707 14.5375 13.4344 14.5992 13.498C14.7818 13.6849 14.9858 13.7845 15.1879 13.7848C15.1882 13.7848 15.1885 13.7848 15.1887 13.7848C15.3928 13.7848 15.5998 13.6839 15.7876 13.4928C15.8886 13.3898 15.9891 13.2856 16.0895 13.1816C16.2152 13.0513 16.3451 12.9166 16.476 12.7844C17.5135 11.7421 19.1415 11.7382 20.1833 12.7745C20.3143 12.9047 20.4425 13.0374 20.5666 13.1657C20.6866 13.2899 20.8107 13.4183 20.9333 13.5402C21.2484 13.8541 21.6693 13.8648 22.0059 13.5678C22.2544 13.3485 22.6329 13.3732 22.8511 13.6229C23.0693 13.8726 23.0448 14.2527 22.7963 14.472C21.9884 15.1847 20.8505 15.1522 20.0903 14.395C19.9597 14.2651 19.8314 14.1324 19.7074 14.0041C19.5874 13.8799 19.4632 13.7515 19.3407 13.6296C18.7643 13.0563 17.8973 13.0583 17.3241 13.6342C17.1998 13.7597 17.0726 13.8916 16.9496 14.019C16.8468 14.1255 16.744 14.2321 16.6403 14.3378C16.2281 14.7573 15.7128 14.9881 15.1887 14.9881C15.1879 14.9881 15.1871 14.9881 15.1863 14.9881C14.6636 14.9874 14.1511 14.7571 13.7431 14.3396C13.6791 14.2737 13.6166 14.2089 13.5542 14.1441C13.3811 13.9645 13.2175 13.7949 13.0479 13.6284C12.4686 13.0573 11.5981 13.0588 11.0222 13.6311C10.8992 13.7534 10.7746 13.8823 10.6542 14.0069C10.5306 14.1347 10.4028 14.2669 10.2724 14.3966C9.48011 15.184 8.28616 15.1838 7.49495 14.3965C7.37446 14.2768 7.25621 14.1543 7.14186 14.0359C7.02199 13.9117 6.90877 13.7945 6.79202 13.6789C6.49528 13.3842 6.12077 13.2226 5.73614 13.2226C5.73339 13.2226 5.73066 13.2226 5.72791 13.2226C5.34047 13.225 4.96482 13.3912 4.67021 13.6908C4.58295 13.7794 4.49662 13.8687 4.41023 13.958C4.2592 14.1142 4.10298 14.2758 3.94239 14.4332C3.56232 14.8071 3.10037 15 2.59199 15Z" fill="#BBB2CE"/>
<path d="M2.59199 19C2.48021 19 2.36627 18.9907 2.25039 18.9719C1.82048 18.9005 1.50518 18.6877 1.22814 18.4683C0.968405 18.2626 0.923818 17.8843 1.1286 17.6234C1.33336 17.3624 1.70993 17.3176 1.96966 17.5234C2.14951 17.6658 2.29147 17.7591 2.44326 17.7843C2.70793 17.8272 2.91268 17.762 3.10498 17.5727C3.25497 17.4257 3.40547 17.2701 3.55103 17.1196C3.63993 17.0276 3.7288 16.9357 3.81839 16.8447C4.33765 16.3168 5.0133 16.0236 5.72069 16.0194C6.42952 16.0148 7.10748 16.3003 7.63335 16.8224C7.75915 16.947 7.8824 17.0746 8.0016 17.1981C8.11677 17.3174 8.22552 17.43 8.33748 17.5413C8.66411 17.8663 9.10293 17.8662 9.4298 17.5413C9.55173 17.42 9.6754 17.2922 9.79497 17.1685C9.9195 17.0397 10.0483 16.9064 10.1798 16.7757C11.2167 15.7453 12.8446 15.7422 13.8859 16.7686C14.0665 16.9459 14.2434 17.1295 14.4146 17.307C14.476 17.3707 14.5375 17.4344 14.5992 17.498C14.7818 17.6849 14.9858 17.7845 15.1879 17.7848C15.1882 17.7848 15.1885 17.7848 15.1887 17.7848C15.3928 17.7848 15.5998 17.6839 15.7876 17.4928C15.8886 17.3898 15.9891 17.2856 16.0895 17.1816C16.2152 17.0513 16.3451 16.9166 16.476 16.7844C17.5135 15.7421 19.1415 15.7382 20.1833 16.7745C20.3143 16.9047 20.4425 17.0374 20.5666 17.1657C20.6866 17.2899 20.8107 17.4183 20.9333 17.5402C21.2484 17.8541 21.6693 17.8648 22.0059 17.5678C22.2544 17.3485 22.6329 17.3732 22.8511 17.6229C23.0693 17.8726 23.0448 18.2527 22.7963 18.472C21.9884 19.1847 20.8505 19.1522 20.0903 18.395C19.9597 18.2651 19.8314 18.1324 19.7074 18.0041C19.5874 17.8799 19.4632 17.7515 19.3407 17.6296C18.7643 17.0563 17.8973 17.0583 17.3241 17.6342C17.1998 17.7597 17.0726 17.8916 16.9496 18.019C16.8468 18.1255 16.744 18.2321 16.6403 18.3378C16.2281 18.7573 15.7128 18.9881 15.1887 18.9881C15.1879 18.9881 15.1871 18.9881 15.1863 18.9881C14.6636 18.9874 14.1511 18.7571 13.7431 18.3396C13.6791 18.2737 13.6166 18.2089 13.5542 18.1441C13.3811 17.9645 13.2175 17.7949 13.0479 17.6284C12.4686 17.0573 11.5981 17.0588 11.0222 17.6311C10.8992 17.7534 10.7746 17.8823 10.6542 18.0069C10.5306 18.1347 10.4028 18.2669 10.2724 18.3966C9.48011 19.184 8.28616 19.1838 7.49495 18.3965C7.37446 18.2768 7.25621 18.1543 7.14186 18.0359C7.02199 17.9117 6.90877 17.7945 6.79202 17.6789C6.49528 17.3842 6.12077 17.2226 5.73614 17.2226C5.73339 17.2226 5.73066 17.2226 5.72791 17.2226C5.34047 17.225 4.96482 17.3912 4.67021 17.6908C4.58295 17.7794 4.49662 17.8687 4.41023 17.958C4.2592 18.1142 4.10298 18.2758 3.94239 18.4332C3.56232 18.8071 3.10037 19 2.59199 19Z" fill="#BBB2CE"/>
</svg>
