<svg width="15" height="15" viewBox="0 0 15 15" fill="none" xmlns="http://www.w3.org/2000/svg">
<path fill-rule="evenodd" clip-rule="evenodd" d="M13.2305 8.235C13.2614 7.995 13.2845 7.755 13.2845 7.5C13.2845 7.245 13.2614 7.005 13.2305 6.765L14.8574 5.5275C15.0039 5.415 15.0425 5.2125 14.9499 5.0475L13.4079 2.4525C13.3153 2.2875 13.1072 2.2275 12.9375 2.2875L11.0176 3.0375C10.6167 2.7375 10.1849 2.49 9.71459 2.3025L9.42159 0.315C9.39846 0.135 9.23654 0 9.04378 0H5.95962C5.76686 0 5.60495 0.135 5.58181 0.315L5.28882 2.3025C4.81848 2.49 4.3867 2.745 3.98576 3.0375L2.06587 2.2875C1.88853 2.22 1.68806 2.2875 1.59554 2.4525L0.0534577 5.0475C-0.0467775 5.2125 -0.000515075 5.415 0.145983 5.5275L1.77288 6.765C1.74204 7.005 1.7189 7.2525 1.7189 7.5C1.7189 7.7475 1.74204 7.995 1.77288 8.235L0.145983 9.4725C-0.000515075 9.585 -0.0390671 9.7875 0.0534577 9.9525L1.59554 12.5475C1.68806 12.7125 1.89624 12.7725 2.06587 12.7125L3.98576 11.9625C4.3867 12.2625 4.81848 12.51 5.28882 12.6975L5.58181 14.685C5.60495 14.865 5.76686 15 5.95962 15H9.04378C9.23654 15 9.39846 14.865 9.42159 14.685L9.71459 12.6975C10.1849 12.51 10.6167 12.255 11.0176 11.9625L12.9375 12.7125C13.1149 12.78 13.3153 12.7125 13.4079 12.5475L14.9499 9.9525C15.0425 9.7875 15.0039 9.585 14.8574 9.4725L13.2305 8.235ZM7.5 10C8.88071 10 10 8.88071 10 7.5C10 6.11929 8.88071 5 7.5 5C6.11929 5 5 6.11929 5 7.5C5 8.88071 6.11929 10 7.5 10Z" fill="black"/>
</svg>
