<svg width="96" height="95" viewBox="0 0 96 95" fill="none" xmlns="http://www.w3.org/2000/svg">
<path d="M28.5167 66.6924C27.6262 65.8013 27.126 64.593 27.126 63.3332C27.126 62.0734 27.6262 60.8651 28.5167 59.9739C29.254 59.2407 29.8385 58.3685 30.2364 57.4079C30.6343 56.4473 30.8377 55.4173 30.8349 54.3775V53.8332H32.4182C32.8382 53.8332 33.2409 53.6664 33.5378 53.3695C33.8347 53.0725 34.0016 52.6698 34.0016 52.2499V46.9491C43.9492 44.6137 51.4182 35.099 51.4182 23.7499C51.4182 10.6542 41.4743 0 29.2516 0C17.0289 0 7.08496 10.6542 7.08496 23.7499C7.08496 35.099 14.5539 44.6129 24.5016 46.9491V52.2499C24.5016 52.6698 24.6684 53.0725 24.9653 53.3695C25.2623 53.6664 25.665 53.8332 26.0849 53.8332H27.6682V54.3775C27.6645 55.636 27.1648 56.8423 26.2775 57.7347C24.7931 59.2198 23.9593 61.2335 23.9593 63.3332C23.9593 65.4329 24.7931 67.4466 26.2775 68.9316L29.9864 72.6406C30.876 73.5322 31.3756 74.7403 31.3756 75.9998C31.3756 77.2593 30.876 78.4674 29.9864 79.359L26.2775 83.068C25.5422 83.8031 24.9589 84.6759 24.561 85.6365C24.163 86.5971 23.9582 87.6267 23.9582 88.6665C23.9582 89.7062 24.163 90.7358 24.561 91.6964C24.9589 92.657 25.5422 93.5298 26.2775 94.2649L26.5486 94.536C26.6957 94.6831 26.8702 94.7997 27.0623 94.8793C27.2544 94.9589 27.4603 94.9998 27.6682 94.9998C27.8762 94.9998 28.0821 94.9589 28.2742 94.8793C28.4663 94.7997 28.6408 94.6831 28.7879 94.536C28.9349 94.389 29.0515 94.2145 29.1311 94.0224C29.2107 93.8303 29.2516 93.6244 29.2516 93.4164C29.2516 93.2085 29.2107 93.0026 29.1311 92.8105C29.0515 92.6184 28.9349 92.4439 28.7879 92.2968L28.5167 92.0257C28.0755 91.5846 27.7255 91.0609 27.4867 90.4845C27.2479 89.9081 27.125 89.2903 27.125 88.6665C27.125 88.0426 27.2479 87.4248 27.4867 86.8484C27.7255 86.272 28.0755 85.7483 28.5167 85.3072L32.2257 81.5983C33.7082 80.1123 34.5408 78.0989 34.5408 75.9998C34.5408 73.9007 33.7082 71.8873 32.2257 70.4014L28.5167 66.6924ZM10.2516 23.7499C10.2516 12.4002 18.7749 3.16666 29.2516 3.16666C39.7283 3.16666 48.2515 12.4002 48.2515 23.7499C48.2515 35.0996 39.7283 44.3332 29.2516 44.3332C18.7749 44.3332 10.2516 35.0996 10.2516 23.7499ZM29.2516 47.4999C29.784 47.4999 30.3118 47.4785 30.8349 47.4387V50.6665H27.6682V47.4387C28.1913 47.4785 28.7192 47.4999 29.2516 47.4999Z" fill="#35F0D0"/>
<path d="M19.6625 11.9344C19.3365 11.6699 18.9188 11.5457 18.5012 11.589C18.0836 11.6324 17.7004 11.8399 17.4357 12.1658C14.8336 15.4664 13.4185 19.547 13.4185 23.75C13.4185 27.953 14.8336 32.0336 17.4357 35.3342C17.7003 35.6603 18.0836 35.8679 18.5013 35.9114C18.919 35.9548 19.3368 35.8306 19.6629 35.566C19.989 35.3014 20.1966 34.9181 20.24 34.5004C20.2835 34.0828 20.1593 33.6649 19.8946 33.3389C17.7502 30.6025 16.5849 27.2263 16.5849 23.7498C16.5849 20.2733 17.7502 16.8971 19.8946 14.1608C20.159 13.8347 20.283 13.417 20.2394 12.9995C20.1959 12.5821 19.9884 12.1989 19.6625 11.9344Z" fill="#35F0D0"/>
<path d="M92.5847 52.2499C92.5847 39.1542 82.6408 28.5 70.4181 28.5C58.1954 28.5 48.2515 39.1542 48.2515 52.2499C48.2515 63.599 55.7204 73.1129 65.6681 75.4491V80.7499C65.6681 81.1698 65.8349 81.5725 66.1318 81.8695C66.4288 82.1664 66.8315 82.3332 67.2514 82.3332H68.8347V84.4608C68.831 85.7193 68.3313 86.9256 67.444 87.8181C66.7066 88.5516 66.1221 89.4241 65.7241 90.3851C65.3262 91.3461 65.1229 92.3764 65.1258 93.4165C65.1258 93.8364 65.2926 94.2392 65.5895 94.5361C65.8865 94.833 66.2892 94.9998 66.7091 94.9998C67.1291 94.9998 67.5318 94.833 67.8287 94.5361C68.1256 94.2392 68.2925 93.8364 68.2925 93.4165C68.2906 92.7924 68.4126 92.1742 68.6513 91.5976C68.8901 91.021 69.2408 90.4974 69.6832 90.0573C70.4205 89.324 71.005 88.4519 71.4029 87.4912C71.8008 86.5306 72.0042 85.5006 72.0014 84.4608V82.3332H73.5847C74.0047 82.3332 74.4074 82.1664 74.7043 81.8695C75.0012 81.5725 75.1681 81.1698 75.1681 80.7499V75.4491C85.1157 73.1129 92.5847 63.599 92.5847 52.2499ZM51.4181 52.2499C51.4181 40.9002 59.9414 31.6667 70.4181 31.6667C80.8948 31.6667 89.418 40.9002 89.418 52.2499C89.418 63.5996 80.8948 72.8332 70.4181 72.8332C59.9414 72.8332 51.4181 63.5996 51.4181 52.2499ZM72.0014 79.1665H68.8347V75.9387C69.3578 75.9783 69.8857 75.9999 70.4181 75.9999C70.9505 75.9999 71.4783 75.9785 72.0014 75.9387V79.1665Z" fill="#35F0D0"/>
<path d="M5.50194 9.49998C6.4414 9.49998 7.35976 9.2214 8.14089 8.69946C8.92203 8.17753 9.53084 7.43568 9.89036 6.56773C10.2499 5.69979 10.3439 4.74472 10.1607 3.82331C9.97738 2.90191 9.52499 2.05554 8.86069 1.39124C8.19639 0.726944 7.35003 0.274551 6.42862 0.0912718C5.50721 -0.0920075 4.55215 0.0020581 3.6842 0.361573C2.81625 0.721089 2.07441 1.32991 1.55247 2.11104C1.03054 2.89217 0.751953 3.81053 0.751953 4.74999C0.75342 6.00932 1.25433 7.21664 2.14481 8.10712C3.03529 8.9976 4.24262 9.49851 5.50194 9.49998ZM5.50194 3.16666C5.81509 3.16666 6.12121 3.25952 6.38159 3.4335C6.64197 3.60748 6.84491 3.85476 6.96475 4.14408C7.08459 4.43339 7.11594 4.75175 7.05485 5.05888C6.99375 5.36602 6.84296 5.64814 6.62152 5.86957C6.40009 6.09101 6.11797 6.2418 5.81083 6.3029C5.5037 6.36399 5.18534 6.33263 4.89603 6.2128C4.60671 6.09296 4.35943 5.89002 4.18545 5.62964C4.01147 5.36926 3.91861 5.06314 3.91861 4.74999C3.91908 4.33021 4.08605 3.92776 4.38288 3.63093C4.67971 3.3341 5.08216 3.16713 5.50194 3.16666Z" fill="#35F0D0"/>
<path d="M86.4431 9.96385L76.9432 0.463874C76.7961 0.31681 76.6216 0.200151 76.4295 0.120558C76.2373 0.040966 76.0314 0 75.8235 0C75.6155 0 75.4096 0.040966 75.2175 0.120558C75.0253 0.200151 74.8508 0.31681 74.7037 0.463874L70.2255 4.94212C70.0785 5.08915 69.9618 5.2637 69.8823 5.4558C69.8027 5.64791 69.7617 5.8538 69.7617 6.06174C69.7617 6.26967 69.8027 6.47556 69.8823 6.66767C69.9618 6.85977 70.0785 7.03432 70.2255 7.18135L79.7255 16.6813C79.8725 16.8284 80.0471 16.945 80.2392 17.0246C80.4313 17.1042 80.6372 17.1452 80.8452 17.1452C81.0531 17.1452 81.2591 17.1042 81.4512 17.0246C81.6433 16.945 81.8179 16.8284 81.9649 16.6813L86.4431 12.2031C86.5902 12.056 86.7068 11.8815 86.7864 11.6894C86.866 11.4973 86.9069 11.2914 86.9069 11.0835C86.9069 10.8755 86.866 10.6696 86.7864 10.4775C86.7068 10.2854 86.5902 10.1109 86.4431 9.96385ZM80.8453 13.3225L73.5843 6.06174L75.8234 3.82251L83.0843 11.0835L80.8453 13.3225Z" fill="#35F0D0"/>
<path d="M91.0015 28.5C91.9409 28.5 92.8593 28.2214 93.6404 27.6995C94.4215 27.1775 95.0304 26.4357 95.3899 25.5677C95.7494 24.6998 95.8435 23.7447 95.6602 22.8233C95.4769 21.9019 95.0245 21.0555 94.3602 20.3912C93.6959 19.7269 92.8495 19.2746 91.9281 19.0913C91.0067 18.908 90.0517 19.0021 89.1837 19.3616C88.3158 19.7211 87.5739 20.3299 87.052 21.111C86.53 21.8922 86.2515 22.8105 86.2515 23.75C86.2529 25.0093 86.7538 26.2166 87.6443 27.1071C88.5348 27.9976 89.7421 28.4985 91.0015 28.5ZM91.0015 22.1667C91.3146 22.1667 91.6207 22.2595 91.8811 22.4335C92.1415 22.6075 92.3444 22.8548 92.4643 23.1441C92.5841 23.4334 92.6155 23.7517 92.5544 24.0589C92.4933 24.366 92.3425 24.6481 92.121 24.8696C91.8996 25.091 91.6175 25.2418 91.3103 25.3029C91.0032 25.364 90.6849 25.3326 90.3955 25.2128C90.1062 25.093 89.8589 24.89 89.685 24.6296C89.511 24.3693 89.4181 24.0631 89.4181 23.75C89.4186 23.3302 89.5856 22.9278 89.8824 22.6309C90.1792 22.3341 90.5817 22.1671 91.0015 22.1667Z" fill="#35F0D0"/>
<path d="M63.6208 14.058L59.1425 18.5363C58.8455 18.8333 58.6787 19.236 58.6787 19.656C58.6787 20.076 58.8455 20.4787 59.1425 20.7757C59.4395 21.0727 59.8422 21.2395 60.2622 21.2395C60.6822 21.2395 61.085 21.0727 61.3819 20.7757L65.8602 16.2975C66.0072 16.1504 66.1239 15.9759 66.2034 15.7837C66.283 15.5916 66.324 15.3857 66.324 15.1777C66.324 14.9698 66.283 14.7639 66.2034 14.5718C66.1239 14.3796 66.0072 14.2051 65.8602 14.058C65.7131 13.911 65.5386 13.7944 65.3465 13.7148C65.1543 13.6352 64.9484 13.5942 64.7405 13.5942C64.5325 13.5942 64.3266 13.6352 64.1345 13.7148C63.9424 13.7944 63.7678 13.911 63.6208 14.058Z" fill="#35F0D0"/>
<path d="M4.84561 44.9891C4.99264 45.1361 5.16719 45.2528 5.35929 45.3323C5.55139 45.4119 5.75729 45.4529 5.96522 45.4529C6.17316 45.4529 6.37905 45.4119 6.57116 45.3323C6.76326 45.2528 6.93781 45.1361 7.08484 44.9891L9.32406 42.7499C9.47109 42.6028 9.58772 42.4283 9.66729 42.2362C9.74686 42.0441 9.78782 41.8382 9.78782 41.6302C9.78782 41.4223 9.74686 41.2164 9.66729 41.0243C9.58772 40.8322 9.47109 40.6577 9.32406 40.5106C9.17703 40.3636 9.00248 40.247 8.81038 40.1674C8.61827 40.0878 8.41238 40.0469 8.20445 40.0469C7.99652 40.0469 7.79062 40.0878 7.59852 40.1674C7.40641 40.247 7.23186 40.3636 7.08484 40.5106L4.84561 42.7499C4.69858 42.8969 4.58194 43.0714 4.50237 43.2635C4.42279 43.4556 4.38184 43.6615 4.38184 43.8695C4.38184 44.0774 4.42279 44.2833 4.50237 44.4754C4.58194 44.6675 4.69858 44.8421 4.84561 44.9891Z" fill="#35F0D0"/>
<path d="M11.8348 71.2499C12.0428 71.2502 12.2488 71.2094 12.4409 71.1298C12.6331 71.0502 12.8076 70.9335 12.9544 70.7862L17.4327 66.308C17.5797 66.1609 17.6964 65.9864 17.7759 65.7943C17.8555 65.6022 17.8965 65.3963 17.8965 65.1883C17.8965 64.9804 17.8555 64.7745 17.7759 64.5824C17.6964 64.3903 17.5797 64.2158 17.4327 64.0687L7.93271 54.5688C7.78569 54.4217 7.61114 54.3051 7.41903 54.2255C7.22693 54.1459 7.02103 54.105 6.8131 54.105C6.60517 54.105 6.39927 54.1459 6.20717 54.2255C6.01506 54.3051 5.84052 54.4217 5.69349 54.5688L1.21524 59.047C1.06821 59.194 0.951571 59.3686 0.871996 59.5607C0.792422 59.7528 0.751465 59.9587 0.751465 60.1666C0.751465 60.3745 0.792422 60.5804 0.871996 60.7725C0.951571 60.9647 1.06821 61.1392 1.21524 61.2862L10.7152 70.7862C10.8621 70.9335 11.0366 71.0502 11.2287 71.1298C11.4209 71.2094 11.6269 71.2502 11.8348 71.2499ZM6.8131 57.9276L14.0739 65.1883L11.8348 67.4276L4.57388 60.1666L6.8131 57.9276Z" fill="#35F0D0"/>
<path d="M13.418 82.3335C12.4785 82.3335 11.5601 82.6121 10.779 83.134C9.99787 83.656 9.38906 84.3978 9.02954 85.2657C8.67003 86.1337 8.57596 87.0888 8.75924 88.0102C8.94252 88.9316 9.39491 89.7779 10.0592 90.4422C10.7235 91.1065 11.5699 91.5589 12.4913 91.7422C13.4127 91.9255 14.3678 91.8314 15.2357 91.4719C16.1036 91.1124 16.8455 90.5036 17.3674 89.7224C17.8894 88.9413 18.1679 88.0229 18.1679 87.0835C18.1665 85.8242 17.6656 84.6168 16.7751 83.7264C15.8846 82.8359 14.6773 82.335 13.418 82.3335ZM13.418 88.6668C13.1048 88.6668 12.7987 88.574 12.5383 88.4C12.2779 88.226 12.075 87.9787 11.9552 87.6894C11.8353 87.4001 11.804 87.0817 11.8651 86.7746C11.9261 86.4675 12.0769 86.1853 12.2984 85.9639C12.5198 85.7425 12.8019 85.5917 13.1091 85.5306C13.4162 85.4695 13.7346 85.5008 14.0239 85.6207C14.3132 85.7405 14.5605 85.9435 14.7344 86.2038C14.9084 86.4642 15.0013 86.7703 15.0013 87.0835C15.0008 87.5033 14.8339 87.9057 14.537 88.2025C14.2402 88.4994 13.8377 88.6663 13.418 88.6668Z" fill="#35F0D0"/>
<path d="M43.6937 65.1092C43.8407 64.9622 43.9574 64.7876 44.037 64.5955C44.1166 64.4034 44.1576 64.1975 44.1576 63.9895C44.1576 63.7815 44.1166 63.5756 44.037 63.3835C43.9574 63.1914 43.8407 63.0168 43.6937 62.8698L39.2154 58.3915C38.9185 58.0946 38.5157 57.9277 38.0957 57.9277C37.6757 57.9277 37.273 58.0946 36.976 58.3915C36.679 58.6885 36.5122 59.0913 36.5122 59.5112C36.5122 59.9312 36.679 60.334 36.976 60.631L41.4543 65.1092C41.6013 65.2563 41.7758 65.3729 41.968 65.4525C42.1601 65.5321 42.366 65.5731 42.574 65.5731C42.7819 65.5731 42.9878 65.5321 43.18 65.4525C43.3721 65.3729 43.5466 65.2563 43.6937 65.1092Z" fill="#35F0D0"/>
<path d="M49.3706 80.1737C49.2236 80.0267 49.049 79.9101 48.8569 79.8305C48.6648 79.7509 48.4589 79.71 48.251 79.71C48.0431 79.71 47.8372 79.7509 47.6451 79.8305C47.453 79.9101 47.2784 80.0267 47.1314 80.1737L42.6531 84.6522C42.3562 84.9491 42.1895 85.3518 42.1895 85.7717C42.1895 86.1916 42.3562 86.5943 42.6531 86.8912L47.1314 91.3695C47.2784 91.5165 47.453 91.6331 47.6451 91.7127C47.8372 91.7923 48.0431 91.8332 48.251 91.8332C48.4589 91.8332 48.6648 91.7923 48.8569 91.7127C49.049 91.6331 49.2236 91.5165 49.3706 91.3695L53.8489 86.8912C54.1457 86.5943 54.3125 86.1916 54.3125 85.7717C54.3125 85.3518 54.1457 84.9491 53.8489 84.6522L49.3706 80.1737ZM48.251 88.0108L46.012 85.7716L48.251 83.5324L50.49 85.7716L48.251 88.0108Z" fill="#35F0D0"/>
<path d="M90.8094 75.1523C90.6624 75.0052 90.4878 74.8886 90.2957 74.809C90.1036 74.7294 89.8977 74.6885 89.6898 74.6885C89.4819 74.6885 89.276 74.7294 89.0839 74.809C88.8918 74.8886 88.7172 75.0052 88.5702 75.1523L79.0702 84.6522C78.9232 84.7993 78.8066 84.9738 78.727 85.1659C78.6474 85.358 78.6064 85.5639 78.6064 85.7718C78.6064 85.9798 78.6474 86.1857 78.727 86.3778C78.8066 86.5699 78.9232 86.7444 79.0702 86.8915L83.5485 91.3697C83.6955 91.5167 83.87 91.6334 84.0622 91.7129C84.2543 91.7925 84.4601 91.8335 84.6681 91.8335C84.876 91.8335 85.0819 91.7925 85.274 91.7129C85.4661 91.6334 85.6407 91.5167 85.7877 91.3697L95.2877 81.8697C95.4347 81.7227 95.5513 81.5481 95.6309 81.356C95.7105 81.1639 95.7514 80.958 95.7514 80.7501C95.7514 80.5422 95.7105 80.3363 95.6309 80.1442C95.5513 79.9521 95.4347 79.7775 95.2877 79.6305L90.8094 75.1523ZM84.6681 88.0111L82.4291 85.7718L89.6898 78.5111L91.929 80.7501L84.6681 88.0111Z" fill="#35F0D0"/>
<path d="M52.3456 0.927643C52.1986 1.07467 52.0819 1.24922 52.0024 1.44132C51.9228 1.63343 51.8818 1.83932 51.8818 2.04725C51.8818 2.25519 51.9228 2.46108 52.0024 2.65319C52.0819 2.84529 52.1986 3.01984 52.3456 3.16687L54.5848 5.40609C54.7319 5.55312 54.9064 5.66975 55.0985 5.74932C55.2906 5.82889 55.4965 5.86985 55.7044 5.86985C55.9124 5.86985 56.1183 5.82889 56.3104 5.74932C56.5025 5.66975 56.677 5.55312 56.8241 5.40609C56.9711 5.25906 57.0877 5.08451 57.1673 4.89241C57.2469 4.7003 57.2878 4.49441 57.2878 4.28648C57.2878 4.07855 57.2469 3.87265 57.1673 3.68055C57.0877 3.48845 56.9711 3.3139 56.8241 3.16687L54.5848 0.927643C54.4378 0.780608 54.2633 0.663974 54.0712 0.584399C53.8791 0.504824 53.6732 0.463867 53.4652 0.463867C53.2573 0.463867 53.0514 0.504824 52.8593 0.584399C52.6672 0.663974 52.4926 0.780608 52.3456 0.927643Z" fill="#35F0D0"/>
<path d="M60.8294 40.931C60.6679 40.8 60.4823 40.7021 60.283 40.6428C60.0836 40.5836 59.8746 40.5641 59.6678 40.5857C59.461 40.6072 59.2605 40.6692 59.0776 40.7682C58.8948 40.8673 58.7333 41.0013 58.6022 41.1628C56.0001 44.4634 54.585 48.544 54.585 52.747C54.585 56.95 56.0001 61.0306 58.6022 64.3313C58.7333 64.4927 58.8948 64.6268 59.0776 64.7258C59.2605 64.8248 59.461 64.8869 59.6678 64.9084C59.8746 64.9299 60.0836 64.9105 60.283 64.8512C60.4823 64.792 60.6679 64.694 60.8294 64.563C60.9908 64.432 61.1249 64.2705 61.2239 64.0876C61.323 63.9048 61.385 63.7043 61.4065 63.4974C61.428 63.2906 61.4086 63.0816 61.3494 62.8823C61.2901 62.683 61.1922 62.4973 61.0611 62.3359C58.9167 59.5995 57.7514 56.2233 57.7514 52.7468C57.7514 49.2703 58.9167 45.8941 61.0611 43.1578C61.3256 42.8317 61.4498 42.414 61.4063 41.9964C61.3629 41.5788 61.1553 41.1956 60.8294 40.931Z" fill="#35F0D0"/>
</svg>
