<svg width="100" height="125" viewBox="0 0 100 125" fill="none" xmlns="http://www.w3.org/2000/svg">
<g clip-path="url(#clip0)">
<path d="M83.7792 50.1296C87.182 48.2324 88.4078 43.9275 86.5086 40.5212V40.5212C85.244 38.2531 82.3179 37.5862 79.7211 37.6081C76.3914 37.6361 73.1507 35.8918 71.4116 32.7756C69.677 29.6644 69.8963 25.9927 71.6697 23.1753C73.0542 20.9758 74.0264 18.1337 72.7608 15.8638V15.8638C70.8644 12.4605 66.557 11.2384 63.1543 13.1379L35.3362 28.7028L32.2482 30.4245" stroke="white" stroke-width="3" stroke-miterlimit="10" stroke-linecap="round" stroke-linejoin="round" stroke-dasharray="12 9"/>
<path d="M6.43506 45.6293C3.03126 47.5248 2.35031 49.9194 4.24903 53.3248" stroke="white" stroke-width="3" stroke-miterlimit="10" stroke-linecap="round" stroke-linejoin="round" stroke-dasharray="12 9"/>
<path d="M17.0774 80.1722C18.9734 83.5769 22.3285 84.5307 25.7348 82.6315" stroke="white" stroke-width="3" stroke-miterlimit="10" stroke-linecap="round" stroke-linejoin="round" stroke-dasharray="12 9"/>
<path d="M86.35 48.0001L80.6 45.0001H42.8H35.15C31.7508 46.295 28.0129 46.3987 24.5472 45.2941L23.625 45.0001H14L10 46.0001L9 49.5001V66.0001V76.5001V81.7501L10 85.5001L13 87.0001H42.8H80.6L87 84.0001V76.0001L80.2 72.5001L77.6217 66.0001L80.2 60.0001L87 56.5001L86.35 48.0001Z" fill="#3EF3D4"/>
<path d="M9 68.0001H79L77.9515 66.0001L79 64.0001H9V68.0001Z" fill="white" stroke="white" stroke-miterlimit="10" stroke-linecap="round" stroke-linejoin="round"/>
<path d="M26.9991 44.9995L80.6674 45.0016C84.5296 44.9988 87.6692 48.1383 87.6685 51.9998L87.6699 56.6682C82.5101 56.666 78.3332 60.8429 78.334 65.9984C78.334 71.1561 82.5122 75.3344 87.6692 75.3337L87.6692 79.9991C87.6678 83.867 84.531 87.0009 80.6667 87.0016L26.9991 87.0016" stroke="white" stroke-width="2" stroke-miterlimit="10" stroke-linecap="round" stroke-linejoin="round"/>
<path d="M25.9991 87.0017L15.3343 87.0017C11.4657 87.001 8.33109 83.8664 8.33109 80.0013L8.3325 52.0013C8.33109 48.1363 11.4685 44.9974 15.3307 45.0003L25.9991 44.9996" stroke="white" stroke-width="2" stroke-miterlimit="10" stroke-linecap="round" stroke-linejoin="round"/>
<ellipse cx="45" cy="66" rx="8" ry="9" fill="white"/>
<rect x="36" y="53" width="20.0617" height="26" rx="10.0309" stroke="white" stroke-width="3"/>
<path fill-rule="evenodd" clip-rule="evenodd" d="M46.0309 53C40.491 53 36 57.491 36 63.0309V68.9691C36 74.509 40.491 79 46.0309 79C51.5708 79 56.0617 74.509 56.0617 68.9691V63.0309C56.0617 57.491 51.5708 53 46.0309 53ZM50.173 63.1698C50.173 60.8542 48.2972 58.977 45.9834 58.977C43.6696 58.977 41.7939 60.8542 41.7939 63.1698V63.7988H41.7886V73.023C43.524 73.023 44.9308 71.6162 44.9308 69.8808V69.6401C45.2671 69.7272 45.6199 69.7735 45.9834 69.7735C48.2972 69.7735 50.173 67.8963 50.173 65.5807V63.1698ZM44.9358 63.1698C44.9358 62.5909 45.4047 62.1216 45.9831 62.1216C46.5616 62.1216 47.0305 62.5909 47.0305 63.1698V65.5807C47.0305 66.1596 46.5616 66.6289 45.9831 66.6289C45.4047 66.6289 44.9358 66.1596 44.9358 65.5807V63.1698Z" fill="#8840FA"/>
</g>
<defs>
<clipPath id="clip0">
<rect width="100" height="125" fill="white"/>
</clipPath>
</defs>
</svg>
